<svg width="24" height="24" viewBox="0 0 24 24" fill="none" xmlns="http://www.w3.org/2000/svg">
<path d="M13.7951 1.22714C14.3922 1.63534 15.1106 1.82784 15.8318 1.77289C17.1391 1.67328 18.3736 2.38602 18.941 3.56798C19.254 4.22005 19.78 4.74595 20.432 5.05898C21.614 5.62637 22.3267 6.86086 22.2271 8.16817C22.1722 8.88938 22.3647 9.60779 22.7729 10.2049C23.5128 11.2873 23.5128 12.7127 22.7729 13.7951C22.3647 14.3922 22.1722 15.1106 22.2271 15.8318C22.3267 17.1391 21.614 18.3736 20.432 18.941C19.78 19.254 19.254 19.78 18.941 20.432C18.3736 21.614 17.1391 22.3267 15.8318 22.2271C15.1106 22.1722 14.3922 22.3647 13.7951 22.7729C12.7127 23.5128 11.2873 23.5128 10.2049 22.7729C9.60779 22.3647 8.88938 22.1722 8.16817 22.2271C6.86086 22.3267 5.62637 21.614 5.05897 20.432C4.74595 19.78 4.22004 19.254 3.56798 18.941C2.38602 18.3736 1.67328 17.1391 1.77289 15.8318C1.82784 15.1106 1.63534 14.3922 1.22714 13.7951C0.487231 12.7127 0.487231 11.2873 1.22714 10.2049C1.63534 9.60779 1.82784 8.88938 1.77289 8.16817C1.67328 6.86086 2.38602 5.62637 3.56798 5.05898C4.22005 4.74595 4.74595 4.22005 5.05898 3.56798C5.62637 2.38602 6.86086 1.67328 8.16817 1.77289C8.88938 1.82784 9.60779 1.63534 10.2049 1.22714C11.2873 0.487231 12.7127 0.487231 13.7951 1.22714Z" fill="#1A8952"/>
<path d="M13.1186 2.72599C13.8661 3.237 14.7654 3.47798 15.6683 3.40919C16.4829 3.34713 17.2521 3.79124 17.6057 4.52774L18.5072 4.09498L17.6057 4.52774C17.9976 5.34405 18.6559 6.00243 19.4723 6.3943C20.2088 6.74785 20.6529 7.51708 20.5908 8.33169C20.522 9.23457 20.763 10.1339 21.274 10.8814C21.7351 11.5559 21.7351 12.4441 21.274 13.1186C20.763 13.8661 20.522 14.7654 20.5908 15.6683C20.6529 16.4829 20.2088 17.2522 19.4723 17.6057C18.6559 17.9976 17.9976 18.6559 17.6057 19.4723C17.2522 20.2088 16.4829 20.6529 15.6683 20.5908C14.7654 20.522 13.8661 20.763 13.1186 21.274C12.4441 21.7351 11.5559 21.7351 10.8814 21.274C10.1339 20.763 9.23457 20.522 8.33169 20.5908C7.51708 20.6529 6.74785 20.2088 6.3943 19.4723C6.00243 18.6559 5.34405 17.9976 4.52775 17.6057C3.79124 17.2522 3.34713 16.4829 3.40919 15.6683C3.47798 14.7654 3.237 13.8661 2.72599 13.1186C2.26493 12.4441 2.26493 11.5559 2.72599 10.8814C3.237 10.1339 3.47798 9.23457 3.40919 8.33169C3.34713 7.51708 3.79124 6.74785 4.52774 6.3943C5.34405 6.00243 6.00243 5.34405 6.3943 4.52774C6.74785 3.79124 7.51708 3.34713 8.33169 3.40919C9.23457 3.47798 10.1339 3.237 10.8814 2.72599C11.5559 2.26493 12.4441 2.26493 13.1186 2.72599Z" fill="#1A8952" stroke="#EBFAF2" stroke-width="2"/>
<path fill-rule="evenodd" clip-rule="evenodd" d="M15.5648 8.57951C16.0041 8.14016 16.7164 8.14016 17.1558 8.57951C17.5951 9.01884 17.5951 9.73116 17.1558 10.1705L11.8525 15.4738C11.4131 15.9131 10.7008 15.9131 10.2615 15.4738L7.07951 12.2918C6.64016 11.8525 6.64017 11.1402 7.0795 10.7008C7.51884 10.2615 8.23116 10.2615 8.67049 10.7008L11.057 13.0873L15.5648 8.57951Z" fill="#EBFAF2"/>
</svg>
