<svg width="24" height="24" viewBox="0 0 24 24" fill="none" xmlns="http://www.w3.org/2000/svg">
<g clip-path="url(#clip0_459_12343)">
<path fill-rule="evenodd" clip-rule="evenodd" d="M9.60131 15.2866C9.40931 15.2866 9.21731 15.2136 9.07131 15.0666C8.77831 14.7736 8.77831 14.2996 9.07131 14.0066L13.8633 9.21456C14.1563 8.92156 14.6303 8.92156 14.9233 9.21456C15.2163 9.50756 15.2163 9.98156 14.9233 10.2746L10.1313 15.0666C9.98531 15.2136 9.79331 15.2866 9.60131 15.2866Z" fill="#89225A"/>
<path fill-rule="evenodd" clip-rule="evenodd" d="M14.3973 15.2894C14.2053 15.2894 14.0133 15.2164 13.8673 15.0694L9.07131 10.2724C8.77831 9.97943 8.77831 9.50543 9.07131 9.21243C9.36531 8.91943 9.83931 8.91943 10.1313 9.21243L14.9273 14.0094C15.2203 14.3024 15.2203 14.7764 14.9273 15.0694C14.7813 15.2164 14.5883 15.2894 14.3973 15.2894Z" fill="#89225A"/>
<path fill-rule="evenodd" clip-rule="evenodd" d="M7.665 3.64984C5.135 3.64984 3.5 5.38284 3.5 8.06584V16.2338C3.5 18.9168 5.135 20.6498 7.665 20.6498H16.333C18.864 20.6498 20.5 18.9168 20.5 16.2338V8.06584C20.5 5.38284 18.864 3.64984 16.334 3.64984H7.665ZM16.333 22.1498H7.665C4.276 22.1498 2 19.7718 2 16.2338V8.06584C2 4.52784 4.276 2.14984 7.665 2.14984H16.334C19.723 2.14984 22 4.52784 22 8.06584V16.2338C22 19.7718 19.723 22.1498 16.333 22.1498Z" fill="#89225A"/>
</g>
<defs>
<clipPath id="clip0_459_12343">
<rect width="24" height="24" fill="white"/>
</clipPath>
</defs>
</svg>
