<svg width="24" height="24" viewBox="0 0 24 24" fill="none" xmlns="http://www.w3.org/2000/svg">
<path fill-rule="evenodd" clip-rule="evenodd" d="M12.0129 22.5723C11.3275 22.5723 10.7227 21.7971 10.0615 21.6638C9.39848 21.53 8.53961 22.0096 7.91065 21.7432C7.30398 21.4866 7.06727 20.5491 6.52691 20.1841C5.98717 19.8203 5.02916 19.9529 4.56254 19.4863C4.09593 19.0197 4.22854 18.0617 3.86479 17.5219C3.50042 16.981 2.56223 16.7449 2.30569 16.1382C2.03923 15.5086 2.51886 14.6504 2.38501 13.9873C2.25178 13.3261 1.47656 12.7213 1.47656 12.036C1.47656 11.3506 2.25178 10.7458 2.38501 10.0846C2.51886 9.42155 2.03923 8.56269 2.30569 7.93372C2.56223 7.32705 3.4998 7.09034 3.86479 6.54998C4.22854 6.01025 4.09593 5.05223 4.56254 4.58561C5.02916 4.119 5.98717 4.25161 6.52691 3.88786C7.06789 3.52349 7.30398 2.5853 7.91065 2.32876C8.54023 2.0623 9.39848 2.54193 10.0615 2.40808C10.7227 2.27485 11.3275 1.49963 12.0129 1.49963C12.6983 1.49963 13.3031 2.27485 13.9642 2.40808C14.6273 2.54193 15.4862 2.0623 16.1151 2.32876C16.7218 2.5853 16.9585 3.52287 17.4989 3.88786C18.0386 4.25161 18.9966 4.119 19.4632 4.58561C19.9299 5.05223 19.7972 6.01025 20.161 6.54998C20.5254 7.09096 21.4635 7.32705 21.7201 7.93372C21.9866 8.56331 21.5069 9.42155 21.6408 10.0846C21.774 10.7458 22.5492 11.3506 22.5492 12.036C22.5492 12.7213 21.774 13.3261 21.6408 13.9873C21.5069 14.6504 21.9866 15.5092 21.7201 16.1382C21.4635 16.7449 20.526 16.9816 20.161 17.5219C19.7972 18.0617 19.9299 19.0197 19.4632 19.4863C18.9966 19.9529 18.0386 19.8203 17.4989 20.1841C16.9579 20.5484 16.7218 21.4866 16.1151 21.7432C15.4855 22.0096 14.6273 21.53 13.9642 21.6638C13.3031 21.7971 12.6983 22.5723 12.0129 22.5723ZM12.0129 19.9399C12.3692 19.9399 12.6598 19.7466 12.9486 19.5545C13.4406 19.2273 13.4983 19.2161 14.0795 19.3264C14.4197 19.3909 14.7605 19.4559 15.089 19.3165C15.6355 19.0854 15.8103 18.3845 16.1387 18.1633C16.4646 17.9433 17.1847 18.0412 17.6017 17.6242C18.0182 17.2078 17.9209 16.4871 18.1409 16.1611C18.3621 15.8333 19.0629 15.6573 19.2941 15.1114C19.4329 14.783 19.3684 14.4422 19.304 14.102C19.1937 13.5201 19.2055 13.4631 19.532 12.9711C19.7241 12.6817 19.9175 12.3917 19.9175 12.0353C19.9175 11.679 19.7241 11.3884 19.532 11.0996C19.2048 10.607 19.1937 10.55 19.304 9.96873C19.3684 9.62853 19.4335 9.28709 19.2941 8.95928C19.0629 8.41272 18.3621 8.23798 18.1409 7.90955C17.9209 7.5836 18.0188 6.86354 17.6017 6.4465C17.1853 6.03008 16.4646 6.12736 16.1387 5.90738C15.8109 5.68616 15.6349 4.9853 15.089 4.75417C14.7605 4.61536 14.4197 4.6798 14.0795 4.74425C13.4983 4.85455 13.4406 4.84278 12.9486 4.51621C12.6592 4.32411 12.3692 4.13077 12.0129 4.13077C11.6566 4.13077 11.366 4.32411 11.0772 4.51621C10.5845 4.8434 10.5275 4.85455 9.94628 4.74425C9.60607 4.6798 9.26525 4.61474 8.93683 4.75417C8.39027 4.9853 8.21552 5.68616 7.8871 5.90738C7.55991 6.12798 6.84171 6.02946 6.42404 6.4465C6.00762 6.86292 6.10491 7.5836 5.88493 7.90955C5.6637 8.23736 4.96285 8.41334 4.73171 8.95928C4.495 9.51884 4.85503 10.1627 4.77261 10.5692C4.69143 10.9714 4.10894 11.4299 4.10894 12.036C4.10894 12.642 4.69205 13.1006 4.77261 13.5027C4.85441 13.9092 4.495 14.5537 4.73171 15.1126C4.96285 15.6592 5.6637 15.8339 5.88493 16.1624C6.10553 16.4889 6.007 17.2084 6.42404 17.6254C6.84047 18.0418 7.56053 17.9446 7.8871 18.1645C8.2149 18.3851 8.39089 19.0866 8.93683 19.3178C9.26525 19.4566 9.60607 19.3921 9.94628 19.3277C10.5275 19.2174 10.5845 19.2285 11.0772 19.5557C11.3666 19.7466 11.6566 19.9399 12.0129 19.9399Z" fill="#1A8952"/>
<path fill-rule="evenodd" clip-rule="evenodd" d="M5 12C5 12.3557 5.51701 12.7805 5.62041 13.2934C5.72381 13.8051 5.41243 14.4013 5.5501 14.7257C5.68009 15.0323 6.31645 15.212 6.60125 15.6344C6.88427 16.0539 6.81337 16.7128 7.05031 16.9497C7.29079 17.1902 7.94074 17.1122 8.36558 17.3988C8.78746 17.683 8.96767 18.3205 9.27433 18.4499C9.5999 18.5876 10.1919 18.2756 10.7066 18.3796C11.2195 18.483 11.6443 19 12 19C12.3557 19 12.7805 18.483 13.2934 18.3796C13.8075 18.2756 14.4001 18.5882 14.7257 18.4499C15.0323 18.3199 15.212 17.6835 15.6344 17.3988C15.8483 17.2546 16.1048 17.2061 16.3618 17.1571C16.9863 17.0383 17.0383 16.9869 17.1571 16.3618C17.2061 16.1048 17.2546 15.8483 17.3988 15.6344C17.5435 15.4199 17.7627 15.2787 17.9825 15.1369C18.5155 14.7936 18.5509 14.7274 18.4257 14.0686C18.3766 13.8098 18.3276 13.551 18.3796 13.2934C18.483 12.7805 19 12.3557 19 12C19 11.6443 18.483 11.2195 18.3796 10.7066C18.2756 10.1925 18.5882 9.5999 18.4499 9.27433C18.3199 8.96767 17.6835 8.78805 17.3988 8.36558C17.2546 8.15168 17.2061 7.89525 17.1571 7.63822C17.0383 7.01367 16.9869 6.96168 16.3618 6.84291C16.1048 6.79387 15.8483 6.74542 15.6344 6.60125C15.4199 6.45649 15.2787 6.23728 15.1369 6.01747C14.7936 5.48451 14.7274 5.44906 14.0686 5.57432C13.8098 5.62336 13.551 5.67241 13.2934 5.62041C12.7805 5.51701 12.3557 5 12 5C11.6443 5 11.2195 5.51701 10.7066 5.62041C10.1925 5.7244 9.5999 5.41183 9.27433 5.5501C8.96767 5.68009 8.78805 6.31645 8.36558 6.60125C7.94606 6.88427 7.28725 6.81337 7.05031 7.05031C6.80983 7.29079 6.88782 7.94074 6.60125 8.36558C6.31704 8.78746 5.6795 8.96767 5.5501 9.27433C5.41243 9.5999 5.7244 10.1919 5.62041 10.7066C5.51701 11.2195 5 11.6443 5 12ZM9.01675 14.5L14.5 9.01676C14.6046 8.91217 14.8267 8.96472 14.9313 9.0693C15.0359 9.17388 15.0878 9.39542 14.9832 9.5L9.5 14.9832C9.39542 15.0878 9.17388 15.0359 9.0693 14.9313C8.96472 14.8267 8.91217 14.6046 9.01675 14.5ZM12.4615 14.0078C12.4615 13.5806 12.6346 13.1941 12.9141 12.9147C13.5173 12.3114 14.4964 12.3102 15.1009 12.9147C15.3809 13.1947 15.5535 13.5812 15.5535 14.0078C15.5535 14.8616 14.861 15.5541 14.0072 15.5541C13.58 15.5541 13.1936 15.3809 12.9141 15.1015C12.6346 14.8214 12.4615 14.4344 12.4615 14.0078ZM8.89913 11.0859C8.29586 10.4827 8.29467 9.50359 8.89913 8.89913C9.1792 8.61906 9.56563 8.44653 9.99223 8.44653C10.846 8.44653 11.5385 9.13902 11.5385 9.99283C11.5385 10.8466 10.846 11.5391 9.99223 11.5391C9.56563 11.5385 9.1792 11.3654 8.89913 11.0859Z" fill="#1A8952"/>
<path fill-rule="evenodd" clip-rule="evenodd" d="M9.2932 10.7072C9.68326 11.0973 10.3166 11.0979 10.7072 10.7072C11.0973 10.317 11.0979 9.68356 10.7072 9.29283C10.3172 8.90268 9.68385 8.9021 9.2932 9.29283C8.90256 9.68297 8.90197 10.3159 9.2932 10.7072Z" fill="#1A8952"/>
<path fill-rule="evenodd" clip-rule="evenodd" d="M13.2928 13.2932C12.9027 13.6833 12.9021 14.3166 13.2928 14.7072C13.683 15.0973 14.3164 15.0979 14.7072 14.7072C15.0973 14.3172 15.0979 13.6838 14.7072 13.2932C14.317 12.9026 13.6836 12.902 13.2928 13.2932Z" fill="#1A8952"/>
</svg>
