<svg width="11" height="18" viewBox="0 0 11 18" fill="none" xmlns="http://www.w3.org/2000/svg">
<path d="M0 8.21144H2.38566C3.8037 8.21144 4.83009 7.99111 5.46473 7.55046C5.87984 7.26448 6.1619 6.8431 6.3109 6.28648H0V4.41951H6.33444C6.01315 3.08989 4.87316 2.40568 2.91455 2.36697H0V0.5H11V2.36697H7.8857C8.33228 3.03191 8.60632 3.71603 8.70833 4.41951H11V6.28648H8.68479C8.53579 7.01336 8.22644 7.6432 7.7564 8.17668C7.08252 8.93436 6.28335 9.44856 5.35897 9.71896V9.76534C6.56549 10.1675 7.48612 11.2033 8.12076 12.8731L9.84832 17.5H7.39213L5.85263 13.1398C5.46081 12.0422 4.91836 11.2826 4.22495 10.8612C3.53154 10.44 2.7461 10.2291 1.86863 10.2291H0V8.21144Z" fill="#1F2937"/>
</svg>
