<svg width="40" height="40" viewBox="0 0 40 40" fill="none" xmlns="http://www.w3.org/2000/svg">
<rect width="40" height="40" rx="20" fill="#DFF3FB"/>
<rect x="0.5" y="0.5" width="39" height="39" rx="19.5" stroke="black" stroke-opacity="0.05"/>
<g clip-path="url(#clip0_1210_11323)">
<path d="M24.0216 23.1105C23.3341 23.1105 22.7012 22.9334 22.177 22.5789C21.5784 22.1742 21.22 21.5215 21.2188 20.8327C21.2188 20.1022 21.6132 19.428 22.3325 18.9382C25.0236 17.106 29.4262 18.3366 29.6123 18.3895C29.6672 18.4052 29.7174 18.4343 29.7585 18.4741C29.7995 18.5139 29.8301 18.5632 29.8475 18.6177C29.8648 18.6721 29.8685 18.73 29.8581 18.7863C29.8478 18.8425 29.8237 18.8953 29.788 18.9399C29.6943 19.0577 27.475 21.8274 26.2311 22.5493L26.2104 22.56C25.4705 22.927 24.7194 23.1105 24.0216 23.1105ZM26.2027 18.6361C25.0137 18.6361 23.7161 18.8364 22.7222 19.5123C22.1989 19.8685 21.911 20.3368 21.9118 20.8314C21.9118 21.2899 22.1568 21.7282 22.5645 22.0036C23.4102 22.5755 24.6532 22.5527 25.8907 21.9434C26.7527 21.4368 28.2257 19.7348 28.8951 18.9322C28.01 18.7427 27.1079 18.6435 26.2027 18.6361Z" fill="#030712"/>
<path d="M19.9974 23.8805C19.9324 23.8803 19.8687 23.8619 19.8136 23.8273C19.7585 23.7927 19.7143 23.7433 19.6858 23.6848C19.6574 23.6263 19.646 23.561 19.6528 23.4963C19.6597 23.4317 19.6845 23.3702 19.7246 23.3189C20.8306 21.9096 22.8888 20.6635 25.3724 19.8995C25.416 19.8861 25.4618 19.8814 25.5072 19.8857C25.5526 19.89 25.5967 19.9032 25.637 19.9245C25.6773 19.9459 25.713 19.975 25.742 20.0101C25.7711 20.0453 25.793 20.0858 25.8064 20.1294C25.8198 20.173 25.8244 20.2188 25.8201 20.2642C25.8158 20.3096 25.8026 20.3537 25.7813 20.394C25.76 20.4343 25.7309 20.47 25.6957 20.499C25.6606 20.5281 25.6201 20.5499 25.5765 20.5634C23.2248 21.2865 21.2908 22.4493 20.2707 23.7478C20.2382 23.7891 20.1967 23.8226 20.1493 23.8456C20.102 23.8686 20.05 23.8805 19.9974 23.8805ZM15.9751 23.1105C15.2769 23.1105 14.5266 22.9271 13.7863 22.5605L13.7657 22.5498C12.5217 21.8275 10.3024 19.0577 10.2087 18.9404C10.173 18.8958 10.1489 18.843 10.1386 18.7868C10.1282 18.7305 10.1319 18.6726 10.1493 18.6182C10.1666 18.5637 10.1972 18.5144 10.2382 18.4746C10.2793 18.4348 10.3295 18.4057 10.3844 18.39C10.5705 18.3367 14.9731 17.1065 17.6642 18.9387C18.3835 19.4285 18.7814 20.1014 18.778 20.8332C18.778 21.5207 18.4183 22.1747 17.8198 22.5794C17.2955 22.9335 16.6605 23.1105 15.9751 23.1105ZM14.1047 21.9435C15.3422 22.5528 16.5853 22.5756 17.4309 22.0037C17.8387 21.7282 18.0827 21.29 18.0836 20.8315C18.0836 20.3369 17.7966 19.8685 17.2732 19.5123C15.3607 18.21 12.3155 18.674 11.1003 18.9323C11.7698 19.7349 13.2432 21.4369 14.1047 21.9435Z" fill="#030712"/>
<path d="M20.0035 23.8805C19.9508 23.8806 19.8988 23.8687 19.8514 23.8457C19.804 23.8227 19.7624 23.7892 19.7298 23.7478C18.7102 22.4493 16.7762 21.2865 14.4249 20.5634C14.3369 20.5363 14.2632 20.4754 14.2201 20.394C14.177 20.3126 14.168 20.2174 14.195 20.1294C14.2221 20.0413 14.283 19.9677 14.3644 19.9245C14.4458 19.8814 14.541 19.8724 14.629 19.8995C17.1126 20.6635 19.1708 21.9096 20.2768 23.3189C20.3169 23.3702 20.3417 23.4317 20.3486 23.4965C20.3554 23.5612 20.3439 23.6265 20.3154 23.685C20.287 23.7435 20.2426 23.7929 20.1875 23.8275C20.1324 23.862 20.0686 23.8804 20.0035 23.8805Z" fill="#030712"/>
<path d="M19.8363 25.7797H19.82C19.728 25.7755 19.6415 25.7349 19.5795 25.6669C19.5174 25.5989 19.4849 25.509 19.4891 25.4171C19.7431 19.9661 19.56 15.7792 19.3748 14.295C19.3697 14.2071 19.3982 14.1205 19.4546 14.0528C19.5109 13.9851 19.5909 13.9413 19.6784 13.9304C19.7658 13.9195 19.8541 13.9422 19.9254 13.9939C19.9967 14.0457 20.0456 14.1226 20.0623 14.2091C20.2948 16.0731 20.4099 20.5328 20.1813 25.4493C20.1771 25.5381 20.1389 25.6218 20.0747 25.6833C20.0105 25.7448 19.9252 25.7793 19.8363 25.7797ZM22.976 16.9011C22.9074 16.9009 22.8404 16.8804 22.7834 16.8422C22.7264 16.804 22.682 16.7498 22.6557 16.6864C22.6295 16.623 22.6226 16.5532 22.6359 16.4859C22.6493 16.4186 22.6822 16.3567 22.7307 16.3081C23.5886 15.4484 24.0705 14.2833 24.0705 13.0687C24.0705 11.8541 23.5886 10.6891 22.7307 9.8293C22.6984 9.79705 22.6729 9.75877 22.6554 9.71663C22.6379 9.6745 22.629 9.62934 22.629 9.58373C22.629 9.53813 22.6379 9.49297 22.6554 9.45083C22.6729 9.4087 22.6984 9.37042 22.7307 9.33817C22.7629 9.30592 22.8012 9.28034 22.8433 9.26289C22.8855 9.24543 22.9306 9.23645 22.9762 9.23645C23.0219 9.23645 23.067 9.24543 23.1091 9.26289C23.1513 9.28034 23.1896 9.30592 23.2218 9.33817C24.2099 10.3283 24.7648 11.6699 24.7648 13.0687C24.7648 14.4675 24.2099 15.8091 23.2218 16.7993C23.1896 16.8316 23.1513 16.8572 23.1091 16.8747C23.0669 16.8922 23.0217 16.9012 22.976 16.9011ZM16.0074 16.9011C15.9152 16.9012 15.8269 16.8647 15.7616 16.7997C14.7736 15.8094 14.2188 14.4677 14.2188 13.0689C14.2188 11.6701 14.7736 10.3284 15.7616 9.33817C15.8274 9.27683 15.9145 9.24345 16.0045 9.24509C16.0945 9.24673 16.1803 9.28324 16.2439 9.34694C16.3075 9.41063 16.3439 9.49653 16.3454 9.58652C16.3468 9.6765 16.3133 9.76355 16.2519 9.8293C15.3939 10.6891 14.912 11.8542 14.912 13.0689C14.912 14.2836 15.3939 15.4487 16.2519 16.3086C16.3003 16.3571 16.3333 16.4188 16.3467 16.486C16.3601 16.5533 16.3533 16.623 16.3271 16.6863C16.301 16.7497 16.2567 16.8039 16.1998 16.8421C16.1429 16.8804 16.0759 16.9009 16.0074 16.9011Z" fill="#030712"/>
<path d="M21.656 15.5837C21.5874 15.5837 21.5202 15.5634 21.4631 15.5253C21.406 15.4872 21.3615 15.433 21.3352 15.3695C21.3089 15.3061 21.302 15.2363 21.3153 15.169C21.3287 15.1016 21.3617 15.0397 21.4102 14.9912C21.9195 14.481 22.2055 13.7896 22.2055 13.0687C22.2055 12.3479 21.9195 11.6565 21.4102 11.1463C21.378 11.1141 21.3524 11.0758 21.335 11.0336C21.3175 10.9915 21.3085 10.9464 21.3085 10.9008C21.3085 10.8551 21.3175 10.81 21.335 10.7679C21.3524 10.7257 21.378 10.6874 21.4102 10.6552C21.4425 10.6229 21.4808 10.5974 21.5229 10.5799C21.565 10.5624 21.6102 10.5535 21.6558 10.5535C21.7014 10.5535 21.7466 10.5624 21.7887 10.5799C21.8308 10.5974 21.8691 10.6229 21.9014 10.6552C22.5407 11.2957 22.8998 12.1637 22.8998 13.0687C22.8998 13.9737 22.5407 14.8418 21.9014 15.4823C21.8692 15.5146 21.831 15.5402 21.7889 15.5576C21.7468 15.575 21.7016 15.5839 21.656 15.5837ZM17.32 15.5841C17.2745 15.5841 17.2293 15.5751 17.1872 15.5577C17.1451 15.5402 17.1069 15.5146 17.0747 15.4823C16.4356 14.8417 16.0767 13.9738 16.0767 13.069C16.0767 12.1641 16.4356 11.2962 17.0747 10.6556C17.1401 10.5905 17.2286 10.554 17.3209 10.5541C17.4131 10.5543 17.5016 10.5911 17.5667 10.6565C17.6318 10.7218 17.6683 10.8104 17.6682 10.9026C17.668 10.9949 17.6312 11.0833 17.5658 11.1485C17.0567 11.6586 16.7708 12.3499 16.7708 13.0707C16.7708 13.7914 17.0567 14.4827 17.5658 14.9929C17.6143 15.0415 17.6473 15.1034 17.6606 15.1708C17.6739 15.2381 17.667 15.3079 17.6407 15.3713C17.6144 15.4348 17.5699 15.489 17.5129 15.5272C17.4558 15.5653 17.3887 15.5858 17.32 15.5858V15.5841ZM19.4883 14.6191C19.1816 14.6191 18.8819 14.5281 18.6269 14.3578C18.372 14.1874 18.1733 13.9453 18.0559 13.662C17.9386 13.3787 17.9079 13.067 17.9677 12.7663C18.0275 12.4656 18.1752 12.1893 18.392 11.9725C18.6088 11.7557 18.8851 11.608 19.1858 11.5482C19.4865 11.4884 19.7982 11.5191 20.0815 11.6364C20.3648 11.7538 20.6069 11.9525 20.7773 12.2074C20.9476 12.4624 21.0386 12.7621 21.0386 13.0687C21.0382 13.4798 20.8748 13.8739 20.5841 14.1646C20.2934 14.4553 19.8993 14.6187 19.4883 14.6191ZM19.4883 12.2128C19.319 12.2128 19.1535 12.263 19.0127 12.3571C18.872 12.4511 18.7623 12.5848 18.6975 12.7412C18.6327 12.8976 18.6157 13.0697 18.6488 13.2357C18.6818 13.4018 18.7633 13.5543 18.883 13.674C19.0027 13.7937 19.1552 13.8752 19.3213 13.9082C19.4873 13.9413 19.6594 13.9243 19.8158 13.8595C19.9722 13.7947 20.1059 13.685 20.1999 13.5443C20.294 13.4035 20.3442 13.238 20.3442 13.0687C20.3438 12.8418 20.2536 12.6243 20.0931 12.4639C19.9327 12.3034 19.7152 12.2131 19.4883 12.2128ZM26.2232 30.7637C26.1677 30.7636 26.113 30.7501 26.0637 30.7245C26.0145 30.6989 25.9721 30.6619 25.94 30.6166C25.908 30.5712 25.8873 30.5188 25.8797 30.4639C25.8721 30.4089 25.8777 30.3529 25.8962 30.3005L27.1174 26.8566H12.3155L13.5366 30.3005C13.5662 30.387 13.5605 30.4816 13.5207 30.5639C13.4809 30.6462 13.4103 30.7095 13.3242 30.7401C13.238 30.7706 13.1433 30.766 13.0606 30.7271C12.9778 30.6882 12.9137 30.6183 12.8822 30.5325L11.4965 26.6254C11.4779 26.573 11.4722 26.5169 11.4798 26.4618C11.4874 26.4067 11.5082 26.3543 11.5402 26.3088C11.5723 26.2634 11.6148 26.2264 11.6642 26.2008C11.7135 26.1752 11.7683 26.1618 11.8239 26.1617H27.6089C27.6645 26.1618 27.7193 26.1752 27.7687 26.2008C27.818 26.2264 27.8605 26.2634 27.8926 26.3088C27.9247 26.3543 27.9454 26.4067 27.953 26.4618C27.9606 26.5169 27.9549 26.573 27.9363 26.6254L26.5506 30.5325C26.5266 30.6001 26.4822 30.6587 26.4236 30.7001C26.3649 30.7414 26.2949 30.7637 26.2232 30.7637Z" fill="#030712"/>
<path d="M28.5103 30.7637H10.9253C10.8332 30.7637 10.7449 30.7271 10.6798 30.662C10.6147 30.5969 10.5781 30.5086 10.5781 30.4165C10.5781 30.3244 10.6147 30.2361 10.6798 30.171C10.7449 30.1059 10.8332 30.0693 10.9253 30.0693H28.5103C28.6024 30.0693 28.6907 30.1059 28.7558 30.171C28.8209 30.2361 28.8575 30.3244 28.8575 30.4165C28.8575 30.5086 28.8209 30.5969 28.7558 30.662C28.6907 30.7271 28.6024 30.7637 28.5103 30.7637ZM20.1034 28.8086H19.3334C19.2414 28.8086 19.153 28.7721 19.0879 28.7069C19.0228 28.6418 18.9862 28.5535 18.9862 28.4614C18.9862 28.3694 19.0228 28.2811 19.0879 28.2159C19.153 28.1508 19.2414 28.1143 19.3334 28.1143H20.1034C20.1955 28.1143 20.2838 28.1508 20.3489 28.2159C20.414 28.2811 20.4506 28.3694 20.4506 28.4614C20.4506 28.5535 20.414 28.6418 20.3489 28.7069C20.2838 28.7721 20.1955 28.8086 20.1034 28.8086ZM23.2466 28.8086H22.477C22.385 28.8086 22.2966 28.7721 22.2315 28.7069C22.1664 28.6418 22.1298 28.5535 22.1298 28.4614C22.1298 28.3694 22.1664 28.2811 22.2315 28.2159C22.2966 28.1508 22.385 28.1143 22.477 28.1143H23.2466C23.3387 28.1143 23.427 28.1508 23.4921 28.2159C23.5572 28.2811 23.5938 28.3694 23.5938 28.4614C23.5938 28.5535 23.5572 28.6418 23.4921 28.7069C23.427 28.7721 23.3387 28.8086 23.2466 28.8086ZM17.0716 28.8086H16.302C16.2099 28.8086 16.1216 28.7721 16.0565 28.7069C15.9914 28.6418 15.9548 28.5535 15.9548 28.4614C15.9548 28.3694 15.9914 28.2811 16.0565 28.2159C16.1216 28.1508 16.2099 28.1143 16.302 28.1143H17.0716C17.1636 28.1143 17.252 28.1508 17.3171 28.2159C17.3822 28.2811 17.4187 28.3694 17.4187 28.4614C17.4187 28.5535 17.3822 28.6418 17.3171 28.7069C17.252 28.7721 17.1636 28.8086 17.0716 28.8086Z" fill="#030712"/>
</g>
<defs>
<clipPath id="clip0_1210_11323">
<rect width="22" height="22" fill="white" transform="translate(9 9)"/>
</clipPath>
</defs>
</svg>
