<svg width="60" height="60" viewBox="0 0 60 60" fill="none" xmlns="http://www.w3.org/2000/svg">
<path d="M45.1704 31.625C45.1704 24.15 39.0365 18.0833 31.4787 18.0833C23.9209 18.0833 17.787 24.15 17.787 31.625C17.787 39.1 23.9209 45.1667 31.4787 45.1667C39.0365 45.1667 45.1704 39.1 45.1704 31.625ZM29.288 41.2667C26.3306 41.2667 24.0304 38.8833 24.0304 36.0667C24.0304 33.25 26.4402 30.8667 29.288 30.8667C32.1359 30.8667 34.5456 33.25 34.5456 36.0667C34.5456 38.8833 32.2454 41.2667 29.288 41.2667ZM35.0933 29.5667C32.9026 29.5667 31.0406 27.8333 31.0406 25.5583C31.0406 23.2833 32.7931 21.55 35.0933 21.55C37.3935 21.55 39.146 23.2833 39.146 25.5583C39.146 27.8333 37.284 29.5667 35.0933 29.5667ZM45.9371 44.625C45.0608 44.625 44.1846 44.8417 43.5274 45.1667L42.1034 43.2167C41.5558 43.65 41.0081 44.1917 40.3509 44.5167L41.7748 46.4667C41.0081 47.3333 40.57 48.525 40.57 49.7167C40.57 52.6417 42.9797 54.9167 45.8276 54.9167C48.6755 54.9167 51.0852 52.5333 51.0852 49.7167C51.1947 46.9 48.785 44.625 45.9371 44.625ZM12.9675 29.2417L15.8154 29.675C15.9249 28.9167 16.0345 28.2667 16.2535 27.5083L13.5152 27.075V26.9667C13.5152 24.0417 11.1055 21.7667 8.25761 21.7667C5.3002 21.7667 3 24.15 3 26.9667C3 29.8917 5.40974 32.1667 8.25761 32.1667C10.2292 32.1667 12.0913 30.975 12.9675 29.2417ZM20.9635 14.4C21.5112 14.4 21.9493 14.2917 22.3874 14.1833L24.2495 17.65C24.9067 17.325 25.5639 17 26.2211 16.7833L24.359 13.2083C25.5639 12.2333 26.2211 10.825 26.2211 9.2C26.2211 6.275 23.8114 4 20.9635 4C18.0061 4 15.7059 6.38333 15.7059 9.2C15.7059 12.125 18.0061 14.4 20.9635 14.4ZM38.7079 17.65L40.3509 14.075C41.0081 14.2917 41.6653 14.5083 42.3225 14.5083C45.2799 14.5083 47.5801 12.125 47.5801 9.30833C47.5801 6.38333 45.1704 4.10833 42.3225 4.10833C39.3651 4.10833 37.0649 6.49167 37.0649 9.30833C37.0649 10.7167 37.6126 12.0167 38.4888 12.8833L36.6268 16.7833C37.3935 17 38.0507 17.325 38.7079 17.65ZM18.6633 40.8333L12.6389 46.25C11.8722 45.8167 10.9959 45.6 10.0101 45.6C7.05274 45.6 4.75254 47.9833 4.75254 50.8C4.75254 53.6167 7.16227 56 10.0101 56C12.858 56 15.2677 53.6167 15.2677 50.8C15.2677 49.6083 14.8296 48.6333 14.2819 47.7667L20.0872 42.5667C19.5396 41.9167 19.1014 41.375 18.6633 40.8333ZM51.7424 15.4833C48.8945 15.4833 46.4848 17.8667 46.4848 20.6833C46.4848 21.3333 46.5943 21.875 46.8134 22.4167L45.1704 23.5C45.6085 24.15 45.9371 24.8 46.1562 25.45L47.9087 24.2583C48.8945 25.2333 50.2089 25.8833 51.7424 25.8833C54.6998 25.8833 57 23.5 57 20.6833C57 17.7583 54.5903 15.4833 51.7424 15.4833Z" fill="#89225A"/>
</svg>
