<svg width="42" height="42" viewBox="0 0 42 42" fill="none" xmlns="http://www.w3.org/2000/svg">
<path d="M4.83919 19.6875H7.875V32.8125H5.25C4.52419 32.8125 3.9375 33.4005 3.9375 34.125C3.9375 34.8495 4.52419 35.4375 5.25 35.4375H36.75C37.4758 35.4375 38.0625 34.8495 38.0625 34.125C38.0625 33.4005 37.4758 32.8125 36.75 32.8125H34.125V19.6875H37.1608C38.2266 19.6875 39.1781 19.0523 39.5863 18.0679C39.9945 17.0835 39.7714 15.9613 38.9379 15.1331L23.5436 2.10395C22.0723 0.857074 19.9303 0.857074 18.4564 2.10395L3.06206 15.1331L2.982 15.2066C2.22863 15.96 2.0055 17.0835 2.41238 18.0679C2.81925 19.0523 3.77344 19.6875 4.83919 19.6875ZM10.5 19.6875H15.75V32.8125H10.5V19.6875ZM23.625 32.8125H18.375V19.6875H23.625V32.8125ZM31.5 32.8125H26.25V19.6875H31.5V32.8125ZM20.1521 4.10682C20.3989 3.89945 20.6994 3.79576 21 3.79576C21.3006 3.79576 21.6024 3.89945 21.8479 4.10682L37.1621 17.0625L4.83525 17.0717L20.1521 4.10682ZM40.6875 39.375C40.6875 40.0995 40.1008 40.6875 39.375 40.6875H2.625C1.89919 40.6875 1.3125 40.0995 1.3125 39.375C1.3125 38.6505 1.89919 38.0625 2.625 38.0625H39.375C40.1008 38.0625 40.6875 38.6505 40.6875 39.375Z" fill="#4B5563"/>
</svg>
