<svg width="60" height="60" viewBox="0 0 60 60" fill="none" xmlns="http://www.w3.org/2000/svg">
<path d="M18.4714 35.2209C18.5301 36.2238 19.3615 36.9979 20.3533 36.9976C20.3904 36.9976 20.4279 36.9967 20.4654 36.9943C21.5058 36.9335 22.2997 36.0407 22.2391 35.0006C22.2108 34.5154 22.1876 34.0453 22.1688 33.5864L18.3867 33.467C18.4084 34.0394 18.4365 34.6234 18.4714 35.2209ZM38.0143 35.0008C37.9534 36.041 38.7473 36.9337 39.788 36.9946C39.8255 36.9969 39.8625 36.9979 39.9 36.9979C40.8916 36.9979 41.723 36.224 41.7819 35.2211C41.8169 34.6237 41.8449 34.0394 41.8666 33.467L38.0848 33.5866C38.0657 34.0453 38.0428 34.5156 38.0143 35.0008ZM30.1266 15.8471C31.1577 15.8471 32.1057 15.0539 32.7005 14.4194H27.5542C28.15 15.0539 29.0987 15.8471 30.1266 15.8471Z" fill="#89225A"/>
<path d="M30.5342 16.5306V35.157C30.7221 35.1369 30.9033 35.1008 31.0759 35.0511L32.6607 54.4831L38.4806 54.0906L36.5595 30.5366V20.1021C37.5199 22.0996 38.3841 25.9449 38.1641 32.8778L41.9433 32.7582C42.1926 24.1799 40.9138 18.5124 38.1311 15.8978C36.8081 14.6546 35.5156 14.4407 34.8514 14.4249C34.8132 14.4225 34.7752 14.419 34.7363 14.419H33.6931C33.1709 15.0707 31.9805 16.3441 30.5342 16.5306ZM32.4232 19.9747H35.0177V20.7217H32.4232V19.9747ZM21.8228 54.7958L21.7893 55.2055C21.6584 56.811 22.854 58.218 24.4588 58.3489C26.0639 58.4795 27.4715 57.2851 27.6024 55.6796L27.6425 55.1883L21.8228 54.7958ZM29.285 35.0508C29.4577 35.1008 29.6388 35.1367 29.8266 35.1567V16.5306C28.3803 16.3441 27.1899 15.0707 26.6674 14.4192H25.6242C25.5839 14.4192 25.5445 14.4227 25.5049 14.4253C24.8395 14.4421 23.5496 14.6577 22.2297 15.8981C19.447 18.5124 18.1681 24.1799 18.4172 32.7582L22.1964 32.8778C21.9764 25.9444 22.8408 22.0991 23.8012 20.1016V30.5366L21.8801 54.0904L27.7 54.4828L29.285 35.0508ZM32.7583 55.6796C32.8893 57.2854 34.2969 58.4798 35.9019 58.3489C37.507 58.218 38.7023 56.811 38.5714 55.2055L38.5379 54.7958L32.718 55.1881L32.7583 55.6796ZM30.1804 5.09838C32.3508 5.09838 34.5351 5.56892 35.4769 6.5921C35.483 6.4869 35.4873 6.38123 35.4873 6.27462C35.4873 3.34356 33.1112 0.967712 30.1804 0.967712C27.2495 0.967712 24.8735 3.34356 24.8735 6.27462C24.8735 6.38147 24.8775 6.48714 24.8838 6.59233C25.8254 5.56892 28.01 5.09838 30.1804 5.09838Z" fill="#89225A"/>
<path d="M24.9082 7.76837C24.9082 8.66134 25.1297 9.5022 25.5193 10.2404C26.4085 11.9259 28.1773 13.0753 30.2151 13.0753C32.3379 13.0753 34.1691 11.8283 35.0178 10.0272C35.3406 9.34181 35.522 8.57643 35.522 7.76837C35.522 4.8373 24.9082 4.8373 24.9082 7.76837Z" fill="#89225A"/>
</svg>
