<svg width="31" height="30" viewBox="0 0 31 30" fill="none" xmlns="http://www.w3.org/2000/svg">
<g clip-path="url(#clip0_378_52163)">
<path d="M24.7038 19.075L21.5288 18.7125C20.7663 18.625 20.0163 18.8875 19.4788 19.425L17.1788 21.725C13.6413 19.925 10.7413 17.0375 8.94131 13.4875L11.2538 11.175C11.7913 10.6375 12.0538 9.88751 11.9663 9.12501L11.6038 5.97501C11.4538 4.71251 10.3913 3.76251 9.11631 3.76251H6.95381C5.54131 3.76251 4.36631 4.93751 4.45381 6.35001C5.11631 17.025 13.6538 25.55 24.3163 26.2125C25.7288 26.3 26.9038 25.125 26.9038 23.7125V21.55C26.9163 20.2875 25.9663 19.225 24.7038 19.075Z" fill="#89225A"/>
</g>
<defs>
<clipPath id="clip0_378_52163">
<rect width="30" height="30" fill="white" transform="translate(0.666016)"/>
</clipPath>
</defs>
</svg>
