<svg width="60" height="60" viewBox="0 0 60 60" fill="none" xmlns="http://www.w3.org/2000/svg">
<path d="M39.9051 55.5877C38.2759 53.7102 36.2306 51.6016 34.0013 49.3036C22.5807 37.5302 6.5269 20.9804 18.7796 8.67011C21.8783 5.55679 25.94 4 30.0011 4C34.0623 4 38.1238 5.55679 41.2225 8.67C45.5934 13.0615 46.6349 17.5267 45.7518 21.8691C44.8954 26.0805 41.7445 30.9116 38.5618 34.5824C38.1482 35.0597 37.4274 35.1098 36.9523 34.6943C36.9262 34.6714 36.9012 34.6474 36.8777 34.6227L31.7302 29.7874C31.2697 29.357 31.2438 28.6329 31.6722 28.1704L31.7348 28.1078C33.7097 26.2803 36.2264 23.5641 36.9676 21.3799C37.6499 19.3692 37.3188 17.1807 35.0354 14.8866C33.6453 13.4901 31.8231 12.7915 30.0011 12.7915C28.1791 12.7915 26.357 13.4901 24.967 14.8864C20.7231 19.1501 25.0537 25.6337 31.1664 31.7754C35.0292 35.6564 39.573 39.3645 43.2719 42.383C45.447 44.1581 47.3359 45.6996 48.6323 46.8989C49.0951 47.3268 49.1251 48.051 48.6992 48.5159L48.6664 48.5503L48.6679 48.5517L41.5885 55.6642C41.1429 56.1119 40.4202 56.1119 39.9747 55.6642C39.9502 55.6396 39.927 55.614 39.9051 55.5877ZM18.4134 55.6645L11.3341 48.5518C10.8886 48.1041 10.8886 47.378 11.3341 46.9305C11.3742 46.8902 11.4165 46.8537 11.4607 46.8207L20.5735 39.0261C21.0417 38.628 21.7371 38.6756 22.1481 39.126L27.0299 44.938C27.4378 45.3548 27.463 46.0062 27.109 46.4519L20.121 55.5525C19.7369 56.0523 19.0222 56.1444 18.5248 55.7586C18.4859 55.7284 18.4495 55.6962 18.4157 55.6623L18.4134 55.6645Z" fill="#89225A"/>
</svg>
