<svg width="42" height="42" viewBox="0 0 42 42" fill="none" xmlns="http://www.w3.org/2000/svg">
<path fill-rule="evenodd" clip-rule="evenodd" d="M6.3 6.5625H35.7C38.4562 6.5625 40.6875 8.79375 40.6875 11.55V30.45C40.6875 33.2063 38.4562 35.4375 35.7 35.4375H6.3C3.54375 35.4375 1.3125 33.2063 1.3125 30.45V11.55C1.3125 8.79375 3.54375 6.5625 6.3 6.5625ZM7.875 27.5625H13.125C13.8498 27.5625 14.4375 28.1502 14.4375 28.875C14.4375 29.5998 13.8498 30.1875 13.125 30.1875H7.875C7.15024 30.1875 6.5625 29.5998 6.5625 28.875C6.5625 28.1502 7.15024 27.5625 7.875 27.5625ZM34.125 13.125H7.875C7.15024 13.125 6.5625 13.7127 6.5625 14.4375C6.5625 15.1623 7.15024 15.75 7.875 15.75H34.125C34.8498 15.75 35.4375 15.1623 35.4375 14.4375C35.4375 13.7127 34.8498 13.125 34.125 13.125ZM7.875 18.125H34.125C34.8498 18.125 35.4375 18.7127 35.4375 19.4375C35.4375 20.1623 34.8498 20.75 34.125 20.75H7.875C7.15024 20.75 6.5625 20.1623 6.5625 19.4375C6.5625 18.7127 7.15024 18.125 7.875 18.125Z" fill="#89225A"/>
</svg>
