<svg width="22" height="22" viewBox="0 0 22 22" fill="none" xmlns="http://www.w3.org/2000/svg">
<path fill-rule="evenodd" clip-rule="evenodd" d="M11.0129 21.5723C10.3275 21.5723 9.72273 20.797 9.06154 20.6638C8.39848 20.53 7.53961 21.0096 6.91065 20.7431C6.30398 20.4866 6.06727 19.549 5.52691 19.184C4.98717 18.8203 4.02916 18.9529 3.56254 18.4863C3.09593 18.0197 3.22854 17.0616 2.86479 16.5219C2.50042 15.9809 1.56223 15.7448 1.30569 15.1382C1.03923 14.5086 1.51886 13.6503 1.38501 12.9873C1.25178 12.3261 0.476562 11.7213 0.476562 11.0359C0.476562 10.3506 1.25178 9.74577 1.38501 9.08458C1.51886 8.42152 1.03923 7.56266 1.30569 6.93369C1.56223 6.32702 2.4998 6.09031 2.86479 5.54995C3.22854 5.01022 3.09593 4.0522 3.56254 3.58558C4.02916 3.11897 4.98717 3.25158 5.52691 2.88783C6.06789 2.52346 6.30398 1.58527 6.91065 1.32873C7.54023 1.06227 8.39848 1.5419 9.06154 1.40805C9.72273 1.27482 10.3275 0.499603 11.0129 0.499603C11.6983 0.499603 12.3031 1.27482 12.9642 1.40805C13.6273 1.5419 14.4862 1.06227 15.1151 1.32873C15.7218 1.58527 15.9585 2.52284 16.4989 2.88783C17.0386 3.25158 17.9966 3.11897 18.4632 3.58558C18.9299 4.0522 18.7972 5.01022 19.161 5.54995C19.5254 6.09093 20.4635 6.32702 20.7201 6.93369C20.9866 7.56327 20.5069 8.42152 20.6408 9.08458C20.774 9.74577 21.5492 10.3506 21.5492 11.0359C21.5492 11.7213 20.774 12.3261 20.6408 12.9873C20.5069 13.6503 20.9866 14.5092 20.7201 15.1382C20.4635 15.7448 19.526 15.9816 19.161 16.5219C18.7972 17.0616 18.9299 18.0197 18.4632 18.4863C17.9966 18.9529 17.0386 18.8203 16.4989 19.184C15.9579 19.5484 15.7218 20.4866 15.1151 20.7431C14.4855 21.0096 13.6273 20.53 12.9642 20.6638C12.3031 20.797 11.6983 21.5723 11.0129 21.5723ZM11.0129 18.9399C11.3692 18.9399 11.6598 18.7465 11.9486 18.5544C12.4406 18.2273 12.4983 18.2161 13.0795 18.3264C13.4197 18.3909 13.7605 18.4559 14.089 18.3165C14.6355 18.0854 14.8103 17.3845 15.1387 17.1633C15.4646 16.9433 16.1847 17.0412 16.6017 16.6242C17.0182 16.2077 16.9209 15.4871 17.1409 15.1611C17.3621 14.8333 18.0629 14.6573 18.2941 14.1114C18.4329 13.7829 18.3684 13.4421 18.304 13.1019C18.1937 12.5201 18.2055 12.463 18.532 11.971C18.7241 11.6816 18.9175 11.3916 18.9175 11.0353C18.9175 10.679 18.7241 10.3884 18.532 10.0996C18.2048 9.60696 18.1937 9.54995 18.304 8.9687C18.3684 8.6285 18.4335 8.28706 18.2941 7.95925C18.0629 7.41269 17.3621 7.23795 17.1409 6.90952C16.9209 6.58357 17.0188 5.86351 16.6017 5.44647C16.1853 5.03005 15.4646 5.12733 15.1387 4.90735C14.8109 4.68613 14.6349 3.98527 14.089 3.75413C13.7605 3.61533 13.4197 3.67977 13.0795 3.74422C12.4983 3.85452 12.4406 3.84275 11.9486 3.51618C11.6592 3.32408 11.3692 3.13074 11.0129 3.13074C10.6566 3.13074 10.366 3.32408 10.0772 3.51618C9.58454 3.84337 9.52753 3.85452 8.94628 3.74422C8.60607 3.67977 8.26525 3.61471 7.93683 3.75413C7.39027 3.98527 7.21552 4.68613 6.8871 4.90735C6.55991 5.12795 5.84171 5.02943 5.42404 5.44647C5.00762 5.86289 5.10491 6.58357 4.88493 6.90952C4.6637 7.23733 3.96285 7.41331 3.73171 7.95925C3.495 8.51881 3.85503 9.16265 3.77261 9.56916C3.69143 9.97133 3.10894 10.4299 3.10894 11.0359C3.10894 11.642 3.69205 12.1005 3.77261 12.5027C3.85441 12.9092 3.495 13.5537 3.73171 14.1126C3.96285 14.6592 4.6637 14.8339 4.88493 15.1623C5.10553 15.4889 5.007 16.2084 5.42404 16.6254C5.84047 17.0418 6.56053 16.9445 6.8871 17.1645C7.2149 17.3851 7.39089 18.0866 7.93683 18.3177C8.26525 18.4565 8.60607 18.3921 8.94628 18.3276C9.52753 18.2173 9.58454 18.2285 10.0772 18.5557C10.3666 18.7465 10.6566 18.9399 11.0129 18.9399Z" fill="#1A8952"/>
<path fill-rule="evenodd" clip-rule="evenodd" d="M4 11C4 11.3557 4.51701 11.7805 4.62041 12.2934C4.72381 12.8051 4.41243 13.4013 4.5501 13.7256C4.68009 14.0323 5.31645 14.2119 5.60125 14.6344C5.88427 15.0539 5.81337 15.7127 6.05031 15.9497C6.29079 16.1901 6.94074 16.1121 7.36558 16.3987C7.78746 16.6829 7.96767 17.3205 8.27433 17.4499C8.5999 17.5875 9.19195 17.2756 9.70659 17.3796C10.2195 17.483 10.6443 18 11 18C11.3557 18 11.7805 17.483 12.2934 17.3796C12.8075 17.2756 13.4001 17.5881 13.7257 17.4499C14.0323 17.3199 14.212 16.6835 14.6344 16.3987C14.8483 16.2545 15.1048 16.2061 15.3618 16.1571C15.9863 16.0383 16.0383 15.9869 16.1571 15.3617C16.2061 15.1047 16.2546 14.8483 16.3988 14.6344C16.5435 14.4199 16.7627 14.2787 16.9825 14.1369C17.5155 13.7936 17.5509 13.7274 17.4257 13.0686C17.3766 12.8098 17.3276 12.551 17.3796 12.2934C17.483 11.7805 18 11.3557 18 11C18 10.6443 17.483 10.2194 17.3796 9.70656C17.2756 9.19251 17.5882 8.59987 17.4499 8.2743C17.3199 7.96764 16.6835 7.78802 16.3988 7.36555C16.2546 7.15165 16.2061 6.89522 16.1571 6.63819C16.0383 6.01364 15.9869 5.96165 15.3618 5.84288C15.1048 5.79384 14.8483 5.74539 14.6344 5.60122C14.4199 5.45646 14.2787 5.23724 14.1369 5.01744C13.7936 4.48448 13.7274 4.44903 13.0686 4.57429C12.8098 4.62333 12.551 4.67238 12.2934 4.62038C11.7805 4.51698 11.3557 3.99997 11 3.99997C10.6443 3.99997 10.2195 4.51698 9.70659 4.62038C9.19254 4.72437 8.5999 4.4118 8.27433 4.55007C7.96767 4.68006 7.78805 5.31642 7.36558 5.60122C6.94606 5.88424 6.28725 5.81334 6.05031 6.05028C5.80983 6.29076 5.88782 6.94071 5.60125 7.36555C5.31704 7.78743 4.6795 7.96764 4.5501 8.2743C4.41243 8.59987 4.7244 9.19192 4.62041 9.70656C4.51701 10.2194 4 10.6443 4 11ZM8.01675 13.5L13.5 8.01673C13.6046 7.91214 13.8267 7.96469 13.9313 8.06927C14.0359 8.17385 14.0878 8.39539 13.9832 8.49997L8.5 13.9832C8.39542 14.0878 8.17388 14.0358 8.0693 13.9313C7.96472 13.8267 7.91217 13.6046 8.01675 13.5ZM11.4615 13.0077C11.4615 12.5805 11.6346 12.1941 11.9141 11.9146C12.5173 11.3114 13.4964 11.3102 14.1009 11.9146C14.3809 12.1947 14.5535 12.5811 14.5535 13.0077C14.5535 13.8615 13.861 14.554 13.0072 14.554C12.58 14.554 12.1936 14.3809 11.9141 14.1014C11.6346 13.8214 11.4615 13.4343 11.4615 13.0077ZM7.89913 10.0859C7.29586 9.48262 7.29467 8.50356 7.89913 7.8991C8.1792 7.61903 8.56563 7.4465 8.99223 7.4465C9.84604 7.4465 10.5385 8.13899 10.5385 8.99279C10.5385 9.8466 9.84604 10.5391 8.99223 10.5391C8.56563 10.5385 8.1792 10.3654 7.89913 10.0859Z" fill="#1A8952"/>
<path fill-rule="evenodd" clip-rule="evenodd" d="M8.2932 9.70714C8.68326 10.0973 9.31659 10.0979 9.70724 9.70714C10.0973 9.317 10.0979 8.68353 9.70724 8.2928C9.31718 7.90265 8.68385 7.90207 8.2932 8.2928C7.90256 8.68294 7.90197 9.31583 8.2932 9.70714Z" fill="#1A8952"/>
<path fill-rule="evenodd" clip-rule="evenodd" d="M12.2928 12.2932C11.9027 12.6832 11.9021 13.3166 12.2928 13.7072C12.683 14.0973 13.3164 14.0978 13.7072 13.7072C14.0973 13.3171 14.0979 12.6838 13.7072 12.2932C13.317 11.9025 12.6836 11.9019 12.2928 12.2932Z" fill="#1A8952"/>
</svg>
