<svg width="48" height="46" viewBox="0 0 48 46" fill="none" xmlns="http://www.w3.org/2000/svg">
<path d="M15.0719 0.000374445C16.5839 0.0467603 18.0478 0.313072 19.4662 0.799695H19.6078C19.7038 0.845694 19.7758 0.896536 19.8238 0.942535C20.3542 1.11443 20.8558 1.30811 21.3358 1.57442L22.2478 1.98599C22.6078 2.17967 23.0398 2.5404 23.2798 2.68808C23.5198 2.83092 23.7838 2.97861 23.9998 3.14566C26.6662 1.09022 29.9037 -0.0234491 33.2397 0.000374445C34.7541 0.000374445 36.2661 0.216231 37.7036 0.702855C46.562 3.60807 49.7539 13.4132 47.0875 21.9836C45.5756 26.3632 43.1036 30.3603 39.866 33.6262C35.2317 38.1535 30.1461 42.1724 24.6718 45.6344L24.0718 46L23.4478 45.6102C17.9543 42.1724 12.8399 38.1535 8.16235 33.602C4.94639 30.3361 2.47201 26.3632 0.93603 21.9836C-1.77594 13.4132 1.41603 3.60807 10.3703 0.652013C11.0663 0.409912 11.7839 0.240441 12.5039 0.146022H12.7919C13.4663 0.0467602 14.1359 0.000374445 14.8079 0.000374445H15.0719ZM36.4557 7.65116C35.4717 7.3098 34.3917 7.84484 34.0317 8.86167C33.6957 9.87849 34.2237 10.9922 35.2317 11.3529C36.7701 11.9339 37.7996 13.4616 37.7996 15.1539V15.2289C37.754 15.7833 37.9196 16.3184 38.2556 16.73C38.5916 17.1415 39.0956 17.3812 39.6236 17.4321C40.6076 17.4054 41.4476 16.6089 41.5196 15.5897V15.3016C41.5916 11.9097 39.554 8.83746 36.4557 7.65116Z" fill="#89225A"/>
</svg>
