<svg width="30" height="30" viewBox="0 0 30 30" fill="none" xmlns="http://www.w3.org/2000/svg">
<path d="M22.955 21.705L15 29.66L7.04501 21.705C5.47168 20.1317 4.40023 18.1271 3.96616 15.9448C3.53209 13.7626 3.75488 11.5006 4.60637 9.4449C5.45786 7.38924 6.8998 5.63224 8.74985 4.39608C10.5999 3.15992 12.775 2.50012 15 2.50012C17.225 2.50012 19.4001 3.15992 21.2502 4.39608C23.1002 5.63224 24.5421 7.38924 25.3936 9.4449C26.2451 11.5006 26.4679 13.7626 26.0338 15.9448C25.5998 18.1271 24.5283 20.1317 22.955 21.705ZM15 16.25C15.663 16.25 16.2989 15.9866 16.7678 15.5178C17.2366 15.049 17.5 14.4131 17.5 13.75C17.5 13.087 17.2366 12.4511 16.7678 11.9823C16.2989 11.5134 15.663 11.25 15 11.25C14.337 11.25 13.7011 11.5134 13.2322 11.9823C12.7634 12.4511 12.5 13.087 12.5 13.75C12.5 14.4131 12.7634 15.049 13.2322 15.5178C13.7011 15.9866 14.337 16.25 15 16.25Z" fill="#89225A"/>
</svg>
