<svg width="17" height="20" viewBox="0 0 17 20" fill="none" xmlns="http://www.w3.org/2000/svg">
<path fillRule="evenodd" clipRule="evenodd" d="M8.25 6.75C7.285 6.75 6.5 7.535 6.5 8.501C6.5 9.466 7.285 10.25 8.25 10.25C9.215 10.25 10 9.466 10 8.501C10 7.535 9.215 6.75 8.25 6.75ZM8.25 11.75C6.458 11.75 5 10.293 5 8.501C5 6.708 6.458 5.25 8.25 5.25C10.042 5.25 11.5 6.708 11.5 8.501C11.5 10.293 10.042 11.75 8.25 11.75Z" fill="#89225A"/>
<mask id="mask0_622_408" style="mask-type:luminance" maskUnits="userSpaceOnUse" x="0" y="0" width="17" height="20">
<path fillRule="evenodd" clipRule="evenodd" d="M0 0.25H16.4995V19.75H0V0.25Z" fill="white"/>
</mask>
<g mask="url(#mask0_622_408)">
<path fillRule="evenodd" clipRule="evenodd" d="M8.25 1.75C4.528 1.75 1.5 4.807 1.5 8.563C1.5 13.342 7.124 17.998 8.25 18.246C9.376 17.997 15 13.341 15 8.563C15 4.807 11.972 1.75 8.25 1.75ZM8.25 19.75C6.456 19.75 0 14.198 0 8.563C0 3.979 3.701 0.25 8.25 0.25C12.799 0.25 16.5 3.979 16.5 8.563C16.5 14.198 10.044 19.75 8.25 19.75Z" fill="#89225A"/>
</g>
</svg>
