<svg width="31" height="30" viewBox="0 0 31 30" fill="none" xmlns="http://www.w3.org/2000/svg">
<g clip-path="url(#clip0_378_52176)">
<path d="M3.13578 8.56749L14.6945 1.63749C14.8888 1.52092 15.1111 1.45935 15.3377 1.45935C15.5642 1.45935 15.7865 1.52092 15.9808 1.63749L27.5283 8.56874C27.6209 8.62426 27.6976 8.70284 27.7509 8.79682C27.8041 8.8908 27.8321 8.99698 27.832 9.10499V25C27.832 25.3315 27.7003 25.6495 27.4659 25.8839C27.2315 26.1183 26.9136 26.25 26.582 26.25H4.08203C3.75051 26.25 3.43257 26.1183 3.19815 25.8839C2.96373 25.6495 2.83203 25.3315 2.83203 25V9.10374C2.83201 8.99573 2.85998 8.88955 2.91321 8.79557C2.96645 8.70159 3.04313 8.62301 3.13578 8.56749ZM23.2645 10.305L15.4083 17.1037L7.39078 10.2975L5.77328 12.2025L15.4233 20.3962L24.8995 12.1962L23.2645 10.305Z" fill="#89225A"/>
</g>
<defs>
<clipPath id="clip0_378_52176">
<rect width="30" height="30" fill="white" transform="translate(0.332031)"/>
</clipPath>
</defs>
</svg>
