<svg width="48" height="48" viewBox="0 0 48 48" fill="none" xmlns="http://www.w3.org/2000/svg">
<g clip-path="url(#clip0_441_11026)">
<path d="M45.44 8.92798H2.56C1.14615 8.92798 0 10.0741 0 11.488V36.512C0 37.9258 1.14615 39.072 2.56 39.072H45.44C46.8539 39.072 48 37.9258 48 36.512V11.488C48 10.0741 46.8539 8.92798 45.44 8.92798Z" fill="black"/>
<path d="M14.1536 35.9149V34.3245C14.1536 33.7146 13.7824 33.3172 13.1731 33.3172C12.8531 33.3172 12.5107 33.4234 12.272 33.7652C12.0864 33.4733 11.824 33.3172 11.424 33.3172C11.1219 33.3041 10.8335 33.4435 10.656 33.6884V33.3684H10.1523V35.913H10.656V34.457C10.656 34.009 10.921 33.7946 11.2922 33.7946C11.6634 33.7946 11.8752 34.0333 11.8752 34.457V35.9149H12.3789V34.457C12.3789 34.009 12.6439 33.7946 13.0151 33.7946C13.3863 33.7946 13.5981 34.0333 13.5981 34.457V35.9149H14.1536ZM22.4237 33.3965H21.4957V32.6285H20.9933V33.3965H20.4634V33.8445H20.9933V35.04C20.9933 35.6231 21.2051 35.968 21.8413 35.968C22.0823 35.963 22.3185 35.8993 22.5293 35.7824L22.3699 35.3344C22.2269 35.4238 22.0611 35.4698 21.8925 35.4669C21.6275 35.4669 21.4951 35.3076 21.4951 35.0426V33.824H22.4231V33.3997L22.4237 33.3965ZM27.1418 33.3172C26.8627 33.3109 26.6009 33.4519 26.4525 33.6884V33.3684H25.9488V35.913H26.4525V34.4839C26.4525 34.0596 26.6643 33.7946 27.0093 33.7946C27.1257 33.7993 27.2412 33.8171 27.3536 33.8477L27.513 33.3703C27.3914 33.3396 27.267 33.3218 27.1418 33.3172ZM20.0115 33.5821C19.7466 33.3965 19.3754 33.3172 18.9779 33.3172C18.3418 33.3172 17.9443 33.609 17.9443 34.1127C17.9443 34.537 18.2362 34.7751 18.7923 34.8551L19.0573 34.8813C19.3491 34.9344 19.5347 35.0407 19.5347 35.1732C19.5347 35.3588 19.3229 35.4932 18.9248 35.4932C18.6209 35.4994 18.3232 35.4064 18.0768 35.2282L17.8119 35.6256C18.1831 35.8906 18.6336 35.9456 18.8999 35.9456C19.6423 35.9456 20.0397 35.6013 20.0397 35.1239C20.0397 34.6759 19.7197 34.4615 19.1648 34.3815L18.8999 34.3552C18.6611 34.329 18.4519 34.249 18.4519 34.0903C18.4519 33.9047 18.6637 33.7703 18.9555 33.7703C19.2755 33.7703 19.5917 33.9028 19.7511 33.9821L20.0115 33.5821ZM27.6986 34.6426C27.6986 35.4106 28.2023 35.968 29.024 35.968C29.3952 35.968 29.6602 35.8887 29.9251 35.6762L29.6602 35.2788C29.4726 35.4307 29.2392 35.5148 28.9978 35.5175C28.5498 35.5175 28.2023 35.1732 28.2023 34.6695C28.2023 34.1658 28.5453 33.824 28.9978 33.824C29.2392 33.8267 29.4726 33.9108 29.6602 34.0628L29.9251 33.6653C29.6602 33.4535 29.3952 33.3735 29.024 33.3735C28.2285 33.3204 27.6986 33.8772 27.6986 34.6458V34.6426ZM24.1466 33.3172C23.4042 33.3172 22.9005 33.8471 22.9005 34.6426C22.9005 35.4381 23.4304 35.968 24.1991 35.968C24.573 35.9759 24.9382 35.8543 25.2327 35.6237L24.9677 35.2525C24.7547 35.4176 24.4947 35.5104 24.2253 35.5175C23.881 35.5175 23.5098 35.3056 23.4573 34.8551H25.3395V34.6432C25.3395 33.8477 24.8621 33.3178 24.1466 33.3178V33.3172ZM24.1203 33.7946C24.4915 33.7946 24.7565 34.0333 24.7827 34.4308H23.4048C23.4842 34.0596 23.7248 33.7946 24.1203 33.7946ZM17.2551 34.6426V33.3703H16.7514V33.6903C16.5658 33.4516 16.3034 33.3191 15.9296 33.3191C15.2141 33.3191 14.6835 33.8759 14.6835 34.6445C14.6835 35.4132 15.2135 35.97 15.9296 35.97C16.3008 35.97 16.5658 35.8375 16.7514 35.5988V35.9188H17.2551V34.6426ZM15.2141 34.6426C15.2141 34.1652 15.5059 33.7946 16.0096 33.7946C16.4871 33.7946 16.7776 34.1658 16.7776 34.6426C16.7776 35.1463 16.4576 35.4906 16.0096 35.4906C15.5059 35.5168 15.2141 35.1194 15.2141 34.6426ZM34.8032 33.3172C34.5241 33.3109 34.2624 33.4519 34.1139 33.6884V33.3684H33.6103V35.913H34.1133V34.4839C34.1133 34.0596 34.3251 33.7946 34.6701 33.7946C34.7865 33.7993 34.902 33.8171 35.0144 33.8477L35.1738 33.3703C35.0522 33.3396 34.9278 33.3218 34.8026 33.3172H34.8032ZM32.8416 34.6426V33.3703H32.3379V33.6903C32.1523 33.4516 31.8899 33.3191 31.5162 33.3191C30.8007 33.3191 30.2701 33.8759 30.2701 34.6445C30.2701 35.4132 30.8 35.97 31.5162 35.97C31.8874 35.97 32.1523 35.8375 32.3379 35.5988V35.9188H32.8416V34.6426ZM30.8007 34.6426C30.8007 34.1652 31.0925 33.7946 31.5962 33.7946C32.0736 33.7946 32.3642 34.1658 32.3642 34.6426C32.3642 35.1463 32.0442 35.4906 31.5962 35.4906C31.0925 35.5168 30.8007 35.1194 30.8007 34.6426ZM37.9578 34.6426V32.3629H37.4541V33.6884C37.2685 33.4496 37.0061 33.3172 36.6323 33.3172C35.9168 33.3172 35.3863 33.874 35.3863 34.6426C35.3863 35.4112 35.9162 35.968 36.6323 35.968C37.0035 35.968 37.2685 35.8356 37.4541 35.5968V35.9168H37.9578V34.6426ZM35.9168 34.6426C35.9168 34.1652 36.2087 33.7946 36.7123 33.7946C37.1898 33.7946 37.4803 34.1658 37.4803 34.6426C37.4803 35.1463 37.1603 35.4906 36.7123 35.4906C36.208 35.5175 35.9162 35.12 35.9162 34.6426H35.9168Z" fill="white"/>
<path d="M28.6278 14.073H19.4297V29.0759H28.6278V14.073Z" fill="#FF5F00"/>
<path d="M20.3559 21.5744C20.3565 18.6504 21.6941 15.8872 23.9872 14.073C20.075 10.997 14.4558 11.4442 11.0793 15.1C7.70274 18.7559 7.70274 24.3929 11.0793 28.0488C14.4558 31.7047 20.075 32.1518 23.9872 29.0759C21.6941 27.2616 20.3565 24.4984 20.3559 21.5744Z" fill="#EB001B"/>
<path d="M39.4396 21.5744C39.4423 25.2254 37.3594 28.5572 34.0761 30.154C30.7929 31.7508 26.886 31.3321 24.0156 29.0758C26.3093 27.262 27.6471 24.4986 27.6471 21.5744C27.6471 18.6502 26.3093 15.8868 24.0156 14.073C26.886 11.8167 30.7929 11.398 34.0761 12.9948C37.3594 14.5916 39.4423 17.9234 39.4396 21.5744Z" fill="#FCC42C"/>
</g>
<defs>
<clipPath id="clip0_441_11026">
<rect width="48" height="48" fill="white"/>
</clipPath>
</defs>
</svg>
