<svg width="40" height="40" viewBox="0 0 40 40" fill="none" xmlns="http://www.w3.org/2000/svg">
<rect width="40" height="40" rx="20" fill="#DFF3FB"/>
<rect x="0.5" y="0.5" width="39" height="39" rx="19.5" stroke="black" stroke-opacity="0.05"/>
<g clip-path="url(#clip0_1210_12330)">
<g clip-path="url(#clip1_1210_12330)">
<path d="M20.0025 25.94C16.7274 25.94 14.0625 23.276 14.0625 20C14.0625 16.7241 16.7266 14.06 20.0025 14.06C23.2784 14.06 25.9425 16.7241 25.9425 20C25.9425 23.276 23.2776 25.94 20.0025 25.94ZM20.0025 14.7548C18.9651 14.7548 17.951 15.0624 17.0884 15.6388C16.2259 16.2151 15.5536 17.0343 15.1566 17.9928C14.7596 18.9512 14.6557 20.0058 14.8581 21.0233C15.0605 22.0408 15.56 22.9754 16.2936 23.7089C17.0271 24.4425 17.9617 24.942 18.9792 25.1444C19.9967 25.3468 21.0513 25.2429 22.0097 24.8459C22.9682 24.449 23.7874 23.7767 24.3637 22.9141C24.9401 22.0515 25.2477 21.0374 25.2477 20C25.2461 18.6094 24.693 17.2762 23.7097 16.2929C22.7263 15.3095 21.3931 14.7564 20.0025 14.7548ZM20.0025 13.6806C19.9104 13.6806 19.8221 13.644 19.757 13.5789C19.6919 13.5138 19.6553 13.4255 19.6553 13.3334V11.4922C19.6553 11.4001 19.6919 11.3118 19.757 11.2467C19.8221 11.1816 19.9104 11.145 20.0025 11.145C20.0946 11.145 20.1829 11.1816 20.248 11.2467C20.3131 11.3118 20.3497 11.4001 20.3497 11.4922V13.3321C20.3499 13.3778 20.341 13.4231 20.3236 13.4654C20.3063 13.5077 20.2807 13.5461 20.2485 13.5785C20.2162 13.6108 20.1779 13.6365 20.1357 13.6541C20.0935 13.6716 20.0482 13.6806 20.0025 13.6806Z" fill="#030712"/>
<path d="M20.0015 11.8407C19.768 11.8408 19.5396 11.7716 19.3454 11.6419C19.1512 11.5122 18.9998 11.3278 18.9103 11.1121C18.8209 10.8963 18.7974 10.6589 18.8429 10.4298C18.8885 10.2007 19.0009 9.9903 19.166 9.82512C19.3311 9.65994 19.5415 9.54744 19.7706 9.50185C19.9996 9.45625 20.2371 9.47961 20.4529 9.56897C20.6686 9.65832 20.8531 9.80967 20.9828 10.0039C21.1126 10.198 21.1819 10.4264 21.1819 10.6599C21.1815 10.9729 21.0571 11.273 20.8358 11.4943C20.6145 11.7157 20.3145 11.8402 20.0015 11.8407ZM20.0015 10.1739C19.9053 10.1738 19.8112 10.2023 19.7311 10.2557C19.6511 10.3091 19.5887 10.3851 19.5518 10.474C19.5149 10.5629 19.5053 10.6607 19.524 10.7551C19.5428 10.8495 19.5891 10.9362 19.6572 11.0043C19.7252 11.0723 19.8119 11.1187 19.9063 11.1374C20.0007 11.1562 20.0985 11.1465 20.1874 11.1096C20.2763 11.0728 20.3523 11.0104 20.4057 10.9303C20.4591 10.8502 20.4876 10.7561 20.4875 10.6599C20.4874 10.5311 20.4361 10.4075 20.345 10.3164C20.2539 10.2253 20.1304 10.174 20.0015 10.1739ZM22.9182 14.3531C22.8262 14.3531 22.7379 14.3165 22.6727 14.2514C22.6076 14.1863 22.5711 14.098 22.5711 14.0059V12.7628C22.5713 12.5553 22.6537 12.3564 22.8003 12.2096C22.9469 12.0628 23.1456 11.98 23.3531 11.9795H24.5833C24.6754 11.9795 24.7637 12.0161 24.8288 12.0812C24.8939 12.1463 24.9305 12.2346 24.9305 12.3267C24.9305 12.4187 24.8939 12.5071 24.8288 12.5722C24.7637 12.6373 24.6754 12.6739 24.5833 12.6739H23.3531C23.33 12.6746 23.3082 12.6843 23.2921 12.7009C23.2761 12.7175 23.2671 12.7397 23.2671 12.7628V14.0059C23.2671 14.0516 23.2581 14.0969 23.2406 14.1391C23.223 14.1814 23.1973 14.2197 23.1649 14.252C23.1324 14.2843 23.094 14.3098 23.0516 14.3271C23.0093 14.3445 22.964 14.3533 22.9182 14.3531Z" fill="#030712"/>
<path d="M25.4172 13.5069C25.1837 13.5069 24.9555 13.4377 24.7614 13.308C24.5673 13.1783 24.416 12.994 24.3267 12.7783C24.2373 12.5626 24.214 12.3253 24.2595 12.0963C24.3051 11.8674 24.4175 11.657 24.5826 11.492C24.7476 11.3269 24.9579 11.2145 25.1869 11.1689C25.4159 11.1234 25.6532 11.1468 25.8689 11.2361C26.0846 11.3254 26.2689 11.4767 26.3986 11.6708C26.5283 11.8649 26.5975 12.0931 26.5975 12.3266C26.5971 12.6395 26.4726 12.9395 26.2513 13.1607C26.0301 13.382 25.7301 13.5065 25.4172 13.5069ZM25.4172 11.8406C25.3211 11.8406 25.2271 11.8691 25.1472 11.9225C25.0673 11.9759 25.005 12.0518 24.9682 12.1406C24.9314 12.2294 24.9218 12.3271 24.9405 12.4214C24.9593 12.5157 25.0056 12.6023 25.0736 12.6702C25.1415 12.7382 25.2281 12.7845 25.3224 12.8032C25.4166 12.822 25.5144 12.8124 25.6032 12.7756C25.692 12.7388 25.7679 12.6765 25.8213 12.5966C25.8747 12.5167 25.9032 12.4227 25.9032 12.3266C25.9029 12.1978 25.8517 12.0743 25.7606 11.9832C25.6695 11.8921 25.546 11.8408 25.4172 11.8406ZM17.0838 14.353C17.0381 14.3532 16.9928 14.3444 16.9504 14.3271C16.9081 14.3097 16.8696 14.2842 16.8372 14.2519C16.8048 14.2197 16.7791 14.1813 16.7615 14.1391C16.744 14.0968 16.7349 14.0515 16.7349 14.0058V12.7627C16.7349 12.7396 16.726 12.7175 16.7099 12.7009C16.6939 12.6843 16.672 12.6746 16.649 12.6738H15.4175C15.3254 12.6738 15.2371 12.6372 15.172 12.5721C15.1069 12.507 15.0703 12.4187 15.0703 12.3266C15.0703 12.2345 15.1069 12.1462 15.172 12.0811C15.2371 12.016 15.3254 11.9794 15.4175 11.9794H16.649C16.8564 11.98 17.0552 12.0627 17.2018 12.2095C17.3484 12.3564 17.4308 12.5553 17.431 12.7627V14.0058C17.431 14.0979 17.3944 14.1862 17.3293 14.2513C17.2642 14.3164 17.1759 14.353 17.0838 14.353Z" fill="#030712"/>
<path d="M14.5862 13.5069C14.3527 13.5069 14.1246 13.4376 13.9305 13.3078C13.7365 13.1781 13.5852 12.9937 13.496 12.778C13.4067 12.5623 13.3834 12.325 13.429 12.0961C13.4746 11.8671 13.587 11.6568 13.7521 11.4918C13.9172 11.3268 14.1275 11.2144 14.3565 11.1689C14.5854 11.1234 14.8227 11.1468 15.0384 11.2361C15.2541 11.3255 15.4384 11.4768 15.5681 11.6709C15.6977 11.865 15.767 12.0932 15.767 12.3266C15.7666 12.6396 15.6421 12.9397 15.4207 13.161C15.1993 13.3823 14.8992 13.5067 14.5862 13.5069ZM14.5862 11.8406C14.4901 11.8407 14.3962 11.8693 14.3163 11.9227C14.2364 11.9762 14.1742 12.0521 14.1375 12.1409C14.1008 12.2297 14.0912 12.3274 14.11 12.4217C14.1288 12.5159 14.1751 12.6025 14.2431 12.6704C14.3111 12.7383 14.3977 12.7845 14.492 12.8033C14.5862 12.822 14.6839 12.8123 14.7727 12.7755C14.8615 12.7387 14.9373 12.6765 14.9907 12.5965C15.0441 12.5166 15.0726 12.4227 15.0726 12.3266C15.0725 12.1977 15.0212 12.0741 14.93 11.9829C14.8388 11.8918 14.7151 11.8406 14.5862 11.8406ZM20.0028 28.8537C19.9107 28.8537 19.8224 28.8171 19.7573 28.752C19.6922 28.6869 19.6556 28.5986 19.6556 28.5065V26.6666C19.6556 26.5745 19.6922 26.4862 19.7573 26.4211C19.8224 26.3559 19.9107 26.3194 20.0028 26.3194C20.0949 26.3194 20.1832 26.3559 20.2483 26.4211C20.3134 26.4862 20.35 26.5745 20.35 26.6666V28.5078C20.3497 28.5996 20.3129 28.6876 20.2479 28.7524C20.1828 28.8173 20.0947 28.8537 20.0028 28.8537Z" fill="#030712"/>
<path d="M20.0015 30.5205C19.768 30.5206 19.5396 30.4514 19.3454 30.3217C19.1511 30.192 18.9997 30.0075 18.9103 29.7918C18.8209 29.576 18.7974 29.3385 18.843 29.1095C18.8885 28.8804 19.001 28.6699 19.1662 28.5048C19.3313 28.3396 19.5418 28.2271 19.7708 28.1816C19.9999 28.136 20.2374 28.1595 20.4532 28.2489C20.6689 28.3383 20.8533 28.4897 20.9831 28.684C21.1128 28.8782 21.182 29.1066 21.1819 29.3401C21.1815 29.6531 21.0571 29.9531 20.8358 30.1744C20.6145 30.3957 20.3145 30.5201 20.0015 30.5205ZM20.0015 28.8537C19.9053 28.8536 19.8112 28.8821 19.7312 28.9355C19.6511 28.9889 19.5887 29.0648 19.5518 29.1537C19.515 29.2426 19.5053 29.3404 19.524 29.4348C19.5427 29.5291 19.589 29.6159 19.657 29.6839C19.725 29.752 19.8117 29.7984 19.906 29.8172C20.0004 29.836 20.0982 29.8264 20.1871 29.7896C20.276 29.7528 20.352 29.6904 20.4055 29.6104C20.459 29.5304 20.4875 29.4364 20.4875 29.3401C20.4874 29.2112 20.4362 29.0877 20.3451 28.9965C20.254 28.9053 20.1304 28.854 20.0015 28.8537ZM24.5846 28.0206H23.3531C23.1454 28.0203 22.9463 27.9377 22.7994 27.7909C22.6526 27.644 22.57 27.4449 22.5698 27.2372V25.9942C22.5698 25.9021 22.6063 25.8138 22.6715 25.7487C22.7366 25.6836 22.8249 25.647 22.917 25.647C23.009 25.647 23.0973 25.6836 23.1625 25.7487C23.2276 25.8138 23.2641 25.9021 23.2641 25.9942V27.2372C23.2641 27.2608 23.2735 27.2835 23.2902 27.3001C23.3069 27.3168 23.3295 27.3262 23.3531 27.3262H24.5833C24.6754 27.3262 24.7637 27.3628 24.8288 27.4279C24.8939 27.493 24.9305 27.5813 24.9305 27.6734C24.9305 27.7655 24.8939 27.8538 24.8288 27.9189C24.7637 27.984 24.6754 28.0206 24.5833 28.0206H24.5846Z" fill="#030712"/>
<path d="M25.4172 28.8537C25.1837 28.8537 24.9555 28.7845 24.7614 28.6548C24.5673 28.5251 24.416 28.3408 24.3267 28.1251C24.2373 27.9094 24.214 27.6721 24.2595 27.4431C24.3051 27.2141 24.4175 27.0038 24.5826 26.8387C24.7476 26.6737 24.9579 26.5613 25.1869 26.5157C25.4159 26.4702 25.6532 26.4935 25.8689 26.5829C26.0846 26.6722 26.2689 26.8235 26.3986 27.0176C26.5283 27.2117 26.5975 27.4399 26.5975 27.6734C26.5971 27.9863 26.4726 28.2862 26.2513 28.5075C26.0301 28.7288 25.7301 28.8533 25.4172 28.8537ZM25.4172 27.1874C25.3211 27.1874 25.2271 27.2159 25.1472 27.2693C25.0673 27.3227 25.005 27.3986 24.9682 27.4874C24.9314 27.5762 24.9218 27.6739 24.9405 27.7682C24.9593 27.8625 25.0056 27.9491 25.0736 28.017C25.1415 28.085 25.2281 28.1313 25.3224 28.15C25.4166 28.1688 25.5144 28.1591 25.6032 28.1224C25.692 28.0856 25.7679 28.0233 25.8213 27.9434C25.8747 27.8635 25.9032 27.7695 25.9032 27.6734C25.9029 27.5446 25.8517 27.4211 25.7606 27.33C25.6695 27.2389 25.546 27.1876 25.4172 27.1874ZM16.649 28.0206H15.4175C15.3254 28.0206 15.2371 27.984 15.172 27.9189C15.1069 27.8538 15.0703 27.7655 15.0703 27.6734C15.0703 27.5813 15.1069 27.493 15.172 27.4279C15.2371 27.3628 15.3254 27.3262 15.4175 27.3262H16.649C16.6726 27.3262 16.6952 27.3168 16.7119 27.3001C16.7286 27.2835 16.7379 27.2608 16.7379 27.2372V25.9942C16.7379 25.9021 16.7745 25.8138 16.8396 25.7487C16.9047 25.6836 16.993 25.647 17.0851 25.647C17.1772 25.647 17.2655 25.6836 17.3306 25.7487C17.3957 25.8138 17.4323 25.9021 17.4323 25.9942V27.2372C17.4321 27.4449 17.3495 27.644 17.2026 27.7909C17.0558 27.9377 16.8567 28.0203 16.649 28.0206Z" fill="#030712"/>
<path d="M14.5862 28.8538C14.3527 28.8537 14.1246 28.7844 13.9305 28.6546C13.7365 28.5249 13.5852 28.3405 13.496 28.1248C13.4067 27.9091 13.3834 27.6718 13.429 27.4429C13.4746 27.2139 13.587 27.0037 13.7521 26.8386C13.9172 26.6736 14.1275 26.5612 14.3565 26.5157C14.5854 26.4702 14.8227 26.4936 15.0384 26.5829C15.2541 26.6723 15.4384 26.8236 15.5681 27.0177C15.6977 27.2118 15.767 27.44 15.767 27.6734C15.7666 27.9864 15.6421 28.2865 15.4207 28.5078C15.1993 28.7291 14.8992 28.8535 14.5862 28.8538ZM14.5862 27.1874C14.4901 27.1875 14.3962 27.2161 14.3163 27.2695C14.2364 27.323 14.1742 27.3989 14.1375 27.4877C14.1008 27.5765 14.0912 27.6742 14.11 27.7685C14.1288 27.8627 14.1751 27.9493 14.2431 28.0172C14.3111 28.0851 14.3977 28.1314 14.492 28.1501C14.5862 28.1688 14.6839 28.1591 14.7727 28.1224C14.8615 28.0856 14.9373 28.0233 14.9907 27.9434C15.0441 27.8634 15.0726 27.7695 15.0726 27.6734C15.0725 27.5445 15.0212 27.4209 14.93 27.3297C14.8388 27.2386 14.7151 27.1874 14.5862 27.1874ZM29.5848 17.7446C29.3514 17.7444 29.1232 17.6751 28.9292 17.5453C28.7352 17.4155 28.584 17.2311 28.4947 17.0154C28.4054 16.7997 28.3821 16.5624 28.4276 16.3334C28.4732 16.1045 28.5856 15.8942 28.7506 15.7291C28.9157 15.564 29.1259 15.4515 29.3549 15.4058C29.5838 15.3602 29.8211 15.3835 30.0369 15.4727C30.2526 15.5618 30.4371 15.713 30.5669 15.907C30.6968 16.101 30.7662 16.3291 30.7665 16.5625C30.7665 16.876 30.642 17.1766 30.4204 17.3982C30.1988 17.6199 29.8983 17.7445 29.5848 17.7446ZM29.5848 16.0779C29.4886 16.078 29.3946 16.1067 29.3147 16.1604C29.2348 16.214 29.1725 16.2901 29.1359 16.3791C29.0993 16.4681 29.0899 16.566 29.1089 16.6603C29.1279 16.7547 29.1744 16.8412 29.2427 16.9091C29.3109 16.977 29.3977 17.0231 29.4922 17.0416C29.5866 17.0601 29.6844 17.0502 29.7732 17.0131C29.862 16.976 29.9378 16.9134 29.991 16.8332C30.0442 16.753 30.0725 16.6588 30.0721 16.5625C30.0715 16.4337 30.0199 16.3104 29.9286 16.2195C29.8373 16.1287 29.7137 16.0777 29.5848 16.0779Z" fill="#030712"/>
<path d="M26.3632 18.3633C26.3178 18.3638 26.2727 18.3553 26.2305 18.3383C26.1884 18.3212 26.15 18.296 26.1177 18.264C26.0853 18.232 26.0597 18.194 26.0422 18.152C26.0246 18.1101 26.0156 18.065 26.0156 18.0196V18.0153C26.0158 17.9431 26.0383 17.8727 26.0801 17.8138L27.1135 16.364C27.1456 16.3189 27.188 16.2821 27.2371 16.2567C27.2863 16.2313 27.3409 16.218 27.3962 16.2179H28.7463C28.8363 16.2211 28.9216 16.2591 28.9842 16.3239C29.0467 16.3887 29.0817 16.4752 29.0817 16.5653C29.0817 16.6554 29.0467 16.7419 28.9842 16.8067C28.9216 16.8715 28.8363 16.9095 28.7463 16.9127H27.5754L26.655 18.2018C26.6241 18.2512 26.5811 18.292 26.53 18.3203C26.479 18.3486 26.4216 18.3634 26.3632 18.3633ZM29.5786 24.6166C29.345 24.6164 29.1167 24.547 28.9226 24.417C28.7285 24.2871 28.5773 24.1025 28.4881 23.8867C28.399 23.6708 28.3758 23.4333 28.4216 23.2043C28.4674 22.9752 28.5801 22.7649 28.7454 22.5999C28.9108 22.435 29.1213 22.3227 29.3505 22.2774C29.5796 22.2321 29.817 22.2558 30.0327 22.3455C30.2484 22.4351 30.4326 22.5867 30.5621 22.7811C30.6916 22.9755 30.7606 23.2039 30.7602 23.4375C30.7594 23.7504 30.6346 24.0502 30.4131 24.2713C30.1916 24.4923 29.8915 24.6165 29.5786 24.6166ZM29.5786 22.9498C29.4825 22.95 29.3886 22.9786 29.3087 23.0321C29.2289 23.0856 29.1667 23.1616 29.13 23.2504C29.0932 23.3392 29.0836 23.4369 29.1024 23.5312C29.1212 23.6254 29.1674 23.712 29.2354 23.78C29.3033 23.848 29.3898 23.8943 29.4841 23.9132C29.5783 23.932 29.676 23.9225 29.7649 23.8859C29.8538 23.8492 29.9298 23.7871 29.9833 23.7073C30.0369 23.6275 30.0656 23.5336 30.0659 23.4375C30.066 23.3735 30.0535 23.31 30.029 23.2508C30.0046 23.1916 29.9687 23.1379 29.9234 23.0926C29.8782 23.0472 29.8244 23.0113 29.7652 22.9868C29.7061 22.9623 29.6426 22.9498 29.5786 22.9498Z" fill="#030712"/>
<path d="M28.7482 23.7834H27.3981C27.3428 23.7834 27.2882 23.7701 27.2391 23.7447C27.1899 23.7192 27.1475 23.6825 27.1154 23.6374L26.082 22.1876C26.0552 22.1491 26.0365 22.1056 26.0269 22.0597C26.0174 22.0138 26.0172 21.9664 26.0264 21.9204C26.0357 21.8745 26.0541 21.8308 26.0806 21.7921C26.1071 21.7535 26.1411 21.7205 26.1806 21.6953C26.2202 21.6701 26.2644 21.6532 26.3107 21.6455C26.3569 21.6378 26.4042 21.6395 26.4498 21.6506C26.4954 21.6617 26.5382 21.6818 26.5758 21.7099C26.6134 21.7379 26.6449 21.7732 26.6685 21.8138L27.5773 23.0886H28.7482C28.8382 23.0918 28.9235 23.1298 28.9861 23.1946C29.0486 23.2594 29.0836 23.346 29.0836 23.436C29.0836 23.5261 29.0486 23.6127 28.9861 23.6775C28.9235 23.7423 28.8382 23.7803 28.7482 23.7834ZM10.4164 17.7446C10.1829 17.7449 9.95454 17.6759 9.76022 17.5463C9.5659 17.4168 9.41436 17.2326 9.32475 17.0169C9.23515 16.8012 9.2115 16.5638 9.25681 16.3347C9.30212 16.1056 9.41435 15.8951 9.57931 15.7298C9.74426 15.5645 9.95453 15.4518 10.1835 15.406C10.4125 15.3602 10.65 15.3833 10.8658 15.4724C11.0817 15.5616 11.2663 15.7127 11.3962 15.9068C11.5262 16.1008 11.5957 16.329 11.5959 16.5625C11.5959 16.8756 11.4718 17.1759 11.2506 17.3975C11.0295 17.6191 10.7295 17.7439 10.4164 17.7446ZM10.4164 16.0779C10.3201 16.0776 10.2259 16.106 10.1457 16.1593C10.0655 16.2127 10.0029 16.2887 9.96598 16.3776C9.92902 16.4666 9.91931 16.5645 9.93807 16.659C9.95683 16.7535 10.0032 16.8403 10.0714 16.9084C10.1395 16.9764 10.2263 17.0228 10.3208 17.0414C10.4153 17.0601 10.5133 17.0503 10.6022 17.0133C10.6911 16.9762 10.767 16.9136 10.8203 16.8334C10.8736 16.7531 10.9019 16.6589 10.9016 16.5625C10.901 16.4341 10.8497 16.3111 10.7588 16.2203C10.668 16.1295 10.5449 16.0783 10.4164 16.0779Z" fill="#030712"/>
<path d="M13.6318 18.3633C13.5701 18.3634 13.5094 18.347 13.4561 18.3159C13.4028 18.2848 13.3587 18.24 13.3284 18.1862L12.4196 16.9114H11.2487C11.1587 16.9082 11.0734 16.8702 11.0109 16.8054C10.9483 16.7406 10.9134 16.654 10.9134 16.564C10.9134 16.4739 10.9483 16.3873 11.0109 16.3225C11.0734 16.2577 11.1587 16.2197 11.2487 16.2166H12.5988C12.6542 16.2166 12.7087 16.2299 12.7579 16.2553C12.8071 16.2808 12.8495 16.3175 12.8816 16.3626L13.9128 17.8124C13.9498 17.8645 13.9718 17.9258 13.9763 17.9895C13.9809 18.0533 13.9678 18.117 13.9386 18.1739C13.9094 18.2307 13.8651 18.2784 13.8106 18.3118C13.7562 18.3452 13.6936 18.363 13.6296 18.3633H13.6318ZM10.4164 24.6165C10.1828 24.6168 9.95429 24.5477 9.75991 24.418C9.56552 24.2884 9.41398 24.1039 9.32446 23.8881C9.23494 23.6723 9.21148 23.4347 9.25703 23.2055C9.30259 22.9764 9.41511 22.7658 9.58037 22.6006C9.74563 22.4354 9.95618 22.323 10.1854 22.2775C10.4146 22.2321 10.6521 22.2556 10.8679 22.3452C11.0837 22.4348 11.2681 22.5864 11.3977 22.7808C11.5273 22.9753 11.5963 23.2038 11.5959 23.4375C11.5951 23.75 11.4706 24.0495 11.2496 24.2704C11.0285 24.4914 10.729 24.6158 10.4164 24.6165ZM10.4164 22.9498C10.3202 22.9495 10.2261 22.9778 10.146 23.031C10.0659 23.0842 10.0033 23.1601 9.96627 23.2488C9.92922 23.3376 9.91933 23.4354 9.93785 23.5298C9.95637 23.6242 10.0025 23.711 10.0703 23.7792C10.1382 23.8474 10.2247 23.8939 10.319 23.913C10.4133 23.932 10.5111 23.9226 10.6001 23.886C10.6891 23.8495 10.7652 23.7873 10.8189 23.7075C10.8725 23.6276 10.9013 23.5337 10.9016 23.4375C10.9017 23.3085 10.8507 23.1848 10.7598 23.0934C10.6688 23.002 10.5454 22.9503 10.4164 22.9498Z" fill="#030712"/>
<path d="M12.5995 23.7834H11.2495C11.1594 23.7803 11.0742 23.7423 11.0116 23.6775C10.949 23.6127 10.9141 23.5261 10.9141 23.436C10.9141 23.3459 10.949 23.2594 11.0116 23.1946C11.0742 23.1298 11.1594 23.0918 11.2495 23.0886H12.4204L13.3407 21.7996C13.3809 21.7364 13.4405 21.6879 13.5105 21.6613C13.5805 21.6348 13.6573 21.6316 13.7292 21.6523C13.8012 21.673 13.8645 21.7165 13.9097 21.7762C13.955 21.8359 13.9797 21.9086 13.9801 21.9835V21.9878C13.98 22.06 13.9575 22.1304 13.9157 22.1893L12.8844 23.639C12.8519 23.6841 12.8091 23.7208 12.7595 23.7459C12.71 23.771 12.6551 23.7839 12.5995 23.7834ZM21.2721 20.9378C20.9468 20.9374 20.635 20.8079 20.405 20.5779C20.175 20.3478 20.0457 20.0359 20.0453 19.7107V18.3541C20.0513 18.0327 20.1833 17.7265 20.4127 17.5013C20.6421 17.2761 20.9508 17.1499 21.2723 17.1499C21.5938 17.1499 21.9024 17.2761 22.1319 17.5013C22.3613 17.7265 22.4933 18.0327 22.4993 18.3541V19.7107C22.4989 20.036 22.3695 20.348 22.1395 20.578C21.9094 20.8081 21.5974 20.9375 21.2721 20.9378ZM21.2721 17.8217C21.131 17.822 20.9957 17.8781 20.8959 17.9779C20.7961 18.0777 20.7399 18.213 20.7397 18.3541V19.7107C20.7377 19.7819 20.75 19.8528 20.7758 19.9191C20.8017 19.9855 20.8406 20.0461 20.8902 20.0971C20.9399 20.1482 20.9993 20.1888 21.0649 20.2166C21.1305 20.2443 21.2011 20.2586 21.2723 20.2586C21.3435 20.2586 21.4141 20.2443 21.4797 20.2166C21.5453 20.1888 21.6047 20.1482 21.6544 20.0971C21.704 20.0461 21.7429 19.9855 21.7688 19.9191C21.7946 19.8528 21.8069 19.7819 21.8049 19.7107V18.3541C21.8047 18.2129 21.7484 18.0776 21.6486 17.9778C21.5487 17.878 21.4133 17.8219 21.2721 17.8217Z" fill="#030712"/>
<path d="M18.1316 18.9165C18.064 18.9165 17.9979 18.8968 17.9413 18.8598C17.8848 18.8228 17.8402 18.77 17.8132 18.7081C17.6336 18.2977 17.7883 17.6768 18.297 17.4439C18.3348 17.4113 18.3516 17.2227 18.3185 17.0667C18.3087 17.0221 18.3078 16.9761 18.3157 16.9312C18.3237 16.8862 18.3405 16.8433 18.365 16.8049C18.3896 16.7665 18.4215 16.7332 18.4589 16.7071C18.4963 16.681 18.5384 16.6625 18.583 16.6527C18.6275 16.6429 18.6736 16.6419 18.7185 16.6499C18.7634 16.6579 18.8063 16.6746 18.8448 16.6992C18.8832 16.7237 18.9164 16.7556 18.9426 16.793C18.9687 16.8304 18.9872 16.8726 18.997 16.9171C19.0696 17.2437 19.0653 17.8556 18.5866 18.0773C18.4186 18.1546 18.4277 18.3824 18.4491 18.4322C18.4723 18.485 18.4819 18.5427 18.4771 18.6002C18.4723 18.6576 18.4533 18.713 18.4218 18.7612C18.3903 18.8095 18.3473 18.8492 18.2966 18.8766C18.2459 18.9041 18.1892 18.9185 18.1316 18.9186V18.9165ZM22.2433 23.6263C22.1758 23.6262 22.1097 23.6066 22.0532 23.5696C21.9967 23.5327 21.9521 23.4801 21.9249 23.4183C21.7374 23.4689 21.9 22.3871 22.4088 22.1542C22.447 22.1211 22.4638 21.9325 22.4307 21.7765C22.4119 21.687 22.4292 21.5936 22.4788 21.5168C22.5284 21.44 22.6064 21.3858 22.6957 21.3661C22.785 21.3464 22.8785 21.3628 22.9558 21.4116C23.0332 21.4604 23.0881 21.5378 23.1087 21.627C23.1813 21.9539 23.177 22.5654 22.6988 22.785C22.5304 22.8623 22.5394 23.09 22.5613 23.1399C22.5843 23.1927 22.5938 23.2505 22.589 23.3079C22.5841 23.3653 22.5651 23.4206 22.5335 23.4689C22.502 23.5171 22.459 23.5568 22.4083 23.5842C22.3577 23.6117 22.301 23.6262 22.2433 23.6263ZM19.8093 23.4464C19.4965 23.4464 19.1317 23.3485 18.9727 23.0021C18.8953 22.8341 18.6676 22.8427 18.6178 22.8646C18.576 22.8829 18.531 22.8927 18.4854 22.8936C18.4398 22.8945 18.3945 22.8864 18.3521 22.8697C18.3096 22.8531 18.2708 22.8283 18.238 22.7966C18.2051 22.765 18.1788 22.7272 18.1606 22.6855C18.1423 22.6437 18.1325 22.5987 18.1316 22.5531C18.1307 22.5075 18.1388 22.4622 18.1555 22.4198C18.1721 22.3773 18.197 22.3385 18.2286 22.3057C18.2602 22.2728 18.298 22.2465 18.3398 22.2283C18.7501 22.0491 19.371 22.2033 19.6039 22.7121C19.6366 22.7503 19.8252 22.7671 19.9812 22.734C20.0707 22.7152 20.164 22.7325 20.2408 22.7821C20.3177 22.8318 20.3718 22.9097 20.3915 22.999C20.4112 23.0883 20.3949 23.1818 20.346 23.2592C20.2972 23.3365 20.2198 23.3915 20.1307 23.4121C20.0251 23.4351 19.9174 23.4466 19.8093 23.4464ZM16.6556 21.6499C16.6122 21.6499 16.5692 21.6417 16.5289 21.6258C16.1254 21.4681 15.807 20.9383 15.9935 20.4309C15.987 20.3819 15.8787 20.256 15.7619 20.1799C15.6843 20.1304 15.6295 20.052 15.6097 19.9621C15.5999 19.9175 15.5989 19.8715 15.6069 19.8266C15.6149 19.7817 15.6316 19.7388 15.6562 19.7004C15.6807 19.662 15.7126 19.6288 15.75 19.6027C15.7874 19.5766 15.8295 19.5581 15.874 19.5482C15.964 19.5284 16.0581 19.5451 16.1357 19.5947C16.4085 19.7666 16.8232 20.1898 16.6457 20.6689C16.5894 20.8206 16.7385 20.9611 16.7819 20.9783C16.8574 21.0077 16.9203 21.0625 16.9596 21.1333C16.9989 21.2042 17.0122 21.2865 16.9972 21.3661C16.9822 21.4457 16.9399 21.5176 16.8775 21.5692C16.8151 21.6209 16.7366 21.65 16.6556 21.6499Z" fill="#030712"/>
</g>
</g>
<defs>
<clipPath id="clip0_1210_12330">
<rect width="22" height="22" fill="white" transform="translate(9 9)"/>
</clipPath>
<clipPath id="clip1_1210_12330">
<rect width="22" height="22" fill="white" transform="translate(9 9)"/>
</clipPath>
</defs>
</svg>
