<svg width="21" height="21" viewBox="0 0 21 21" fill="none" xmlns="http://www.w3.org/2000/svg">
<path fill-rule="evenodd" clip-rule="evenodd" d="M14.577 20.3687H5.753C2.312 20.3687 0 17.9537 0 14.3597V6.0457C0 2.4517 2.312 0.0366974 5.753 0.0366974H9.492C9.906 0.0366974 10.242 0.372697 10.242 0.786697C10.242 1.2007 9.906 1.5367 9.492 1.5367H5.753C3.169 1.5367 1.5 3.3067 1.5 6.0457V14.3597C1.5 17.0987 3.169 18.8687 5.753 18.8687H14.577C17.161 18.8687 18.831 17.0987 18.831 14.3597V10.3317C18.831 9.9177 19.167 9.5817 19.581 9.5817C19.995 9.5817 20.331 9.9177 20.331 10.3317V14.3597C20.331 17.9537 18.018 20.3687 14.577 20.3687Z" fill="#89225A"/>
<path fill-rule="evenodd" clip-rule="evenodd" d="M6.86689 13.4283H9.84389C10.2239 13.4283 10.5799 13.2813 10.8489 13.0123L18.3579 5.5033C18.6659 5.1953 18.8359 4.7853 18.8359 4.3493C18.8359 3.9123 18.6659 3.5013 18.3579 3.1933L17.1409 1.9763C16.5039 1.3413 15.4679 1.3413 14.8299 1.9763L7.35689 9.4493C7.09789 9.7083 6.95089 10.0523 6.94189 10.4173L6.86689 13.4283ZM9.84389 14.9283H6.09789C5.89589 14.9283 5.70189 14.8463 5.56089 14.7013C5.41989 14.5573 5.34289 14.3623 5.34789 14.1593L5.44189 10.3803C5.46089 9.6283 5.76389 8.9213 6.29589 8.3883H6.29689L13.7699 0.915298C14.9919 -0.304702 16.9789 -0.304702 18.2009 0.915298L19.4179 2.1323C20.0109 2.7243 20.3369 3.5113 20.3359 4.3493C20.3359 5.1873 20.0099 5.9733 19.4179 6.5643L11.9089 14.0733C11.3579 14.6243 10.6239 14.9283 9.84389 14.9283Z" fill="#89225A"/>
<path fill-rule="evenodd" clip-rule="evenodd" d="M17.7298 7.9166C17.5378 7.9166 17.3458 7.8436 17.1998 7.6966L12.6338 3.1306C12.3408 2.8376 12.3408 2.3626 12.6338 2.0696C12.9268 1.7766 13.4008 1.7766 13.6938 2.0696L18.2598 6.6366C18.5528 6.9296 18.5528 7.4036 18.2598 7.6966C18.1138 7.8436 17.9218 7.9166 17.7298 7.9166Z" fill="#89225A"/>
</svg>
