<svg width="40" height="40" viewBox="0 0 40 40" fill="none" xmlns="http://www.w3.org/2000/svg">
<rect width="40" height="40" rx="20" fill="#DFF3FB"/>
<rect x="0.5" y="0.5" width="39" height="39" rx="19.5" stroke="black" stroke-opacity="0.05"/>
<g clip-path="url(#clip0_1210_13880)">
<path d="M21.8648 18.9555C21.7188 18.9559 21.5778 18.9021 21.469 18.8046L19.581 17.116C19.5228 17.0639 19.4754 17.0008 19.4415 16.9304C19.4077 16.86 19.388 16.7836 19.3837 16.7056C19.3794 16.6276 19.3905 16.5495 19.4164 16.4757C19.4423 16.402 19.4824 16.3341 19.5346 16.2759L23.8022 11.5098C23.9075 11.393 24.0548 11.3225 24.2118 11.3138C24.3689 11.3051 24.523 11.3589 24.6406 11.4634L26.5312 13.1521C26.5892 13.2044 26.6363 13.2676 26.6698 13.3381C26.7033 13.4086 26.7227 13.485 26.7266 13.563C26.7306 13.641 26.7192 13.719 26.6931 13.7925C26.6669 13.8661 26.6265 13.9338 26.5742 13.9917L25.1914 15.536C25.1286 15.5989 25.044 15.6353 24.9551 15.6377C24.8662 15.6401 24.7798 15.6082 24.7137 15.5488C24.6475 15.4893 24.6068 15.4068 24.5997 15.3181C24.5927 15.2295 24.6199 15.1415 24.6758 15.0724L25.9919 13.6028L24.2538 12.0474L20.1185 16.6648L21.8575 18.2207L23.3274 16.5802C23.3569 16.5431 23.3936 16.5125 23.4354 16.4901C23.4771 16.4678 23.523 16.4542 23.5702 16.4503C23.6174 16.4464 23.6649 16.4521 23.7097 16.4672C23.7546 16.4823 23.7959 16.5064 23.8312 16.538C23.8664 16.5696 23.8948 16.6082 23.9146 16.6512C23.9343 16.6942 23.9451 16.7408 23.9462 16.7881C23.9474 16.8354 23.9388 16.8825 23.921 16.9264C23.9033 16.9703 23.8768 17.0101 23.8431 17.0434L22.3082 18.7582C22.2524 18.8205 22.184 18.8702 22.1076 18.9042C22.0311 18.9382 21.9484 18.9557 21.8648 18.9555Z" fill="#030712"/>
<path d="M25.9302 13.419C25.8638 13.4189 25.7988 13.3999 25.7429 13.364C25.687 13.3282 25.6426 13.2771 25.6149 13.2167C25.5872 13.1564 25.5773 13.0894 25.5865 13.0236C25.5957 12.9579 25.6236 12.8961 25.6668 12.8457L26.4424 11.9434L25.8129 11.3805L25.0468 12.2717C24.9868 12.3415 24.9015 12.3847 24.8097 12.3917C24.7178 12.3986 24.627 12.3689 24.5571 12.3089C24.4873 12.2489 24.4441 12.1636 24.4372 12.0717C24.4302 11.9799 24.46 11.8891 24.52 11.8192L25.3175 10.8907C25.3736 10.8253 25.4422 10.7718 25.5192 10.7332C25.5963 10.6947 25.6803 10.6719 25.7662 10.6663C25.8522 10.6607 25.9384 10.6722 26.0199 10.7004C26.1013 10.7285 26.1763 10.7726 26.2404 10.8301L26.94 11.4557C27.0648 11.5691 27.1408 11.7266 27.1519 11.8949C27.1629 12.0632 27.1082 12.2293 26.9993 12.3581L26.194 13.2969C26.1615 13.3351 26.1211 13.3658 26.0755 13.3869C26.03 13.4079 25.9804 13.4189 25.9302 13.419ZM20.2957 19.6039C20.137 19.604 19.9839 19.5452 19.866 19.4389L19.1665 18.8132C19.0417 18.6998 18.9657 18.5424 18.9545 18.3741C18.9434 18.2058 18.998 18.0398 19.1068 17.9109L19.9185 16.9656C19.9784 16.8957 20.0637 16.8524 20.1555 16.8454C20.2473 16.8383 20.3382 16.8681 20.4081 16.928C20.478 16.9879 20.5212 17.0732 20.5283 17.165C20.5353 17.2568 20.5056 17.3477 20.4457 17.4176L19.6637 18.3286L20.2931 18.8915L21.0666 17.9917C21.0963 17.9571 21.1325 17.9287 21.1732 17.9081C21.2139 17.8875 21.2582 17.8751 21.3037 17.8717C21.3492 17.8682 21.3949 17.8738 21.4382 17.888C21.4815 17.9022 21.5216 17.9248 21.5562 17.9545C21.5908 17.9842 21.6192 18.0205 21.6398 18.0611C21.6604 18.1018 21.6727 18.1462 21.6762 18.1916C21.6797 18.2371 21.6741 18.2828 21.6599 18.3261C21.6457 18.3695 21.6231 18.4096 21.5934 18.4441L20.7899 19.3804C20.7337 19.4455 20.6652 19.4986 20.5882 19.5368C20.5112 19.5749 20.4274 19.5973 20.3417 19.6026C20.3257 19.6034 20.3103 19.6039 20.2957 19.6039ZM24.7194 17.9638C24.4262 17.9637 24.1396 17.8767 23.8959 17.7137C23.6522 17.5508 23.4622 17.3192 23.3501 17.0483C23.2379 16.7775 23.2087 16.4794 23.2659 16.1919C23.3231 15.9043 23.4644 15.6402 23.6717 15.433C23.879 15.2257 24.1432 15.0845 24.4307 15.0274C24.7183 14.9702 25.0163 14.9996 25.2872 15.1118C25.558 15.224 25.7895 15.414 25.9524 15.6578C26.1153 15.9016 26.2022 16.1882 26.2022 16.4813C26.2018 16.8744 26.0454 17.2513 25.7674 17.5292C25.4894 17.8071 25.1125 17.9634 24.7194 17.9638ZM24.7194 15.6933C24.5635 15.6934 24.4112 15.7397 24.2817 15.8263C24.1521 15.913 24.0512 16.0361 23.9916 16.1801C23.932 16.3241 23.9165 16.4825 23.9469 16.6353C23.9774 16.7882 24.0525 16.9286 24.1627 17.0387C24.2729 17.1489 24.4133 17.2239 24.5662 17.2543C24.7191 17.2846 24.8775 17.269 25.0215 17.2094C25.1654 17.1497 25.2885 17.0487 25.3751 16.9191C25.4616 16.7895 25.5078 16.6372 25.5078 16.4813C25.5076 16.2723 25.4244 16.072 25.2766 15.9242C25.1288 15.7765 24.9284 15.6934 24.7194 15.6933ZM26.7307 23.1673C26.3993 23.1673 26.0753 23.069 25.7997 22.8849C25.5241 22.7007 25.3093 22.439 25.1825 22.1328C25.0557 21.8266 25.0225 21.4896 25.0871 21.1646C25.1518 20.8395 25.3114 20.5409 25.5458 20.3065C25.7801 20.0722 26.0787 19.9126 26.4038 19.8479C26.7289 19.7832 27.0658 19.8164 27.372 19.9433C27.6782 20.0701 27.9399 20.2849 28.1241 20.5605C28.3082 20.8361 28.4065 21.1601 28.4065 21.4915C28.4065 21.9359 28.2299 22.3622 27.9157 22.6764C27.6014 22.9907 27.1752 23.1673 26.7307 23.1673ZM26.7307 20.5122C26.5368 20.5121 26.3471 20.5696 26.1858 20.6773C26.0245 20.785 25.8987 20.9382 25.8245 21.1173C25.7502 21.2965 25.7307 21.4937 25.7686 21.684C25.8064 21.8742 25.8998 22.049 26.0369 22.1861C26.1741 22.3233 26.3489 22.4167 26.5391 22.4545C26.7294 22.4923 26.9265 22.4729 27.1057 22.3986C27.2849 22.3243 27.4381 22.1986 27.5458 22.0373C27.6535 21.876 27.7109 21.6863 27.7108 21.4924C27.7106 21.2325 27.6073 20.9833 27.4235 20.7996C27.2398 20.6158 26.9906 20.5125 26.7307 20.5122Z" fill="#030712"/>
<path d="M25.5915 21.1601C25.5183 21.1601 25.4469 21.137 25.3877 21.094C25.3284 21.051 25.2842 20.9904 25.2615 20.9208L24.2087 17.7071C24.1931 17.6634 24.1864 17.617 24.189 17.5706C24.1916 17.5243 24.2035 17.4789 24.224 17.4372C24.2445 17.3956 24.2731 17.3584 24.3081 17.328C24.3432 17.2975 24.384 17.2745 24.4282 17.2601C24.4723 17.2457 24.5189 17.2403 24.5652 17.2443C24.6115 17.2482 24.6565 17.2614 24.6975 17.2831C24.7386 17.3047 24.7749 17.3344 24.8043 17.3703C24.8337 17.4063 24.8556 17.4477 24.8687 17.4923L25.921 20.7072C25.9382 20.7594 25.9427 20.8148 25.9342 20.8691C25.9257 20.9233 25.9045 20.9747 25.8723 21.0192C25.8401 21.0636 25.7978 21.0998 25.7489 21.1248C25.7001 21.1497 25.6459 21.1627 25.591 21.1627L25.5915 21.1601ZM26.8934 20.5229C26.8206 20.5228 26.7497 20.4999 26.6906 20.4574C26.6315 20.4148 26.5874 20.3547 26.5643 20.2857L25.4548 16.9732C25.4257 16.8859 25.4324 16.7905 25.4735 16.7081C25.5147 16.6257 25.5868 16.563 25.6742 16.5339C25.7615 16.5047 25.8569 16.5114 25.9393 16.5526C26.0217 16.5937 26.0844 16.6659 26.1135 16.7532L27.2209 20.0657C27.2354 20.1089 27.2413 20.1546 27.2381 20.2001C27.235 20.2456 27.2229 20.29 27.2025 20.3308C27.1821 20.3716 27.1539 20.408 27.1195 20.4378C27.085 20.4677 27.045 20.4905 27.0017 20.5048C26.9668 20.5167 26.9303 20.5228 26.8934 20.5229ZM25.9232 25.8716C25.8311 25.8716 25.7428 25.8351 25.6777 25.7699C25.6126 25.7048 25.576 25.6165 25.576 25.5244V22.5454C25.576 22.4533 25.6126 22.365 25.6777 22.2999C25.7428 22.2348 25.8311 22.1982 25.9232 22.1982C26.0153 22.1982 26.1036 22.2348 26.1687 22.2999C26.2338 22.365 26.2704 22.4533 26.2704 22.5454V25.5244C26.2704 25.6165 26.2338 25.7048 26.1687 25.7699C26.1036 25.8351 26.0153 25.8716 25.9232 25.8716ZM30.4143 29.3353H10.4115C10.3194 29.3353 10.2311 29.2988 10.166 29.2337C10.1009 29.1685 10.0643 29.0802 10.0643 28.9882C10.0643 28.8961 10.1009 28.8078 10.166 28.7427C10.2311 28.6775 10.3194 28.641 10.4115 28.641H21.0849V27.7773C21.0854 27.3641 21.2497 26.968 21.5419 26.6758C21.8341 26.3836 22.2302 26.2193 22.6434 26.2188H29.203C29.6162 26.2193 30.0123 26.3836 30.3045 26.6758C30.5967 26.968 30.761 27.3641 30.7615 27.7773V28.9882C30.7615 29.0802 30.7249 29.1685 30.6598 29.2337C30.5947 29.2988 30.5064 29.3353 30.4143 29.3353ZM21.7776 28.641H30.0671V27.7773C30.0669 27.5482 29.9758 27.3285 29.8138 27.1665C29.6518 27.0045 29.4321 26.9134 29.203 26.9132H22.6434C22.4143 26.9134 22.1946 27.0045 22.0326 27.1665C21.8706 27.3285 21.7795 27.5482 21.7793 27.7773L21.7776 28.641ZM27.538 25.8716C27.4459 25.8716 27.3576 25.8351 27.2925 25.7699C27.2274 25.7048 27.1908 25.6165 27.1908 25.5244V22.5454C27.1908 22.4533 27.2274 22.365 27.2925 22.2999C27.3576 22.2348 27.4459 22.1982 27.538 22.1982C27.63 22.1982 27.7184 22.2348 27.7835 22.2999C27.8486 22.365 27.8852 22.4533 27.8852 22.5454V25.5244C27.8852 25.6165 27.8486 25.7048 27.7835 25.7699C27.7184 25.8351 27.63 25.8716 27.538 25.8716ZM13.2642 24.7471C12.605 24.7471 11.9412 24.583 11.395 24.1095C10.5563 23.3829 10.1429 22.6962 9.61999 21.8274C9.5564 21.7187 9.48722 21.607 9.41632 21.491C9.29945 21.2985 9.15851 21.011 9.28269 20.7334C9.41546 20.4361 9.75148 20.3506 10.0845 20.2891C10.6975 20.1794 11.317 20.1092 11.939 20.079C12.8659 20.027 14.2026 20.4361 14.9468 21.454C15.3374 21.9885 15.7001 22.896 15.2094 24.183C15.1903 24.2338 15.1594 24.2793 15.1191 24.3157C15.0761 24.3808 15.0121 24.4293 14.9378 24.4532C14.4437 24.6144 13.8559 24.7471 13.2642 24.7471ZM9.95558 21.0312C9.96761 21.0561 9.9848 21.0883 10.0097 21.1292C10.081 21.2465 10.1489 21.3595 10.2147 21.4686C10.7256 22.3168 11.0943 22.9296 11.8501 23.5844C12.6059 24.2392 13.7373 24.0927 14.6001 23.8323C14.8613 23.0761 14.79 22.4144 14.3882 21.8639C13.821 21.0909 12.7464 20.7304 11.9773 20.7734C11.3849 20.8018 10.795 20.8683 10.2112 20.9728C10.1249 20.9868 10.0395 21.0063 9.95558 21.0312ZM18.3938 25.7225C17.7127 25.7225 17.0231 25.4974 16.3803 25.0557C16.3185 25.0131 16.272 24.9518 16.2479 24.8808C16.0924 24.4214 16.162 23.7941 16.4348 23.205C16.718 22.5901 17.1614 22.1308 17.6517 21.9482C19.1311 21.3926 20.5469 21.7909 21.6147 22.2004C21.694 22.2307 21.7594 22.289 21.7986 22.3643C21.8378 22.4396 21.848 22.5267 21.8274 22.609C21.4695 24.0351 20.6178 25.0969 19.4912 25.5227C19.1406 25.6554 18.7687 25.7231 18.3938 25.7225ZM16.8783 24.5546C17.6517 25.0462 18.4862 25.1596 19.2454 24.873C20.0794 24.5576 20.7326 23.7881 21.0686 22.7383C20.1211 22.4036 19.0289 22.1724 17.8958 22.5978C17.2405 22.8419 16.7614 23.9329 16.8783 24.5546Z" fill="#030712"/>
<path d="M15.5486 27.5113C15.527 27.5113 15.5054 27.5092 15.4842 27.5053C15.4393 27.497 15.3966 27.4798 15.3584 27.4549C15.3202 27.43 15.2873 27.3978 15.2615 27.3602C15.2358 27.3226 15.2177 27.2802 15.2084 27.2356C15.199 27.191 15.1986 27.1449 15.207 27.1001C15.2096 27.0842 15.4966 25.4514 14.5883 24.366C13.8855 23.5355 13.034 22.8432 12.0776 22.3246C12.0341 22.3047 11.9953 22.276 11.9634 22.2404C11.9315 22.2047 11.9074 22.1629 11.8924 22.1175C11.8775 22.0721 11.8721 22.0241 11.8765 21.9765C11.881 21.9289 11.8952 21.8827 11.9184 21.8409C11.9415 21.799 11.9731 21.7624 12.011 21.7334C12.049 21.7043 12.0925 21.6833 12.1389 21.6719C12.1853 21.6604 12.2336 21.6587 12.2807 21.6667C12.3278 21.6748 12.3728 21.6925 12.4128 21.7187C13.4443 22.2787 14.3623 23.0261 15.1198 23.9226C16.2417 25.2628 15.9035 27.1504 15.8885 27.2312C15.873 27.31 15.8306 27.381 15.7687 27.4321C15.7067 27.4831 15.6289 27.5112 15.5486 27.5113Z" fill="#030712"/>
<path d="M15.6258 26.013C15.5529 26.0131 15.4819 25.9899 15.423 25.9469C15.3484 25.893 15.2982 25.8116 15.2835 25.7207C15.2689 25.6298 15.2909 25.5368 15.3448 25.4622C15.3938 25.3947 16.5668 23.7997 18.7681 23.1634C18.8122 23.1496 18.8586 23.1448 18.9046 23.1492C18.9506 23.1536 18.9953 23.1671 19.036 23.189C19.0767 23.2109 19.1126 23.2406 19.1417 23.2766C19.1707 23.3125 19.1923 23.3539 19.2051 23.3983C19.2179 23.4427 19.2218 23.4892 19.2164 23.5351C19.2111 23.581 19.1966 23.6253 19.1739 23.6656C19.1511 23.7058 19.1206 23.7411 19.0841 23.7694C19.0475 23.7976 19.0057 23.8183 18.9611 23.8302C16.9871 24.4013 15.918 25.8545 15.9077 25.8691C15.8755 25.9137 15.8331 25.95 15.7841 25.975C15.7351 26 15.6808 26.0131 15.6258 26.013ZM18.3389 29.3354C18.2468 29.3354 18.1585 29.2988 18.0934 29.2337C18.0283 29.1686 17.9917 29.0803 17.9917 28.9882C17.9917 28.1877 16.8706 27.5114 15.5425 27.5114C14.2143 27.5114 13.0932 28.1877 13.0932 28.9882C13.0901 29.0782 13.0521 29.1635 12.9873 29.2261C12.9225 29.2886 12.8359 29.3236 12.7458 29.3236C12.6558 29.3236 12.5692 29.2886 12.5044 29.2261C12.4396 29.1635 12.4016 29.0782 12.3984 28.9882C12.3984 28.3798 12.7452 27.8186 13.3747 27.4074C13.9586 27.0267 14.7278 26.817 15.5412 26.817C16.3546 26.817 17.1237 27.0267 17.7072 27.4074C18.3367 27.8186 18.6835 28.3798 18.6835 28.9882C18.6835 29.0798 18.6473 29.1678 18.5827 29.2328C18.5181 29.2978 18.4305 29.3347 18.3389 29.3354Z" fill="#030712"/>
</g>
<defs>
<clipPath id="clip0_1210_13880">
<rect width="22" height="22" fill="white" transform="translate(9 9)"/>
</clipPath>
</defs>
</svg>
