<svg width="40" height="40" viewBox="0 0 40 40" fill="none" xmlns="http://www.w3.org/2000/svg">
<rect width="40" height="40" rx="20" fill="#DFF3FB"/>
<rect x="0.5" y="0.5" width="39" height="39" rx="19.5" stroke="black" stroke-opacity="0.05"/>
<g clip-path="url(#clip0_1210_13976)">
<path d="M21.3416 29.5146H10.8753C10.5936 29.5146 10.3166 29.4418 10.0714 29.3031C9.82613 29.1645 9.62094 28.9647 9.47574 28.7233C9.33054 28.4818 9.25028 28.2069 9.24277 27.9253C9.23525 27.6437 9.30074 27.3649 9.43286 27.1161L13.618 19.2175V16.4856C13.618 16.3935 13.6546 16.3052 13.7197 16.2401C13.7848 16.175 13.8731 16.1384 13.9652 16.1384C14.0573 16.1384 14.1456 16.175 14.2107 16.2401C14.2758 16.3052 14.3124 16.3935 14.3124 16.4856V19.3039C14.3125 19.3605 14.2986 19.4163 14.272 19.4663L10.0452 27.4409C9.96926 27.5841 9.93168 27.7444 9.93608 27.9064C9.94047 28.0684 9.9867 28.2264 10.0703 28.3653C10.1538 28.5041 10.2719 28.6189 10.4129 28.6987C10.554 28.7784 10.7133 28.8202 10.8753 28.8202H21.3416C21.5036 28.8202 21.6629 28.7782 21.8039 28.6985C21.9449 28.6188 22.0629 28.5039 22.1464 28.3651C22.2299 28.2263 22.2761 28.0682 22.2805 27.9063C22.2848 27.7443 22.2473 27.584 22.1714 27.4409L17.9458 19.4663C17.9192 19.4163 17.9053 19.3605 17.9054 19.3039V16.4856C17.9054 16.3935 17.942 16.3052 18.0071 16.2401C18.0722 16.175 18.1605 16.1384 18.2526 16.1384C18.3447 16.1384 18.433 16.175 18.4981 16.2401C18.5632 16.3052 18.5998 16.3935 18.5998 16.4856V19.2175L22.785 27.1161C22.9171 27.365 22.9826 27.6438 22.975 27.9255C22.9675 28.2072 22.8872 28.4822 22.7419 28.7236C22.5966 28.9651 22.3912 29.1648 22.1459 29.3034C21.9005 29.442 21.6235 29.5148 21.3416 29.5146ZM18.7627 15.7912H13.4539C13.2977 15.791 13.148 15.7288 13.0376 15.6184C12.9271 15.508 12.865 15.3583 12.8648 15.2021V13.9706C12.8653 13.8147 12.9276 13.6653 13.038 13.5552C13.1484 13.445 13.2979 13.383 13.4539 13.3828H18.7627C18.9188 13.383 19.0685 13.4452 19.179 13.5556C19.2894 13.666 19.3515 13.8157 19.3518 13.9719V15.2034C19.3512 15.3593 19.2889 15.5087 19.1785 15.6189C19.0681 15.729 18.9186 15.791 18.7627 15.7912ZM13.5579 15.0968H18.6574V14.0759H13.5579V15.0968Z" fill="#030712"/>
<path d="M18.0381 23.6394C17.5146 23.6395 16.992 23.5948 16.4762 23.5058C13.7141 23.0288 12.0933 23.3257 12.0757 23.3287C11.9852 23.3458 11.8917 23.3263 11.8156 23.2744C11.7395 23.2225 11.6872 23.1425 11.6701 23.052C11.653 22.9615 11.6726 22.868 11.7245 22.7919C11.7763 22.7158 11.8563 22.6635 11.9468 22.6464C12.0177 22.6331 13.7085 22.3233 16.5952 22.8213C17.774 23.0223 18.9817 22.9772 20.1422 22.6889C20.2311 22.6688 20.3244 22.6844 20.4019 22.7324C20.4794 22.7803 20.5349 22.8569 20.5564 22.9454C20.578 23.034 20.5638 23.1275 20.517 23.2057C20.4703 23.2839 20.3946 23.3406 20.3064 23.3636C19.564 23.5459 18.8025 23.6385 18.0381 23.6394ZM13.9603 26.9416C13.7034 26.9416 13.4523 26.8654 13.2387 26.7226C13.0251 26.5799 12.8586 26.377 12.7603 26.1397C12.6619 25.9023 12.6362 25.6412 12.6863 25.3892C12.7365 25.1372 12.8602 24.9058 13.0418 24.7241C13.2235 24.5425 13.455 24.4187 13.7069 24.3686C13.9589 24.3185 14.2201 24.3442 14.4574 24.4425C14.6948 24.5409 14.8976 24.7073 15.0404 24.921C15.1831 25.1346 15.2593 25.3857 15.2593 25.6426C15.2589 25.987 15.122 26.3172 14.8784 26.5607C14.6349 26.8043 14.3047 26.9412 13.9603 26.9416ZM13.9603 25.0385C13.8407 25.0385 13.7238 25.0739 13.6244 25.1404C13.525 25.2068 13.4475 25.3013 13.4017 25.4118C13.356 25.5223 13.344 25.6439 13.3674 25.7611C13.3908 25.8784 13.4484 25.9862 13.533 26.0707C13.6176 26.1552 13.7253 26.2128 13.8427 26.236C13.96 26.2593 14.0815 26.2473 14.192 26.2015C14.3025 26.1556 14.3968 26.0781 14.4632 25.9786C14.5296 25.8791 14.565 25.7622 14.5649 25.6426C14.5647 25.4824 14.5009 25.3288 14.3876 25.2155C14.2742 25.1023 14.1206 25.0386 13.9603 25.0385ZM17.4717 27.7455C17.2626 27.7455 17.0581 27.6835 16.8842 27.5673C16.7103 27.4511 16.5748 27.2859 16.4948 27.0927C16.4147 26.8995 16.3938 26.6869 16.4346 26.4817C16.4754 26.2766 16.5761 26.0882 16.724 25.9403C16.8719 25.7924 17.0603 25.6917 17.2654 25.6509C17.4706 25.6101 17.6832 25.631 17.8764 25.7111C18.0696 25.7911 18.2348 25.9267 18.351 26.1005C18.4672 26.2744 18.5292 26.4789 18.5292 26.688C18.5289 26.9684 18.4173 27.2372 18.2191 27.4354C18.0209 27.6336 17.7521 27.7452 17.4717 27.7455ZM17.4717 26.325C17.3999 26.325 17.3297 26.3463 17.27 26.3861C17.2103 26.426 17.1638 26.4827 17.1363 26.5491C17.1088 26.6154 17.1016 26.6884 17.1156 26.7589C17.1296 26.8293 17.1642 26.894 17.215 26.9448C17.2658 26.9956 17.3305 27.0301 17.4009 27.0442C17.4713 27.0582 17.5443 27.051 17.6107 27.0235C17.677 26.996 17.7337 26.9495 17.7736 26.8898C17.8135 26.8301 17.8348 26.7599 17.8348 26.688C17.8347 26.5918 17.7964 26.4995 17.7284 26.4314C17.6603 26.3634 17.568 26.3251 17.4717 26.325ZM27.2549 29.5145C26.5568 29.5137 25.8875 29.2361 25.3938 28.7424C24.9002 28.2488 24.6225 27.5795 24.6217 26.8814V20.2273C24.6217 20.1352 24.6583 20.0469 24.7234 19.9818C24.7885 19.9167 24.8768 19.8801 24.9689 19.8801C25.061 19.8801 25.1493 19.9167 25.2144 19.9818C25.2795 20.0469 25.3161 20.1352 25.3161 20.2273V26.8814C25.3161 27.3956 25.5204 27.8887 25.884 28.2523C26.2475 28.6159 26.7407 28.8202 27.2549 28.8202C27.7691 28.8202 28.2622 28.6159 28.6258 28.2523C28.9894 27.8887 29.1936 27.3956 29.1936 26.8814V20.2273C29.1936 20.1352 29.2302 20.0469 29.2953 19.9818C29.3604 19.9167 29.4487 19.8801 29.5408 19.8801C29.6329 19.8801 29.7212 19.9167 29.7863 19.9818C29.8514 20.0469 29.888 20.1352 29.888 20.2273V26.8814C29.8872 27.5795 29.6095 28.2488 29.1159 28.7424C28.6223 29.2361 27.953 29.5137 27.2549 29.5145ZM30.1742 19.5329H24.336C24.1798 19.5327 24.03 19.4705 23.9195 19.3599C23.8091 19.2494 23.747 19.0996 23.7469 18.9434V17.6427C23.7471 17.4865 23.8093 17.3368 23.9197 17.2264C24.0301 17.116 24.1798 17.0538 24.336 17.0536H30.1742C30.3303 17.0538 30.48 17.116 30.5905 17.2264C30.7009 17.3368 30.763 17.4865 30.7633 17.6427V18.9434C30.7632 19.0996 30.7011 19.2494 30.5906 19.3599C30.4802 19.4705 30.3304 19.5327 30.1742 19.5329ZM24.4413 18.8398H30.0702V17.748H24.4413V18.8398Z" fill="#030712"/>
<path d="M27.2545 17.748C27.2089 17.748 27.1638 17.7391 27.1216 17.7216C27.0795 17.7042 27.0412 17.6786 27.009 17.6464C26.9768 17.6141 26.9512 17.5758 26.9337 17.5337C26.9163 17.4916 26.9073 17.4464 26.9073 17.4009V11.6903C26.9072 11.555 26.8534 11.4252 26.7577 11.3295C26.662 11.2338 26.5322 11.18 26.3968 11.1798H16.9622C16.8268 11.18 16.6971 11.2338 16.6014 11.3295C16.5057 11.4252 16.4518 11.555 16.4517 11.6903V13.7034C16.4486 13.7934 16.4106 13.8787 16.3458 13.9413C16.281 14.0038 16.1944 14.0388 16.1043 14.0388C16.0142 14.0388 15.9277 14.0038 15.8629 13.9413C15.7981 13.8787 15.7601 13.7934 15.7569 13.7034V11.6903C15.7578 11.3715 15.8849 11.066 16.1103 10.8406C16.3357 10.6151 16.6412 10.4881 16.96 10.4872H26.3968C26.7157 10.488 27.0212 10.615 27.2467 10.8404C27.4722 11.0659 27.5992 11.3715 27.6 11.6903V17.4009C27.6 17.4926 27.5636 17.5807 27.4989 17.6457C27.4341 17.7108 27.3463 17.7476 27.2545 17.748ZM28.1091 23.7314C27.8089 23.7367 27.5104 23.6836 27.2304 23.575C26.1884 23.1453 25.0863 23.4891 25.0751 23.4938C24.9875 23.5223 24.8922 23.5148 24.8102 23.4731C24.7281 23.4313 24.666 23.3586 24.6375 23.271C24.609 23.1835 24.6165 23.0881 24.6582 23.0061C24.7 22.924 24.7727 22.8619 24.8603 22.8334C24.9148 22.8158 26.2099 22.4037 27.4925 22.9327C28.058 23.1638 28.8559 22.9756 29.4261 22.7797C29.5134 22.7495 29.609 22.7552 29.6921 22.7955C29.7751 22.8358 29.8387 22.9075 29.8689 22.9947C29.8991 23.082 29.8934 23.1776 29.8531 23.2607C29.8128 23.3437 29.7411 23.4073 29.6539 23.4375C29.2156 23.5879 28.6561 23.7314 28.1091 23.7314ZM26.5043 25.4003C26.4121 25.4003 26.3238 25.3638 26.2586 25.2987C26.1934 25.2336 26.1568 25.1453 26.1566 25.0532V24.8791C26.1598 24.7891 26.1978 24.7038 26.2626 24.6413C26.3274 24.5787 26.414 24.5437 26.504 24.5437C26.5941 24.5437 26.6807 24.5787 26.7455 24.6413C26.8103 24.7038 26.8483 24.7891 26.8514 24.8791V25.0532C26.8514 25.0988 26.8425 25.1439 26.825 25.186C26.8076 25.2281 26.782 25.2664 26.7498 25.2987C26.7175 25.3309 26.6792 25.3565 26.6371 25.3739C26.595 25.3914 26.5499 25.4003 26.5043 25.4003ZM28.1121 26.6C28.02 26.5999 27.9317 26.5632 27.8666 26.4981C27.8015 26.4329 27.765 26.3445 27.765 26.2524V26.0784C27.765 25.9863 27.8015 25.898 27.8667 25.8329C27.9318 25.7678 28.0201 25.7312 28.1121 25.7312C28.2042 25.7312 28.2925 25.7678 28.3576 25.8329C28.4228 25.898 28.4593 25.9863 28.4593 26.0784V26.2524C28.4594 26.298 28.4505 26.3432 28.433 26.3854C28.4156 26.4276 28.39 26.4659 28.3578 26.4982C28.3256 26.5305 28.2873 26.5561 28.2451 26.5736C28.203 26.591 28.1578 26.6 28.1121 26.6ZM26.8257 27.4577C26.7336 27.4577 26.6453 27.4211 26.5802 27.356C26.5151 27.2909 26.4785 27.2026 26.4785 27.1105V26.9361C26.4785 26.844 26.5151 26.7557 26.5802 26.6905C26.6453 26.6254 26.7336 26.5889 26.8257 26.5889C26.9177 26.5889 27.0061 26.6254 27.0712 26.6905C27.1363 26.7557 27.1729 26.844 27.1729 26.9361V27.1105C27.1729 27.1561 27.1639 27.2012 27.1464 27.2434C27.129 27.2855 27.1034 27.3238 27.0712 27.356C27.0389 27.3882 27.0006 27.4138 26.9585 27.4313C26.9164 27.4487 26.8713 27.4577 26.8257 27.4577ZM12.5777 28.0584H12.3628C12.2707 28.0584 12.1824 28.0218 12.1173 27.9567C12.0522 27.8916 12.0156 27.8033 12.0156 27.7112C12.0156 27.6191 12.0522 27.5308 12.1173 27.4657C12.1824 27.4006 12.2707 27.364 12.3628 27.364H12.5777C12.6697 27.364 12.758 27.4006 12.8232 27.4657C12.8883 27.5308 12.9248 27.6191 12.9248 27.7112C12.9248 27.8033 12.8883 27.8916 12.8232 27.9567C12.758 28.0218 12.6697 28.0584 12.5777 28.0584ZM16.6356 25.0386H16.4186C16.3266 25.0386 16.2382 25.002 16.1731 24.9369C16.108 24.8718 16.0714 24.7834 16.0714 24.6914C16.0714 24.5993 16.108 24.511 16.1731 24.4459C16.2382 24.3808 16.3266 24.3442 16.4186 24.3442H16.6356C16.7277 24.3442 16.816 24.3808 16.8811 24.4459C16.9462 24.511 16.9828 24.5993 16.9828 24.6914C16.9828 24.7834 16.9462 24.8718 16.8811 24.9369C16.816 25.002 16.7277 25.0386 16.6356 25.0386ZM19.9992 26.9442H19.7844C19.7388 26.9442 19.6936 26.9352 19.6515 26.9178C19.6094 26.9003 19.5711 26.8748 19.5389 26.8425C19.5066 26.8103 19.4811 26.772 19.4636 26.7299C19.4462 26.6878 19.4372 26.6426 19.4372 26.597C19.4372 26.5514 19.4462 26.5063 19.4636 26.4642C19.4811 26.422 19.5066 26.3838 19.5389 26.3515C19.5711 26.3193 19.6094 26.2937 19.6515 26.2763C19.6936 26.2588 19.7388 26.2498 19.7844 26.2498H19.9992C20.0913 26.2498 20.1796 26.2864 20.2447 26.3515C20.3098 26.4166 20.3464 26.5049 20.3464 26.597C20.3464 26.6891 20.3098 26.7774 20.2447 26.8425C20.1796 26.9076 20.0913 26.9442 19.9992 26.9442ZM15.4759 27.9282H15.2611C15.169 27.9282 15.0807 27.8916 15.0156 27.8265C14.9504 27.7614 14.9139 27.6731 14.9139 27.581C14.9139 27.4889 14.9504 27.4006 15.0156 27.3355C15.0807 27.2704 15.169 27.2338 15.2611 27.2338H15.4759C15.568 27.2338 15.6563 27.2704 15.7214 27.3355C15.7865 27.4006 15.8231 27.4889 15.8231 27.581C15.8231 27.6731 15.7865 27.7614 15.7214 27.8265C15.6563 27.8916 15.568 27.9282 15.4759 27.9282Z" fill="#030712"/>
</g>
<defs>
<clipPath id="clip0_1210_13976">
<rect width="22" height="22" fill="white" transform="translate(9 9)"/>
</clipPath>
</defs>
</svg>
