<svg width="24" height="25" viewBox="0 0 24 25" fill="none" xmlns="http://www.w3.org/2000/svg">
<g clip-path="url(#clip0_372_11644)">
<path d="M16.9609 6.81984C18.9609 8.20984 20.3409 10.4198 20.6209 12.9698" stroke="#89225A" stroke-width="1.5" stroke-linecap="round" stroke-linejoin="round"/>
<path d="M3.49219 13.0198C3.75219 10.4798 5.11219 8.26984 7.09219 6.86984" stroke="#89225A" stroke-width="1.5" stroke-linecap="round" stroke-linejoin="round"/>
<path d="M8.1875 21.5898C9.3475 22.1798 10.6675 22.5098 12.0575 22.5098C13.3975 22.5098 14.6575 22.2098 15.7875 21.6598" stroke="#89225A" stroke-width="1.5" stroke-linecap="round" stroke-linejoin="round"/>
<path d="M12.0613 8.34984C13.5966 8.34984 14.8413 7.10519 14.8413 5.56984C14.8413 4.03449 13.5966 2.78984 12.0613 2.78984C10.5259 2.78984 9.28125 4.03449 9.28125 5.56984C9.28125 7.10519 10.5259 8.34984 12.0613 8.34984Z" stroke="#89225A" stroke-width="1.5" stroke-linecap="round" stroke-linejoin="round"/>
<path d="M4.82687 20.5698C6.36223 20.5698 7.60688 19.3252 7.60688 17.7898C7.60688 16.2545 6.36223 15.0098 4.82687 15.0098C3.29152 15.0098 2.04688 16.2545 2.04688 17.7898C2.04688 19.3252 3.29152 20.5698 4.82687 20.5698Z" stroke="#89225A" stroke-width="1.5" stroke-linecap="round" stroke-linejoin="round"/>
<path d="M19.1706 20.5698C20.706 20.5698 21.9506 19.3252 21.9506 17.7898C21.9506 16.2545 20.706 15.0098 19.1706 15.0098C17.6353 15.0098 16.3906 16.2545 16.3906 17.7898C16.3906 19.3252 17.6353 20.5698 19.1706 20.5698Z" stroke="#89225A" stroke-width="1.5" stroke-linecap="round" stroke-linejoin="round"/>
</g>
<defs>
<clipPath id="clip0_372_11644">
<rect width="24" height="24" fill="white" transform="translate(0 0.5)"/>
</clipPath>
</defs>
</svg>
