<svg width="16" height="12" viewBox="0 0 16 12" fill="none" xmlns="http://www.w3.org/2000/svg">
<path d="M14.9495 1.56709C14.4871 1.76623 14.0011 1.90491 13.5033 1.97968C13.7361 1.93975 14.0785 1.52051 14.2148 1.35081C14.4218 1.09485 14.5796 0.802639 14.6802 0.489034C14.6802 0.465743 14.7034 0.432469 14.6802 0.415832C14.6685 0.409425 14.6553 0.406068 14.6419 0.406068C14.6286 0.406068 14.6154 0.409425 14.6037 0.415832C14.0632 0.708779 13.488 0.932364 12.8917 1.0813C12.8709 1.08766 12.8488 1.08823 12.8277 1.08295C12.8066 1.07767 12.7873 1.06675 12.772 1.05135C12.7256 0.99603 12.6756 0.943791 12.6224 0.894969C12.3791 0.676845 12.1032 0.49832 11.8046 0.365922C11.4015 0.200413 10.9661 0.128735 10.5313 0.1563C10.1095 0.182968 9.69756 0.296227 9.32127 0.489034C8.95072 0.692309 8.62506 0.968463 8.36385 1.3009C8.08908 1.64307 7.89071 2.04016 7.78208 2.46547C7.69251 2.87003 7.68234 3.28815 7.75216 3.69659C7.75216 3.76646 7.75216 3.77644 7.69232 3.76646C5.32204 3.41709 3.37728 2.57527 1.78822 0.76853C1.71841 0.688674 1.68184 0.688674 1.62533 0.76853C0.933854 1.81997 1.26962 3.48364 2.13396 4.30549C2.25031 4.41529 2.36999 4.52177 2.49631 4.62159C2.10002 4.59343 1.7134 4.48594 1.35937 4.30549C1.29289 4.26224 1.25632 4.28553 1.25299 4.36538C1.24357 4.47609 1.24357 4.58741 1.25299 4.69812C1.32236 5.22869 1.53127 5.73131 1.85836 6.15457C2.18546 6.57783 2.619 6.90655 3.11465 7.10711C3.23548 7.15891 3.36138 7.19794 3.4903 7.22357C3.12343 7.29586 2.74716 7.3071 2.37664 7.25684C2.29685 7.2402 2.26693 7.28346 2.29685 7.35999C2.78554 8.69092 3.84601 9.09686 4.62392 9.32312C4.7303 9.33975 4.83668 9.33975 4.95636 9.36637C4.95636 9.36637 4.95636 9.36637 4.93641 9.38634C4.70703 9.80558 3.77953 10.0884 3.354 10.2348C2.57732 10.514 1.74923 10.6208 0.927205 10.5476C0.797554 10.5276 0.767635 10.5309 0.734391 10.5476C0.701147 10.5642 0.734391 10.6008 0.770959 10.6341C0.937178 10.7439 1.1034 10.8404 1.27627 10.9335C1.79089 11.2145 2.33496 11.4377 2.89856 11.599C5.81737 12.4042 9.10186 11.812 11.2926 9.63256C13.0147 7.92231 13.6197 5.56322 13.6197 3.20081C13.6197 3.11098 13.7294 3.05774 13.7926 3.01116C14.2282 2.6714 14.6123 2.27015 14.9328 1.81997C14.9883 1.75286 15.0168 1.66742 15.0126 1.5804C15.0126 1.53049 15.0126 1.54047 14.9495 1.56709Z" fill="#6B7280"/>
</svg>
