<svg width="48" height="48" viewBox="0 0 48 48" fill="none" xmlns="http://www.w3.org/2000/svg">
<path fill-rule="evenodd" clip-rule="evenodd" d="M21.1992 31.0471H17.7969L19.9249 18.2323H23.3271L21.1992 31.0471Z" fill="#0742A6"/>
<path fill-rule="evenodd" clip-rule="evenodd" d="M33.5342 18.5456C32.8631 18.2863 31.7987 18 30.4826 18C27.1227 18 24.7566 19.7449 24.7421 22.2396C24.7142 24.0801 26.4361 25.1024 27.724 25.7161C29.0403 26.3433 29.4878 26.7526 29.4878 27.3116C29.4744 28.1701 28.4241 28.5658 27.4445 28.5658C26.0862 28.5658 25.3583 28.3618 24.2522 27.8841L23.8042 27.6794L23.3281 30.556C24.1261 30.9101 25.5963 31.2243 27.1227 31.238C30.6926 31.238 33.0168 29.5201 33.0443 26.8616C33.0579 25.4029 32.1487 24.2851 30.1884 23.3717C28.9984 22.7853 28.2697 22.39 28.2697 21.79C28.2836 21.2446 28.8861 20.686 30.2294 20.686C31.3354 20.6587 32.1481 20.9176 32.7638 21.1767L33.0715 21.3128L33.5342 18.5456Z" fill="#0742A6"/>
<path fill-rule="evenodd" clip-rule="evenodd" d="M39.625 18.2323H42.2567L45.0015 31.0469H41.8513C41.8513 31.0469 41.543 29.5745 41.4453 29.1246H37.077C36.9507 29.4652 36.3629 31.0469 36.3629 31.0469H32.793L37.8467 19.2955C38.1969 18.4639 38.8134 18.2323 39.625 18.2323ZM39.416 22.9218C39.416 22.9218 38.3378 25.7711 38.0576 26.5072H40.8856C40.7457 25.8665 40.1014 22.7991 40.1014 22.7991L39.8636 21.6949C39.7635 21.9793 39.6187 22.3702 39.521 22.6338C39.4548 22.8126 39.4103 22.9328 39.416 22.9218Z" fill="#0742A6"/>
<path fill-rule="evenodd" clip-rule="evenodd" d="M14.9548 18.2323L11.6227 26.9707L11.2586 25.1985C10.6426 23.1535 8.71066 20.9317 6.55469 19.827L9.60669 31.0335H13.2046L18.5524 18.2323H14.9548V18.2323Z" fill="#0742A6"/>
<path fill-rule="evenodd" clip-rule="evenodd" d="M8.53003 18.2323H3.056L3 18.4912C7.27008 19.5547 10.0981 22.118 11.26 25.199L10.07 19.3095C9.87407 18.491 9.272 18.2593 8.53003 18.2323Z" fill="#0742A6"/>
</svg>
