<svg width="24" height="24" viewBox="0 0 24 24" fill="none" xmlns="http://www.w3.org/2000/svg">
<path fill-rule="evenodd" clip-rule="evenodd" d="M12 3.5C7.313 3.5 3.5 7.313 3.5 12C3.5 16.687 7.313 20.5 12 20.5C16.687 20.5 20.5 16.687 20.5 12C20.5 7.313 16.687 3.5 12 3.5ZM12 22C6.486 22 2 17.514 2 12C2 6.486 6.486 2 12 2C17.514 2 22 6.486 22 12C22 17.514 17.514 22 12 22Z" fill="#89225A"/>
<path fill-rule="evenodd" clip-rule="evenodd" d="M15.4341 15.6924C15.3031 15.6924 15.1711 15.6584 15.0501 15.5874L11.2801 13.3384C11.0541 13.2024 10.9141 12.9574 10.9141 12.6934V7.8454C10.9141 7.4314 11.2501 7.0954 11.6641 7.0954C12.0791 7.0954 12.4141 7.4314 12.4141 7.8454V12.2674L15.8191 14.2974C16.1741 14.5104 16.2911 14.9704 16.0791 15.3264C15.9381 15.5614 15.6891 15.6924 15.4341 15.6924Z" fill="#89225A"/>
</svg>
