<svg width="100" height="100" viewBox="0 0 100 100" fill="none" xmlns="http://www.w3.org/2000/svg">
<rect width="100" height="100" rx="50" fill="#FCE5EE"/>
<g clip-path="url(#clip0_761_7828)">
<path d="M50.0009 43.6929C46.5227 43.6929 43.6934 46.5222 43.6934 50.0004C43.6934 53.4785 46.5227 56.3082 50.0009 56.3082C53.4782 56.3082 56.3084 53.4785 56.3084 50.0004C56.3084 46.5222 53.4782 43.6929 50.0009 43.6929ZM50.389 53.0559L50.3275 54.0762L49.3461 54.0185L49.4024 53.0765C48.7394 53.006 48.1045 52.7791 47.7404 52.5477L48.1086 51.4059C48.5121 51.6579 49.0836 51.9024 49.729 51.9402C50.3039 51.9747 50.7051 51.77 50.7272 51.383C50.7505 51.0057 50.4467 50.75 49.7177 50.4552C48.6779 50.0341 47.9834 49.4949 48.04 48.5322C48.0936 47.6491 48.7495 47.0015 49.8235 46.8676L49.879 45.9237L50.851 45.9822L50.7989 46.8552C51.4529 46.9141 51.8901 47.0889 52.228 47.2692L51.8639 48.3721C51.6227 48.2394 51.1701 47.9821 50.4546 47.9409C49.81 47.9011 49.5846 48.1767 49.5677 48.4535C49.5486 48.7726 49.8835 49.0107 50.7175 49.3692C51.8755 49.8579 52.3082 50.4309 52.255 51.3354C52.201 52.2174 51.541 52.9344 50.389 53.0559Z" fill="#89225A"/>
<path d="M50 41.75C45.4434 41.75 41.75 45.4438 41.75 50C41.75 54.5566 45.4438 58.25 50 58.25C54.5562 58.25 58.25 54.5559 58.25 50C58.25 45.4441 54.5562 41.75 50 41.75ZM50 57.0579C46.1086 57.0579 42.9425 53.8918 42.9425 50C42.9425 46.1082 46.1086 42.9425 50 42.9425C53.8918 42.9425 57.0575 46.1082 57.0575 50C57.0575 53.8918 53.8918 57.0579 50 57.0579ZM73.1862 64.2961C72.5476 63.0729 70.5759 63.0729 69.9129 63.0729C66.4287 63.0729 61.406 64.4608 59.3874 65.0371C59.3735 65.3555 59.0746 66.146 57.6931 66.92C57.0061 67.3048 56.2606 67.5781 55.5151 67.805C54.7723 68.0401 54.0223 68.2269 53.3 68.4519C52.9404 68.567 52.5567 68.6908 52.1566 68.7721C51.9518 68.8162 51.7444 68.8475 51.5356 68.8659L51.3913 68.876C51.3252 68.8805 51.2803 68.8786 51.2236 68.8805C51.1152 68.8843 51.0099 68.8745 50.9034 68.8696C50.4822 68.8359 50.0863 68.7354 49.7109 68.6424C49.3423 68.5501 48.972 68.4651 48.6001 68.3874C47.8468 68.216 47.1117 68.093 46.3509 67.9768C45.5956 67.8698 44.8356 67.7995 44.0735 67.766C43.3044 67.7217 42.5071 67.6786 41.7673 67.4308C42.5405 67.5099 43.2995 67.4525 44.0697 67.3921C44.8499 67.3345 45.6332 67.3331 46.4135 67.388C47.1871 67.4349 47.9773 67.5541 48.7366 67.6835C49.1244 67.754 49.5039 67.8395 49.8856 67.9261C50.2599 68.0161 50.6172 68.0908 50.9656 68.1234C51.665 68.1935 52.3479 67.985 53.105 67.7803C53.8659 67.58 54.6361 67.4799 55.3696 67.2624C58.2931 66.395 58.7458 65.4264 58.79 65.1031C58.9438 63.9897 57.0928 63.1558 54.1771 63.1558C52.3974 63.1558 50.7237 63.5086 50.6514 63.524C50.1046 63.6418 49.5995 63.614 48.9493 63.4265C47.6221 63.0436 46.499 62.2659 45.3095 61.4424C44.1005 60.6054 42.8506 59.7395 41.3394 59.2876C38.8539 58.5455 36.5165 58.373 34.4427 58.7769C33.4227 58.9756 32.4579 59.3266 31.5245 59.6656C30.6579 59.9806 29.8393 60.2784 28.9873 60.461C28.8125 60.5 28.6096 60.5547 28.3932 60.6144C27.9639 60.7314 27.4775 60.8649 27.125 60.8649C27.0614 60.8668 26.9978 60.8601 26.936 60.845C26.8204 60.812 26.6986 60.8072 26.5808 60.8312C26.4629 60.8551 26.3526 60.9071 26.2591 60.9826C26.069 61.1356 26 61.4427 26 61.6156V70.3857C26 70.7529 26.45 71.4132 27.0684 71.4132C27.371 71.4132 27.6845 71.3172 27.9871 71.225C28.1356 71.1796 28.3036 71.1279 28.3977 71.1144L28.5759 71.0881C29.8216 70.9059 31.1097 70.7169 32.3191 70.7169C34.0644 70.7169 42.7415 72.9234 45.9376 73.7731C45.9515 73.7774 45.9657 73.7808 45.98 73.7832C46.6846 73.9276 47.3682 74 48.0114 74C49.4225 74 50.195 73.6505 50.2621 73.6175C51.3372 73.1341 53.3319 72.5776 53.3521 72.5716C56.8048 71.6101 70.3018 67.4146 70.4199 67.3775C72.2855 66.8491 73.2433 66.215 73.4352 65.3851C73.4786 65.1966 73.4787 65.0007 73.4355 64.8121C73.3924 64.6235 73.3072 64.4471 73.1862 64.2961ZM26.8122 35.7039C27.4509 36.9271 29.423 36.9271 30.0856 36.9271C33.5694 36.9271 38.5918 35.5389 40.6108 34.9629C40.625 34.6445 40.9235 33.8536 42.305 33.08C42.992 32.6952 43.7379 32.4219 44.483 32.1946C45.2262 31.9599 45.9759 31.7731 46.6978 31.5481C47.0574 31.433 47.4414 31.3093 47.8411 31.2283C48.046 31.1842 48.2534 31.1529 48.4621 31.1345L48.6065 31.1244C48.6725 31.1199 48.7175 31.1217 48.7741 31.1203C48.8825 31.1165 48.9879 31.1259 49.0944 31.1308C49.5155 31.1645 49.9119 31.2654 50.288 31.3584C50.6566 31.4495 51.0294 31.5373 51.3991 31.6134C52.1529 31.7851 52.8875 31.9078 53.6484 32.0233C54.4036 32.1294 55.1562 32.2018 55.9258 32.234C56.6953 32.2783 57.4921 32.3218 58.232 32.5689C57.4584 32.4901 56.6997 32.5475 55.9287 32.6075C55.1486 32.6652 54.3653 32.6664 53.585 32.6112C52.8114 32.5644 52.0212 32.4451 51.2622 32.3154C50.877 32.2427 50.4934 32.1617 50.1117 32.0724C49.7379 31.9824 49.3801 31.9081 49.0317 31.8751C48.332 31.805 47.6495 32.0135 46.8924 32.2183C46.1311 32.4189 45.3612 32.5186 44.6278 32.7361C41.7046 33.6035 41.2516 34.5721 41.207 34.8954C41.0532 36.0084 42.9046 36.8424 45.8202 36.8424C47.6 36.8424 49.2736 36.4891 49.346 36.4738C49.8931 36.356 50.3986 36.3841 51.0496 36.5712C52.3768 36.9541 53.4995 37.7319 54.689 38.5557C55.8984 39.3927 57.1479 40.2586 58.6595 40.7105C61.1446 41.4523 63.4824 41.6255 65.5561 41.2216C66.5761 41.0229 67.541 40.6719 68.474 40.3325C69.341 40.0175 70.1592 39.7201 71.0112 39.5371C71.1875 39.4996 71.3904 39.4445 71.6071 39.3853C72.0369 39.2679 72.5221 39.1351 72.875 39.1351C72.9744 39.1351 73.0325 39.146 73.0648 39.155C73.2991 39.2225 73.5511 39.1704 73.742 39.017C73.9317 38.8636 74.0004 38.555 74.0004 38.384V29.6146C74.0004 29.2437 73.5504 28.5868 72.9309 28.5868C72.6283 28.5868 72.3147 28.6824 72.0129 28.775C71.8644 28.8204 71.696 28.8718 71.6015 28.8856L71.4234 28.9119C70.1784 29.0945 68.8899 29.2835 67.6809 29.2835C65.936 29.2835 57.2585 27.077 54.0627 26.2269C54.0487 26.2231 54.0346 26.2198 54.0204 26.2167C53.3154 26.0731 52.6318 26 51.9883 26C50.5775 26 49.8035 26.3499 49.7364 26.3821C48.6609 26.8663 46.6666 27.4227 46.6464 27.4284C43.1938 28.3902 29.6964 32.5854 29.5786 32.6221C27.713 33.1509 26.7549 33.7842 26.5629 34.6149C26.5196 34.8034 26.5195 34.9994 26.5627 35.188C26.6059 35.3766 26.6912 35.5529 26.8122 35.7039Z" fill="#89225A"/>
</g>
<defs>
<clipPath id="clip0_761_7828">
<rect width="48" height="48" fill="white" transform="translate(26 26)"/>
</clipPath>
</defs>
</svg>
