<svg width="100" height="100" viewBox="0 0 100 100" fill="none" xmlns="http://www.w3.org/2000/svg">
<rect width="100" height="100" rx="50" fill="#FCE5EE"/>
<g clip-path="url(#clip0_761_10601)">
<path d="M31.9062 39.875C31.907 40.571 32.1838 41.2382 32.676 41.7303C33.1681 42.2224 33.8353 42.4992 34.5312 42.5H65.2812C65.9774 42.5 66.6451 42.2234 67.1374 41.7312C67.6297 41.2389 67.9062 40.5712 67.9062 39.875C67.9062 39.1788 67.6297 38.5111 67.1374 38.0188C66.6451 37.5266 65.9774 37.25 65.2812 37.25H34.5312C33.8353 37.2508 33.1681 37.5276 32.676 38.0197C32.1838 38.5118 31.907 39.179 31.9062 39.875ZM40.9063 44.75C40.7073 44.75 40.5166 44.829 40.3759 44.9697C40.2353 45.1103 40.1563 45.3011 40.1563 45.5C40.1563 45.6989 40.2353 45.8897 40.3759 46.0303C40.5166 46.171 40.7073 46.25 40.9063 46.25H58.9063C59.1052 46.25 59.2959 46.171 59.4366 46.0303C59.5772 45.8897 59.6563 45.6989 59.6563 45.5C59.6563 45.3011 59.5772 45.1103 59.4366 44.9697C59.2959 44.829 59.1052 44.75 58.9063 44.75H40.9063ZM72.5306 54.4968C72.4574 54.2599 72.4071 54.0165 72.3802 53.77C72.2741 53.0684 72.1287 52.1075 71.4013 51.3801C70.6739 50.6526 69.7129 50.5072 69.0113 50.4011C68.7648 50.3742 68.5214 50.3239 68.2845 50.2507C68.0821 50.1402 67.8901 50.0115 67.711 49.8663C67.1341 49.4353 66.3439 48.845 65.2812 48.845C64.2186 48.845 63.4285 49.4353 62.8515 49.8662C62.6724 50.0115 62.4805 50.1402 62.278 50.2507C62.0411 50.3238 61.7978 50.3742 61.5513 50.401C60.8497 50.5072 59.8887 50.6526 59.1613 51.3799C58.4339 52.1073 58.2885 53.0683 58.1823 53.77C58.1555 54.0165 58.1051 54.2598 58.032 54.4968C57.9215 54.6992 57.7928 54.8911 57.6475 55.0702C57.2165 55.6472 56.6263 56.4373 56.6263 57.5C56.6263 58.5627 57.2165 59.3528 57.6475 59.9298C57.7928 60.1088 57.9215 60.3008 58.032 60.5032C58.1051 60.7401 58.1554 60.9835 58.1823 61.23C58.2884 61.9316 58.4338 62.8926 59.1612 63.62C59.6108 64.0472 60.1727 64.3377 60.7813 64.4576V72.125C60.7813 72.2677 60.822 72.4074 60.8987 72.5278C60.9753 72.6481 61.0847 72.7441 61.214 72.8045C61.3433 72.8649 61.4872 72.8871 61.6286 72.8686C61.7701 72.85 61.9034 72.7915 62.0128 72.6999L65.2812 69.9623L68.5497 72.6999C68.6591 72.7915 68.7923 72.8501 68.9338 72.8686C69.0753 72.8871 69.2192 72.8649 69.3485 72.8045C69.4778 72.7442 69.5872 72.6482 69.6638 72.5278C69.7405 72.4074 69.7812 72.2677 69.7812 72.125V64.4576C70.3897 64.3377 70.9516 64.0472 71.4012 63.6201C72.1286 62.8927 72.274 61.9317 72.3802 61.23C72.407 60.9835 72.4574 60.7402 72.5305 60.5033C72.641 60.3008 72.7697 60.1089 72.915 59.9298C73.346 59.3528 73.9362 58.5627 73.9362 57.5C73.9362 56.4373 73.346 55.6472 72.915 55.0703C72.7697 54.8912 72.641 54.6992 72.5306 54.4968ZM68.2812 70.5184L65.7628 68.4091C65.6278 68.296 65.4573 68.2341 65.2812 68.2341C65.1052 68.2341 64.9347 68.296 64.7997 68.4091L62.2812 70.5184V64.751C62.4824 64.8613 62.6732 64.9894 62.8515 65.1338C63.4284 65.5647 64.2186 66.155 65.2812 66.155C66.3439 66.155 67.1341 65.5647 67.711 65.1338C67.8893 64.9894 68.0801 64.8613 68.2812 64.751V70.5184ZM71.1449 59.9287C70.8029 60.7537 70.9623 61.9377 70.3406 62.5594C69.7188 63.1811 68.5349 63.0216 67.7099 63.3637C66.914 63.6937 66.1965 64.655 65.2812 64.655C64.366 64.655 63.6485 63.6937 62.8526 63.3637C62.0276 63.0216 60.8436 63.1811 60.2219 62.5593C59.6001 61.9375 59.7596 60.7536 59.4175 59.9286C59.0875 59.1328 58.1263 58.4152 58.1263 57.5C58.1263 56.5848 59.0875 55.8672 59.4175 55.0713C59.7597 54.2463 59.6002 53.0623 60.222 52.4406C60.8437 51.8189 62.0276 51.9784 62.8526 51.6363C63.6485 51.3062 64.366 50.345 65.2812 50.345C66.1965 50.345 66.9141 51.3063 67.7099 51.6363C68.5349 51.9784 69.7189 51.8189 70.3407 52.4407C70.9624 53.0624 70.8029 54.2464 71.145 55.0714C71.475 55.8672 72.4363 56.5848 72.4363 57.5C72.4363 58.4152 71.475 59.1328 71.1449 59.9287Z" fill="#89225A"/>
<path d="M65.2812 52.625C64.3171 52.625 63.3745 52.9109 62.5728 53.4466C61.7711 53.9823 61.1463 54.7436 60.7773 55.6344C60.4083 56.5252 60.3118 57.5054 60.4999 58.4511C60.688 59.3967 61.1523 60.2654 61.8341 60.9471C62.5159 61.6289 63.3845 62.0932 64.3302 62.2813C65.2758 62.4694 66.256 62.3729 67.1468 62.0039C68.0376 61.6349 68.799 61.0101 69.3347 60.2084C69.8703 59.4067 70.1562 58.4642 70.1562 57.5C70.1548 56.2075 69.6407 54.9684 68.7268 54.0545C67.8128 53.1406 66.5737 52.6265 65.2812 52.625ZM55.5312 35.375C55.7301 35.375 55.9209 35.296 56.0616 35.1553C56.2022 35.0147 56.2812 34.8239 56.2812 34.625C56.2812 34.4261 56.2022 34.2353 56.0616 34.0947C55.9209 33.954 55.7301 33.875 55.5312 33.875H44.2812C44.0823 33.875 43.8916 33.954 43.7509 34.0947C43.6103 34.2353 43.5312 34.4261 43.5312 34.625C43.5312 34.8239 43.6103 35.0147 43.7509 35.1553C43.8916 35.296 44.0823 35.375 44.2812 35.375H55.5312ZM38.6562 49.25H59.8503C60.3311 49.0939 60.8253 48.9827 61.3265 48.9178C61.43 48.9023 61.5856 48.8787 61.688 48.8593C61.7418 48.8216 61.8064 48.774 61.8668 48.7292C61.8919 48.6553 61.9052 48.578 61.9062 48.5C61.9062 48.3011 61.8272 48.1103 61.6866 47.9697C61.5459 47.829 61.3552 47.75 61.1562 47.75H38.6562C38.4573 47.75 38.2666 47.829 38.1259 47.9697C37.9853 48.1103 37.9062 48.3011 37.9062 48.5C37.9062 48.6989 37.9853 48.8897 38.1259 49.0303C38.2666 49.171 38.4573 49.25 38.6562 49.25ZM40.9063 52.25H56.9755C57.1339 51.7092 57.3879 51.2012 57.7254 50.75H40.9063C40.7073 50.75 40.5166 50.829 40.3759 50.9697C40.2353 51.1103 40.1563 51.3011 40.1563 51.5C40.1563 51.6989 40.2353 51.8897 40.3759 52.0303C40.5166 52.171 40.7073 52.25 40.9063 52.25Z" fill="#89225A"/>
<path d="M71.75 27.125H28.25C27.6533 27.125 27.081 27.3621 26.659 27.784C26.2371 28.206 26 28.7783 26 29.375V60.125C26 60.7217 26.2371 61.294 26.659 61.716C27.081 62.1379 27.6533 62.375 28.25 62.375H56.8715C56.789 62.031 56.7376 61.7128 56.6985 61.4541C56.6829 61.351 56.6593 61.1955 56.6399 61.093C56.5846 61.0139 56.5021 60.9035 56.4468 60.8295C55.7395 59.9898 55.2892 58.964 55.1498 57.875H34.5637C34.4856 57.4089 34.3399 56.9567 34.1313 56.5326C33.6437 55.5366 32.8384 54.7313 31.8424 54.2437C31.4183 54.0351 30.9661 53.8894 30.5 53.8113V35.6886C30.9661 35.6106 31.4183 35.4649 31.8424 35.2563C32.8384 34.7686 33.6437 33.9633 34.1313 32.9674C34.3399 32.5433 34.4856 32.0911 34.5637 31.625H65.4363C65.5144 32.0911 65.6601 32.5433 65.8687 32.9674C66.3563 33.9633 67.1617 34.7686 68.1576 35.2563C68.5817 35.4649 69.0339 35.6106 69.5 35.6886V48.9446C69.5168 48.9484 69.5325 48.9559 69.546 48.9665C70.6382 49.0934 71.6608 49.5677 72.4631 50.3196C73.5395 51.3961 73.7431 52.7419 73.8646 53.5459C73.8801 53.649 73.9038 53.8046 73.9232 53.907C73.9452 53.9384 73.9728 53.9761 74 54.0132V29.375C74 28.7783 73.7629 28.206 73.341 27.784C72.919 27.3621 72.3467 27.125 71.75 27.125Z" fill="#89225A"/>
</g>
<defs>
<clipPath id="clip0_761_10601">
<rect width="48" height="48" fill="white" transform="translate(26 26)"/>
</clipPath>
</defs>
</svg>
