<svg width="100" height="100" viewBox="0 0 100 100" fill="none" xmlns="http://www.w3.org/2000/svg">
<rect width="100" height="100" rx="50" fill="#FCE5EE"/>
<path d="M64.4006 40.832C64.0646 40.352 63.4886 40.064 62.9126 40.064H53.5526C53.2166 40.064 52.9286 39.776 52.9286 39.44V37.424C52.9286 36.368 52.0646 35.504 51.0086 35.504H43.8086C43.5206 35.504 43.3286 35.792 43.4726 36.08C44.2406 37.568 44.5766 39.344 44.3366 41.168C43.8566 45.008 40.7846 48.08 36.9446 48.656C34.6886 48.992 32.5286 48.416 30.8486 47.216C30.5606 47.024 30.2246 47.216 30.2246 47.552V59.936C30.2246 60.992 31.0886 61.856 32.1446 61.856H33.6806C33.9206 61.856 34.1126 61.664 34.1606 61.424C34.4006 58.064 37.1846 55.424 40.5926 55.424C44.0006 55.424 46.7846 58.064 47.0246 61.424C47.0246 61.664 47.2166 61.856 47.5046 61.856H52.1126C52.3526 61.856 52.5446 61.664 52.5926 61.424C52.8326 58.064 55.6166 55.424 59.0246 55.424C62.4326 55.424 65.2166 58.064 65.4566 61.424C65.4566 61.664 65.6486 61.856 65.9366 61.856H69.2006C70.2086 61.856 71.0246 61.04 71.0246 60.032V51.008C71.0246 50.624 70.9286 50.288 70.6886 49.952L64.4006 40.832ZM66.5606 51.44C66.5606 51.776 66.2726 52.016 65.9846 52.016H56.5766C56.2406 52.016 56.0006 51.776 56.0006 51.44V44.096C56.0006 43.76 56.2406 43.52 56.5766 43.52H61.9526C62.1446 43.52 62.3366 43.616 62.4326 43.76L66.4646 49.232C66.5606 49.328 66.5606 49.472 66.5606 49.568V51.44Z" fill="#89225A"/>
<path d="M40.5926 57.008C37.9046 57.008 35.7446 59.168 35.7446 61.856C35.7446 64.544 37.9046 66.704 40.5926 66.704C43.2806 66.704 45.4406 64.544 45.4406 61.856C45.4406 59.168 43.2326 57.008 40.5926 57.008ZM40.5926 63.968C39.4406 63.968 38.4806 63.008 38.4806 61.856C38.4806 60.704 39.3926 59.744 40.5926 59.744C41.7446 59.744 42.7046 60.704 42.7046 61.856C42.6566 63.008 41.7446 63.968 40.5926 63.968ZM59.0246 57.008C56.3366 57.008 54.1766 59.168 54.1766 61.856C54.1766 64.544 56.3366 66.704 59.0246 66.704C61.7126 66.704 63.8726 64.544 63.8726 61.856C63.8726 59.168 61.7126 57.008 59.0246 57.008ZM59.0246 63.968C57.8726 63.968 56.9126 63.008 56.9126 61.856C56.9126 60.704 57.8246 59.744 59.0246 59.744C60.1766 59.744 61.1366 60.704 61.1366 61.856C61.1366 63.008 60.1766 63.968 59.0246 63.968ZM28.9766 40.064C28.9766 41.504 29.4566 42.848 30.2246 43.952C31.4246 45.68 33.4406 46.784 35.7446 46.784C39.4406 46.784 42.5126 43.76 42.5126 40.016C42.5126 38.288 41.8406 36.704 40.7846 35.504C39.5366 34.112 37.7606 33.248 35.7926 33.248C32.0006 33.296 28.9766 36.32 28.9766 40.064ZM35.0726 36.56C35.0726 36.224 35.3606 35.888 35.7446 35.888C36.1286 35.888 36.4166 36.176 36.4166 36.56V39.2C36.4166 39.296 36.4646 39.344 36.5606 39.344H37.9526C38.3366 39.344 38.6246 39.632 38.6246 40.016C38.6246 40.4 38.3366 40.688 37.9526 40.688H35.2646C35.1686 40.688 35.1206 40.64 35.1206 40.544V36.56H35.0726Z" fill="#89225A"/>
</svg>
