<svg width="100" height="100" viewBox="0 0 100 100" fill="none" xmlns="http://www.w3.org/2000/svg">
<rect width="100" height="100" rx="50" fill="#FCE5EE"/>
<path d="M70.4469 32.5783C70.1578 31.7108 69.3626 31.1325 68.4228 31.1325H65.0253C64.7361 31.1325 64.4469 30.9157 64.3747 30.6988L63.3626 27.5181C63.0734 26.6506 62.2783 26.0723 61.3385 26.0723C60.3988 26.0723 59.6036 26.6506 59.3144 27.5181L58.3024 30.6988C58.2301 30.988 57.9409 31.1325 57.6518 31.1325H54.2542C54.1096 31.1325 53.965 31.1325 53.8204 31.2048L52.7361 27.8795C52.4469 26.7229 51.4349 26 50.2783 26C49.1216 26 48.1096 26.7229 47.7481 27.8072L46.6638 31.1325C46.5192 31.1325 46.3747 31.0602 46.2301 31.0602H42.8325C42.5433 31.0602 42.2542 30.8434 42.1819 30.6265L41.0975 27.4458C40.8084 26.5783 40.0132 26 39.0734 26C38.1337 26 37.3385 26.5783 37.0494 27.4458L36.0373 30.6265C35.965 30.9157 35.6759 31.0602 35.3867 31.0602H32.1337C31.1939 31.0602 30.3987 31.6386 30.1096 32.506C29.8204 33.3735 30.1096 34.3133 30.9048 34.8916L33.6518 36.8434C33.8686 36.988 34.0132 37.2771 33.8686 37.5663L32.8566 40.747C32.5674 41.6145 32.8566 42.5542 33.6518 43.1325C34.4469 43.6386 35.3867 43.6386 36.1096 43.1325L38.8566 41.1084C39.0734 40.9639 39.4349 40.9639 39.6518 41.1084L42.3987 43.1325C42.5433 43.2048 42.6156 43.2771 42.7602 43.3494L41.8204 46.241C41.459 47.3253 41.8204 48.4819 42.7602 49.2048C43.4108 49.6386 44.1337 49.7831 44.7843 49.6386C44.5674 50.1446 44.3506 50.5783 44.1337 51.0121L41.7481 55.4217C41.5313 54.3374 40.5192 53.5422 39.3626 53.5422H34.5915C33.218 53.5422 32.1337 54.6265 32.1337 56V71.5422C32.1337 72.9157 33.218 74 34.5915 74H39.3626C40.3747 74 41.2421 73.3494 41.6036 72.4819L42.1096 72.6988C43.3385 73.2771 44.6397 73.6386 46.0132 73.6386H59.459C61.1216 73.6386 62.4951 72.5542 62.7843 70.9639C63.0012 70.0241 62.7843 69.1566 62.206 68.3615C63.7241 68.0723 64.8807 66.8434 64.953 65.3253C65.0253 64.5301 64.7361 63.8072 64.3024 63.1566C65.6759 62.7229 66.7602 61.4217 66.6156 59.8313C66.5433 58.6747 65.8927 57.6627 64.8807 57.1566C65.5313 56.506 65.965 55.3494 65.7481 54.2651C65.459 52.747 64.0132 51.5904 62.4228 51.5904H52.953C53.3144 50.4337 53.6036 49.7108 53.7481 48.4819L54.7602 49.2048C55.7 49.8554 56.9289 49.8554 57.8686 49.2048C58.8084 48.4819 59.1698 47.3976 58.8084 46.241L57.8686 43.3494C58.0132 43.2771 58.0855 43.2048 58.2301 43.1325L60.9771 41.1084C61.1939 40.9639 61.5554 40.9639 61.7722 41.1084L64.5192 43.1325C65.2421 43.6386 66.1819 43.7108 66.9771 43.1325C67.7 42.5542 67.9891 41.6867 67.7722 40.747L66.7602 37.5663C66.6879 37.2771 66.7602 36.988 66.9771 36.8434L69.7241 34.8916C70.3747 34.3855 70.7361 33.4458 70.4469 32.5783ZM57.0012 48.0482C56.6397 48.2651 56.1337 48.4096 55.6277 48.0482L53.8927 46.747C53.7481 43.9277 51.3626 41.6145 48.471 41.6145C46.953 41.6145 45.6518 42.8434 45.6518 44.4337C45.6518 44.7952 45.724 46.0964 45.3626 47.759C45.1457 47.8313 44.4951 48.6988 43.6277 48.0482C43.2662 47.8313 42.9771 47.3253 43.1939 46.747L44.206 43.5663C44.206 43.494 44.6397 42.2651 44.5674 42.3374C44.9289 41.253 44.5674 40.0964 43.6277 39.3735L43.5554 39.3012L39.8686 36.6265C39.3626 36.2651 39.2903 35.6867 39.4349 35.3253C39.5795 34.8916 39.9409 34.5301 40.5915 34.5301H45.218C47.5313 34.5301 47.8927 32.1446 47.965 32L49.1939 28.3133C49.4108 27.7349 49.9168 27.5181 50.3506 27.5181C50.7843 27.5181 51.2903 27.7349 51.5072 28.3133L52.5915 31.9277C52.6638 32.0723 53.0253 34.4578 55.3385 34.4578H59.965C60.6156 34.4578 60.9771 34.8916 61.1216 35.253C61.2662 35.6145 61.1939 36.1928 60.6879 36.5542L57.0012 39.2289C56.9289 39.3012 55.3385 40.3133 55.9891 42.1928C56.7843 44.5783 56.6397 44.2169 57.4349 46.6024C57.6518 47.3253 57.3626 47.8313 57.0012 48.0482ZM51.2903 52.0964C51.1457 52.6024 51.5072 53.0361 51.9409 53.0361H62.4228C63.3626 53.0361 64.1578 53.6868 64.3747 54.4819C64.5915 55.7108 63.7241 56.7229 62.5674 56.7229H59.2421C58.8084 56.7229 58.5192 57.0843 58.5192 57.4458C58.5192 57.8795 58.8084 58.1687 59.2421 58.1687C59.3144 58.1687 63.4349 58.1687 63.218 58.1687C64.2301 58.1687 65.1698 58.9639 65.2421 59.9036C65.3144 60.988 64.4469 61.8554 63.3626 61.8554C62.5674 61.8554 59.6759 61.8554 58.4469 61.8554C58.0132 61.8554 57.7241 62.2169 57.7241 62.5783C57.7241 63.0121 58.0132 63.3012 58.4469 63.3012H61.6277C61.7722 63.3735 63.6518 63.5181 63.5795 65.253C63.5072 66.1928 62.6397 66.988 61.5554 66.988C61.4108 66.988 56.1337 66.988 56.2783 66.988C55.9168 66.988 55.5554 67.2771 55.5554 67.7108C55.5554 68.1446 55.9168 68.4337 56.2783 68.4337H59.6036C60.7602 68.4337 61.6277 69.4458 61.4108 70.6747C61.2662 71.5422 60.3988 72.1205 59.459 72.1205H46.0132C43.7722 72.1205 42.3265 71.1084 41.8204 70.8916V57.5181L42.7602 56.6506C42.8325 56.5783 42.8325 56.506 42.9048 56.4337L45.4349 51.8072C47.3867 48.2651 47.0975 44.7229 47.0975 44.506C47.0975 43.7831 47.6759 43.1325 48.471 43.1325C50.1337 43.1325 51.5072 44.1446 52.0855 45.5181C53.0253 47.6867 51.5795 50.7952 51.2903 52.0964ZM35.3144 71.9036C34.6638 71.9036 34.0855 71.3253 34.0855 70.6747C34.0855 70.0241 34.6638 69.4458 35.3144 69.4458C35.965 69.4458 36.5433 70.0241 36.5433 70.6747C36.5433 71.3976 36.0373 71.9036 35.3144 71.9036Z" fill="#89225A"/>
</svg>
