<svg width="100" height="100" viewBox="0 0 100 100" fill="none" xmlns="http://www.w3.org/2000/svg">
<rect width="100" height="100" rx="50" fill="#FCE5EE"/>
<path d="M57.7609 51.8216C57.7105 54.153 54.2545 56.0346 49.9993 56.0346C45.7431 56.0346 42.2886 54.153 42.2377 51.8216C35.727 52.4168 30.627 57.8902 30.627 64.5546C30.627 71.6178 36.3519 71.6 43.4142 71.6H56.5844C63.6466 71.6 69.3721 71.6178 69.3721 64.5546C69.3716 57.8902 64.2726 52.4168 57.7609 51.8216ZM63.4393 64.9491C63.4393 65.1387 63.2674 65.2914 63.0553 65.2914H60.9706V67.376C60.9706 67.5877 60.817 67.76 60.6279 67.76H58.5706C58.3806 67.76 58.2279 67.5882 58.2279 67.376V65.2909H56.1433C55.9311 65.2909 55.7588 65.1382 55.7588 64.9486V62.8909C55.7588 62.7013 55.9306 62.5486 56.1433 62.5486H58.2279V60.464C58.2279 60.2523 58.3806 60.08 58.5706 60.08H60.6279C60.817 60.08 60.9706 60.2518 60.9706 60.464V62.5491H63.0553C63.267 62.5491 63.4393 62.7018 63.4393 62.8914V64.9491Z" fill="#89225A"/>
<path d="M40.3261 40.2632C40.3328 40.3554 40.3414 40.4471 40.3496 40.5387C40.9669 47.5208 45.0512 52.9155 49.9995 52.9155C54.9469 52.9155 59.0322 47.5208 59.6494 40.5383C59.6581 40.4466 59.6653 40.3549 59.673 40.2627C59.7171 39.9599 59.7459 39.6531 59.7637 39.3421C59.7757 39.1295 59.7843 38.9159 59.7843 38.6999C59.7843 38.1695 59.7459 37.6472 59.673 37.1375C58.9573 32.1906 54.8989 28.4 49.9995 28.4C45.1002 28.4 41.0418 32.1906 40.3261 37.1379C40.2209 37.8678 40.1902 38.6065 40.2344 39.3426C40.2531 39.6536 40.2824 39.9603 40.3261 40.2632ZM43.964 34.7096C43.964 34.7096 46.7802 36.0767 49.9995 36.165C53.2189 36.0767 56.035 34.7096 56.035 34.7096C58.076 35.5146 57.1083 41.2539 57.1083 41.2539C57.6186 40.8983 58.0851 40.7135 58.4658 40.6179C57.9046 46.7168 54.3291 51.4194 49.9995 51.4194C45.6699 51.4194 42.0934 46.7168 41.5318 40.6179C41.9125 40.7135 42.3805 40.8983 42.8893 41.2539C42.8893 41.2539 41.923 35.5146 43.964 34.7096Z" fill="#89225A"/>
</svg>
