<svg width="100" height="100" viewBox="0 0 100 100" fill="none" xmlns="http://www.w3.org/2000/svg">
<rect width="100" height="100" rx="50" fill="#FCE5EE"/>
<path d="M50 35.2C47 35.2 44.5 37.6 44.5 40.7C44.5 43.7 46.9 47.8 50 47.8C53.1 47.8 55.5 43.7 55.5 40.7C55.5 37.6 53 35.2 50 35.2Z" fill="#89225A"/>
<path d="M35.9993 38.8C33.5993 38.8 31.5993 40.8 31.5993 43.2C31.5993 45.6 33.5993 49 35.9993 49C38.3993 49 40.3993 45.7 40.3993 43.2C40.3993 40.8 38.3993 38.8 35.9993 38.8ZM63.9993 38.8C61.5993 38.8 59.5993 40.8 59.5993 43.2C59.5993 45.6 61.5993 49 63.9993 49C66.3993 49 68.3993 45.7 68.3993 43.2C68.3993 40.8 66.4993 38.8 63.9993 38.8ZM36.2993 56.4C36.1993 54.5 36.5993 52.7 37.3993 51.1L35.9993 52.2L32.0993 49.4C31.7993 49.4 30.5993 49.5 30.1993 49.7C29.4993 50 28.9993 50.4 28.4993 50.9C27.1993 52.2 26.4993 54.1 26.5993 56L26.7993 60C26.8993 61.5 28.1993 62.7 29.6993 62.7H36.8993C36.7993 62.4 36.6993 62 36.6993 61.6L36.2993 56.4ZM71.5993 50.8C71.0993 50.3 70.4993 49.9 69.8993 49.6C69.4993 49.4 68.2993 49.3 67.9993 49.3L63.9993 52.2L62.5993 51.2C63.3993 52.8 63.7993 54.6 63.6993 56.5L63.2993 61.7C63.2993 62.1 63.1993 62.4 63.0993 62.8H70.2993C71.7993 62.8 73.0993 61.6 73.1993 60.1L73.4993 55.9C73.5993 53.9 72.8993 52.1 71.5993 50.8Z" fill="#89225A"/>
<path d="M61.7005 56.3C61.9005 53.9 61.0005 51.6 59.3005 50C58.7005 49.4 58.0005 48.9 57.1005 48.5C56.6005 48.3 55.1005 48.2 54.7005 48.2L50.0005 51.7L45.2005 48.2C44.8005 48.2 43.3005 48.3 42.8005 48.5C42.0005 48.9 41.3005 49.4 40.7005 50C39.1005 51.6 38.2005 53.9 38.3005 56.3L38.7005 61.5C38.8005 63.4 40.4005 64.8 42.3005 64.8H57.8005C59.7005 64.8 61.2005 63.3 61.4005 61.5L61.7005 56.3Z" fill="#89225A"/>
</svg>
