<svg width="100" height="100" viewBox="0 0 100 100" fill="none" xmlns="http://www.w3.org/2000/svg">
<rect width="100" height="100" rx="50" fill="#FCE5EE"/>
<path fill-rule="evenodd" clip-rule="evenodd" d="M34.25 43.625H30.5C29.879 43.625 29.375 44.129 29.375 44.75C29.375 46.673 29.639 48.536 30.1325 50.303C32.5595 58.9925 40.541 65.375 50 65.375C59.459 65.375 67.4405 58.9925 69.8675 50.303C70.361 48.536 70.625 46.673 70.625 44.75C70.625 44.129 70.121 43.625 69.5 43.625H65.75C65.129 43.625 64.625 44.129 64.625 44.75C64.625 45.371 65.129 45.875 65.75 45.875H68.3405C68.261 47.1905 68.0435 48.47 67.7 49.697C65.5385 57.4385 58.427 63.125 50 63.125C41.573 63.125 34.4615 57.4385 32.3 49.697C31.9565 48.47 31.739 47.1905 31.6595 45.875H34.25C34.871 45.875 35.375 45.371 35.375 44.75C35.375 44.129 34.871 43.625 34.25 43.625Z" fill="#89225A"/>
<path fill-rule="evenodd" clip-rule="evenodd" d="M58.917 61.2125C58.635 61.115 58.326 61.1345 58.0575 61.2665C55.6245 62.456 52.89 63.125 49.9995 63.125C47.109 63.125 44.3745 62.456 41.9415 61.2665C41.673 61.1345 41.364 61.115 41.082 61.2125L33.057 63.971C31.1355 64.6325 29.9715 66.5855 30.3075 68.591C30.642 70.595 32.3775 72.065 34.41 72.065H65.589C67.6215 72.065 69.357 70.595 69.6915 68.591C70.0275 66.5855 68.8635 64.6325 66.942 63.971L58.917 61.2125Z" fill="#89225A"/>
<path fill-rule="evenodd" clip-rule="evenodd" d="M45.233 28.559L45.7325 35.546C45.842 37.0925 45.164 38.5925 43.928 39.53C43.4345 39.905 43.1105 40.463 43.031 41.0765L42.935 41.801C42.929 41.852 42.92 41.9045 42.9095 41.954L45.2885 42.662C45.419 42.701 45.545 42.7505 45.668 42.809L47.969 43.904C49.1885 44.4845 49.769 45.8975 49.3085 47.168L47.2115 52.961C46.8665 53.9135 46.004 54.5825 44.996 54.68C43.988 54.7775 43.013 54.2855 42.4925 53.417C41.7755 52.2245 41.0195 50.963 40.673 50.3855C40.6415 50.333 40.5965 50.2895 40.544 50.258L39.0545 49.3625C37.859 48.647 37.433 47.1215 38.0825 45.8885L39.5225 43.154C39.5525 43.097 39.584 43.04 39.6185 42.986C39.569 42.941 39.5225 42.893 39.479 42.842L34.7885 37.4405C33.722 39.653 33.125 42.1325 33.125 44.75C33.125 54.0635 40.6865 61.625 50 61.625C57.836 61.625 64.433 56.2715 66.3275 49.025H57.239C56.399 49.025 55.577 48.7685 54.887 48.2885L52.5395 46.658C51.089 45.6515 50.5985 43.7315 51.3875 42.152C51.3875 42.152 51.551 41.8265 51.656 41.6165C51.761 41.405 52.0715 41.123 52.3535 41.0315C52.634 40.9415 57.4925 39.545 57.4925 39.545L59.186 36.2135L53.9975 38.4065C53.8595 38.465 53.711 38.495 53.5595 38.495C53.5595 38.495 53.2205 38.549 52.8545 38.246C52.8125 38.213 52.775 38.177 52.739 38.138L51.8345 37.1885C50.996 36.308 50.693 35.045 51.044 33.8795L52.7795 28.103C51.875 27.953 50.9465 27.875 50 27.875C48.3455 27.875 46.745 28.1135 45.233 28.559ZM41.513 44.2025C41.597 44.0435 41.78 43.967 41.9525 44.018L44.6465 44.819C44.666 44.825 44.684 44.8325 44.7005 44.84L47.0015 45.935C47.1755 46.019 47.258 46.22 47.1935 46.4015L45.095 52.1945C45.0455 52.331 44.9225 52.4255 44.7785 52.4405C44.6345 52.454 44.495 52.3835 44.4215 52.2605C43.7045 51.0665 42.9485 49.805 42.602 49.229C42.38 48.8585 42.071 48.5495 41.702 48.3275L40.211 47.4335C40.04 47.3315 39.98 47.114 40.073 46.937L41.513 44.2025ZM63.362 34.448L62.4005 34.8545L59.2775 41C59.1365 41.2775 58.886 41.4845 58.5875 41.5715L53.4515 43.0565L53.4005 43.1585C53.111 43.7375 53.291 44.441 53.822 44.81L56.1695 46.4405C56.4845 46.658 56.8565 46.775 57.239 46.775H66.755C66.8345 46.112 66.875 45.4355 66.875 44.75C66.875 40.8725 65.564 37.2995 63.362 34.448ZM43.0355 29.3765C40.16 30.683 37.715 32.7725 35.972 35.372L40.7825 40.9115L40.799 40.784C40.958 39.5735 41.594 38.477 42.5675 37.739C43.1975 37.2605 43.544 36.4955 43.4885 35.705L43.0355 29.3765ZM54.9725 28.6205L53.198 34.526C53.081 34.9175 53.1815 35.342 53.4635 35.6375L53.8385 36.0305L60.7685 33.1025L61.2425 32.1695C59.453 30.569 57.3215 29.345 54.9725 28.6205Z" fill="#89225A"/>
</svg>
