<svg width="81" height="80" viewBox="0 0 81 80" fill="none" xmlns="http://www.w3.org/2000/svg">
<path d="M63.1238 54.9409C62.9335 54.4696 62.1724 54.4696 61.9921 54.9409L59.9091 59.1129C59.7188 59.3035 59.5285 59.494 59.2481 59.5843L54.7014 60.2462C54.2307 60.3365 54.1306 60.7176 54.5111 61.0987L57.826 64.4182C57.826 64.4182 58.1064 64.699 58.0163 65.1804L57.2552 69.6332C57.1651 70.2049 57.7259 70.3954 58.0163 70.2049L62.1824 68.0286C62.4628 67.9383 62.6531 67.9383 62.9435 68.0286L67.1097 70.2049C67.3901 70.3954 67.9609 70.2049 67.8708 69.6332L67.1097 65.1804C67.0195 64.709 67.3 64.4182 67.3 64.4182L70.6148 61.0987C70.9954 60.7176 70.8952 60.3365 70.4246 60.2462L65.8779 59.5843C65.5975 59.494 65.4072 59.3035 65.2169 59.1129L63.1238 54.9409ZM17.677 54.9409C17.9574 54.4696 18.6284 54.4696 18.9088 54.9409L20.9919 59.1129C21.082 59.3035 21.2723 59.494 21.5627 59.5843L26.1094 60.2462C26.5801 60.3365 26.7703 60.7176 26.3898 61.0987L23.0749 64.4182C23.0749 64.4182 22.7945 64.699 22.7945 65.1804L23.5556 69.6332C23.6458 70.2049 23.1751 70.3954 22.7945 70.2049L18.6284 68.0286C18.4381 67.9383 18.1577 67.9383 17.8673 68.0286L13.7011 70.2049C13.4207 70.3954 12.94 70.2049 13.0402 69.6332L13.7011 65.1804C13.7913 64.709 13.5108 64.4182 13.5108 64.4182L10.196 61.0987C9.81541 60.7176 10.0057 60.3365 10.4764 60.2462L14.9229 59.5843C15.2033 59.494 15.4938 59.3035 15.5839 59.1129L17.677 54.9409ZM16.2549 54.1787L14.262 57.9696L10.186 58.6315C8.38331 58.9124 7.6322 60.9984 8.95415 62.3322L11.9886 65.2707L11.3276 69.3524C11.0472 71.1576 12.8399 72.5817 14.4522 71.629L18.2378 69.7335L22.0234 71.629C23.7259 72.5817 25.4284 71.1576 25.148 69.3524L24.487 65.2707L27.5215 62.3322C28.8434 61.0084 28.1824 58.9224 26.3898 58.6315L22.3138 57.9696L20.3209 54.1787C19.5698 52.5641 17.006 52.5641 16.2549 54.1787ZM40.781 60.7176C40.5907 60.6273 40.3103 60.6273 40.0198 60.7176L34.3415 63.656C33.4902 64.0371 32.7291 63.4655 32.8293 62.613L33.8708 56.355C33.9609 55.9739 33.6805 55.6931 33.6805 55.6931L29.0437 51.14C28.3827 50.4781 28.7633 49.5253 29.6145 49.4351L35.8637 48.4823C35.8637 48.3921 36.2443 48.2918 36.4346 48.011L39.3689 42.2243C39.5592 41.8432 40.0298 41.6527 40.4104 41.6527H40.5005C40.8811 41.6527 41.2617 41.8432 41.5421 42.2243L44.3863 48.011C44.5765 48.2918 44.9571 48.3921 45.0472 48.4823L51.2063 49.4351C52.1577 49.5253 52.4381 50.4781 51.7771 51.14L47.2304 55.6931C47.2304 55.6931 46.95 55.9739 46.95 56.355L47.9916 62.613C48.1818 63.4655 47.3306 64.0371 46.5695 63.656L40.781 60.7176ZM40.4004 7.61465C49.3035 7.61465 56.5942 14.8254 56.5942 23.8313C56.5942 32.747 49.3035 39.9578 40.4004 39.9578C31.4973 39.9578 24.2967 32.747 24.2967 23.8313C24.2967 14.8254 31.4973 7.61465 40.4004 7.61465ZM40.4004 15.1965C42.1029 15.1965 43.525 16.6206 43.525 18.3255C43.525 20.0304 42.1029 21.4545 40.4004 21.4545C38.6979 21.4545 37.2758 20.0304 37.2758 18.3255C37.2758 16.6206 38.6979 15.1965 40.4004 15.1965ZM40.4004 13.5919C37.7465 13.5919 35.6634 15.6779 35.6634 18.3355C35.6634 20.9932 37.7465 23.1694 40.4004 23.1694C43.0543 23.1694 45.2275 20.9932 45.2275 18.3355C45.2275 15.6779 43.0543 13.5919 40.4004 13.5919ZM37.1756 30.9418C34.9023 30.9418 33.4802 29.618 34.712 27.6223C35.4731 26.2984 37.4561 25.1552 40.3904 25.1552H40.5807C43.515 25.1552 45.3176 26.2884 46.1689 27.6223C47.4007 29.618 45.8885 30.9418 43.7053 30.9418H38.117H37.9268H37.1756ZM43.7153 32.6467C47.3106 32.6467 49.4938 29.7985 47.601 26.6695C46.5595 25.1552 44.4764 23.7311 41.3518 23.4502C41.0714 23.4502 40.781 23.4502 40.4004 23.4502C36.8051 23.4502 34.3415 24.9646 33.3 26.6695C31.4072 29.7985 33.5804 32.6467 37.1857 32.6467H43.7153ZM40.4004 11.887C46.93 11.887 52.2378 17.2023 52.2378 23.8313C52.2378 30.3702 46.93 35.6855 40.4004 35.6855C33.8708 35.6855 28.563 30.3702 28.563 23.8313C28.563 17.1922 33.8708 11.887 40.4004 11.887ZM40.4004 10.2723C32.9194 10.2723 26.8605 16.3398 26.8605 23.8313C26.8605 31.2327 32.9194 37.3001 40.4004 37.3001C47.8814 37.3001 53.9403 31.2327 53.9403 23.8313C53.9403 16.3398 47.8814 10.2723 40.4004 10.2723ZM62.563 30.3702C60.1995 30.3702 58.2967 32.2656 58.2967 34.6425C58.2967 37.0093 60.1895 38.9148 62.563 38.9148C64.9265 38.9148 66.8293 37.0193 66.8293 34.6425C66.8192 32.2757 64.9265 30.3702 62.563 30.3702ZM59.7188 47.1585C53.4696 47.1585 54.5111 39.005 62.563 39.005C70.6148 39.005 71.6564 47.1585 65.4072 47.1585H59.7188ZM59.7188 45.4536H65.3972C69.6634 45.4536 68.0511 40.6197 62.553 40.6197C57.0649 40.6197 55.4525 45.4536 59.7188 45.4536ZM62.563 32.0851C63.9851 32.0851 65.1167 33.2184 65.1167 34.6425C65.1167 36.0666 63.9851 37.1998 62.563 37.1998C61.1409 37.1998 59.9091 36.0666 59.9091 34.6425C59.9091 33.2184 61.1409 32.0851 62.563 32.0851ZM62.563 29.1466C68.1512 29.1466 72.788 33.6998 72.788 39.3861C72.788 44.9822 68.1512 49.5354 62.563 49.5354C56.9748 49.5354 52.3379 44.9822 52.3379 39.3861C52.3379 38.4334 52.5282 37.5809 52.7185 36.7285C54.421 35.1138 55.753 33.1281 56.6944 31.0421C58.3969 29.8086 60.3798 29.1466 62.563 29.1466ZM18.2378 27.532C11.7082 27.532 6.40039 32.8473 6.40039 39.3861C6.40039 45.925 11.7082 51.2403 18.2378 51.2403C24.7674 51.2403 30.1653 45.925 30.1653 39.3861C30.1653 39.005 30.0752 38.6239 30.0752 38.3431C32.3486 39.9578 35.0025 41.0008 37.8366 41.4721L35.0926 46.8777L29.4142 47.7302C27.0508 48.1113 26.2896 50.6686 27.902 52.2833L32.1683 56.5556L31.2169 62.3422C30.8363 64.6188 33.0195 66.1331 35.1026 65.0901L40.4104 62.4325L45.8083 65.0901C47.8013 66.1331 49.9745 64.6188 49.5939 62.3422L48.7427 56.5556L52.9088 52.2833C54.5212 50.6686 53.76 48.1113 51.4867 47.7302L45.7082 46.8777L42.9642 41.4721C45.8083 41.0008 48.4522 39.9578 50.7256 38.3431C50.7256 38.6239 50.7256 39.005 50.7256 39.3861C50.7256 45.925 56.0334 51.2403 62.563 51.2403C69.0926 51.2403 74.4004 45.925 74.4004 39.3861C74.4004 32.8473 69.0926 27.532 62.563 27.532C60.7603 27.532 59.0578 27.9131 57.5456 28.575C58.0163 27.0606 58.2066 25.446 58.2066 23.8313C58.2066 13.973 50.2449 6 40.4004 6C30.5559 6 22.5942 13.9629 22.5942 23.8313C22.5942 25.446 22.8746 27.0506 23.2552 28.575C21.743 27.9131 20.0405 27.532 18.2378 27.532ZM18.2378 30.3702C15.9645 30.3702 13.9715 32.2656 13.9715 34.6425C13.9715 37.0093 15.9645 38.9148 18.2378 38.9148C20.6013 38.9148 22.5942 37.0193 22.5942 34.6425C22.5942 32.2757 20.6113 30.3702 18.2378 30.3702ZM21.082 47.1585H15.4036C9.15444 47.1585 10.196 39.005 18.2478 39.005C26.2997 39.005 27.4313 47.1585 21.082 47.1585ZM21.082 45.4536C25.3483 45.4536 23.7359 40.6197 18.2378 40.6197C12.8399 40.6197 11.2275 45.4536 15.3936 45.4536H21.082ZM18.2378 32.0851C19.75 32.0851 20.8917 33.2184 20.8917 34.6425C20.8917 36.0666 19.76 37.1998 18.2378 37.1998C16.8157 37.1998 15.684 36.0666 15.684 34.6425C15.684 33.2184 16.8157 32.0851 18.2378 32.0851ZM18.2378 29.1466C20.411 29.1466 22.5041 29.8086 24.1064 31.0421C25.0578 33.1281 26.4699 35.1239 28.0823 36.6382C28.3627 37.4907 28.4628 38.4434 28.4628 39.3861C28.4628 44.9822 23.9162 49.5354 18.2378 49.5354C12.6496 49.5354 8.10289 44.9822 8.10289 39.3861C8.11291 33.6897 12.6496 29.1466 18.2378 29.1466ZM33.0095 72.2909L40.11 68.9713C40.3002 68.8811 40.4905 68.8811 40.7709 68.9713L47.7812 72.2909C48.2519 72.4814 48.7326 72.2909 48.9129 71.8195C49.1933 71.4384 49.003 70.9671 48.5324 70.6863L40.7709 66.9856C40.5807 66.8953 40.3002 66.8953 40.0098 66.9856L32.2484 70.6863C31.7777 70.9671 31.6776 71.4485 31.8678 71.8195C32.0681 72.2909 32.5388 72.4814 33.0095 72.2909ZM40.4004 70.586L33.6805 73.715C32.4487 74.3769 31.0266 73.8052 30.4658 72.5817C29.8048 71.2579 30.2755 69.8338 31.5974 69.2622L39.3589 65.5615C40.0198 65.2807 40.781 65.2807 41.4419 65.5615L49.2033 69.2622C50.5253 69.9241 51.006 71.2579 50.4352 72.5817C49.7742 73.8153 48.4422 74.3869 47.1203 73.715L40.4004 70.586ZM64.646 54.1787L66.5388 57.9696L70.6148 58.6315C72.4175 58.9124 73.1686 60.9984 71.8466 62.3322L68.8122 65.2707L69.4731 69.3524C69.7536 71.1576 68.0511 72.5817 66.3486 71.629L62.563 69.7335L58.7774 71.629C57.0749 72.5817 55.3724 71.1576 55.6528 69.3524L56.3138 65.2707L53.2793 62.3322C51.9574 61.0084 52.7085 58.9224 54.5111 58.6315L58.5871 57.9696L60.4799 54.1787C61.3312 52.5641 63.7948 52.5641 64.646 54.1787Z" fill="black"/>
</svg>
