<svg width="81" height="80" viewBox="0 0 81 80" fill="none" xmlns="http://www.w3.org/2000/svg">
<path d="M55.601 55.0115C53.6932 55.0115 52.732 57.3185 54.0777 58.6643C55.4235 60.01 57.7305 59.0488 57.7305 57.141C57.7305 55.9727 56.784 55.0115 55.601 55.0115ZM53.0277 54.5974C55.3052 52.32 59.2094 53.9467 59.2094 57.1558C59.2094 60.3649 55.3052 61.9917 53.0277 59.7142C51.6228 58.3093 51.6228 56.0023 53.0277 54.5974ZM57.9671 47.1735C59.0319 47.425 60.0375 47.839 60.9692 48.4158L62.1227 47.5433C62.4185 47.3214 62.8326 47.351 63.084 47.6172L65.1396 49.6728C65.4206 49.9538 65.4354 50.3827 65.1692 50.6784L64.3262 51.7876C64.903 52.7193 65.317 53.7249 65.5684 54.7897L67.0029 54.9819C67.3727 55.0263 67.6388 55.3516 67.6388 55.7066V58.6051C67.6388 59.0044 67.3283 59.315 66.9438 59.3445L65.5684 59.522C65.317 60.5868 64.8882 61.5924 64.3262 62.5241L65.1987 63.6776C65.4206 63.9734 65.391 64.3874 65.1396 64.6388L63.084 66.6945C62.8178 66.9606 62.4037 66.9754 62.1227 66.7684L60.9692 65.8959C60.0375 66.4726 59.0319 66.8867 57.9671 67.1381L57.7749 68.5726C57.7305 68.9423 57.4052 69.2085 57.0354 69.2085H54.1369C53.7376 69.2085 53.427 68.8979 53.3975 68.5134L53.22 67.1381C52.1404 66.8867 51.1348 66.4726 50.2031 65.8959L49.0644 66.7684C48.7539 67.005 48.325 66.9606 48.0736 66.6797L46.0475 64.6536C45.7814 64.3874 45.7518 63.9734 45.9736 63.6924L46.8461 62.5389C46.2694 61.6072 45.8553 60.6016 45.6039 59.5368L44.1694 59.3445C43.7997 59.3002 43.5335 58.9748 43.5335 58.6199V55.7213C43.5335 55.322 43.8441 55.0115 44.2286 54.9819L45.6039 54.8044C45.8553 53.7249 46.2694 52.734 46.8461 51.8024L45.9736 50.6489C45.7518 50.3531 45.7814 49.939 46.0475 49.6876L48.1032 47.632C48.3841 47.351 48.8278 47.3362 49.1088 47.5876L50.2179 48.4306C51.1496 47.8538 52.1552 47.4397 53.2348 47.1883L53.427 45.7538C53.4714 45.3841 53.7968 45.1179 54.1517 45.1179H57.0502C57.4495 45.1179 57.7601 45.4285 57.7897 45.813L57.9671 47.1735ZM58.958 49.0369C58.396 48.8003 57.8192 48.6376 57.2129 48.5193C56.8876 48.4749 56.6214 48.2235 56.577 47.8834L56.3995 46.582H54.7876L54.6101 47.8834C54.5658 48.194 54.3291 48.4602 54.0038 48.5045C52.8651 48.7116 51.5489 49.2292 50.6172 49.9094C50.351 50.1017 49.9961 50.1165 49.7299 49.9094L48.6799 49.1109L47.5412 50.2496L48.3398 51.2996C48.532 51.551 48.5468 51.8911 48.3546 52.1721C47.7039 53.1185 47.1271 54.4199 46.9496 55.5439C46.9053 55.8692 46.6539 56.1354 46.3137 56.1798L45.0123 56.3572V57.9692L46.3137 58.1467C46.6243 58.191 46.8757 58.4276 46.9349 58.753C47.1419 59.8917 47.6595 61.2079 48.3398 62.1396C48.532 62.391 48.5468 62.7607 48.3398 63.0269L47.5412 64.0769L48.6799 65.2156L49.7299 64.417C49.9813 64.2248 50.3214 64.21 50.5876 64.4022C51.5341 65.0529 52.8355 65.6297 53.9742 65.8071C54.2996 65.8515 54.5658 66.1029 54.6101 66.443L54.7876 67.7444H56.3995L56.577 66.443C56.6214 66.1325 56.858 65.8663 57.1833 65.8219C58.3221 65.6149 59.6382 65.0973 60.5699 64.417C60.8361 64.2248 61.191 64.21 61.472 64.417L62.522 65.2156L63.6607 64.0769L62.8621 63.0269C62.6699 62.7755 62.6551 62.4353 62.8474 62.1544C63.498 61.2079 64.0748 59.9065 64.2671 58.7826C64.3114 58.4572 64.5628 58.191 64.903 58.1467L66.2044 57.9692V56.3572L64.903 56.1798C64.5924 56.1354 64.3262 55.8988 64.2671 55.5735C64.06 54.4347 63.5424 53.1185 62.8769 52.1869C62.6847 51.9355 62.6699 51.5658 62.8769 51.2996L63.6755 50.2496L62.5368 49.1109L61.4868 49.9094C61.2354 50.1017 60.8805 50.1165 60.6143 49.9242C60.0819 49.5841 59.5347 49.2883 58.958 49.0369ZM55.601 41.7757C47.3046 41.7757 40.2209 48.4602 40.2209 57.1558C40.2209 65.6445 47.0975 72.5359 55.601 72.5359C64.0896 72.5359 70.9811 65.6593 70.9811 57.1558C70.9811 52.9115 69.2508 49.0665 66.4705 46.2862C63.6164 43.432 59.7418 41.7757 55.601 41.7757ZM43.6666 45.2362C44.2581 44.6447 44.894 44.0975 45.5595 43.6095L36.7308 45.532C36.716 45.532 36.6864 45.5468 36.6716 45.5468L27.0442 47.6468C32.6935 49.3031 36.7012 54.5087 36.7012 60.5572C36.7012 65.7036 33.7878 70.2733 29.3808 72.5359H48.6799C42.7201 69.8592 38.7272 63.9142 38.7272 57.1558C38.742 52.5122 40.6201 48.2827 43.6666 45.2362ZM51.5193 40.7997C52.8799 40.4595 54.3144 40.2821 55.7784 40.2969V21.0126C55.7784 20.6133 56.1038 20.2732 56.5178 20.2732H64.4297C64.829 20.2732 65.1692 20.5985 65.1692 21.0126V43.2694C73.8205 49.2439 74.974 61.6072 67.5205 69.0606C64.4741 72.1071 60.2594 74 55.601 74H23.2584C15.8197 74 9.80078 67.9663 9.80078 60.5424C9.80078 56.7122 11.3832 53.2664 13.9564 50.8115V39.8532C13.9564 39.4391 14.2817 39.1138 14.6958 39.1138H22.6077C23.007 39.1138 23.3471 39.4391 23.3471 39.8532V46.9369L27.902 45.9461V35.3575C27.902 34.9582 28.2273 34.6181 28.6414 34.6181H36.5533C36.9526 34.6181 37.2927 34.9434 37.2927 35.3575V43.9053L41.8476 42.9144V28.7026C41.8476 28.3033 42.1729 27.9632 42.587 27.9632H50.4989C50.8982 27.9632 51.2383 28.2886 51.2383 28.7026V40.8588L51.5193 40.7997ZM57.2573 40.3856C59.5643 40.6074 61.753 41.3025 63.6903 42.3673V21.7668H57.2573V40.3856ZM23.9978 56.7417C27.0295 57.3185 28.2125 61.1044 26.009 63.3079C23.7908 65.5114 20.0197 64.3283 19.4429 61.2966H15.7014C14.7254 61.2966 14.7254 59.8178 15.7014 59.8178H19.4429C19.7387 58.265 20.9661 57.0375 22.5189 56.7417V51.4622C22.5189 50.4862 23.9978 50.4862 23.9978 51.4622V56.7417ZM24.9591 58.8565C23.4506 57.3481 20.8478 58.4276 20.8478 60.5572C20.8478 62.7015 23.4358 63.7663 24.9591 62.2579C25.8907 61.3114 25.8907 59.7882 24.9591 58.8565ZM15.4352 49.5989C17.2838 48.2827 19.4873 47.4102 21.8682 47.1735V40.5926H15.4352V49.5989ZM31.7322 52.0834C29.3956 49.7468 26.1717 48.4158 22.652 48.5933C19.8126 48.7263 17.1803 49.8946 15.2134 51.6841C10.1261 56.3277 9.96346 64.1952 14.7993 69.0163C19.4725 73.6894 27.059 73.6894 31.747 69.0163C36.4054 64.3431 36.4054 56.7713 31.7322 52.0834ZM29.3808 45.6208L35.8139 44.2158V36.0821H29.3808V45.6208ZM43.3117 42.5891L49.7447 41.1842V29.4421H43.3117V42.5891ZM15.3317 33.8047C14.3704 33.9082 14.193 32.4441 15.169 32.3406C30.2386 30.6104 47.9996 22.4914 58.6178 11.2965L56.5474 9.35919C56.1481 8.97469 56.2664 8.26484 56.8728 8.10217L63.6755 6.03177C64.2227 5.86909 64.7403 6.35712 64.6072 6.90429L62.9952 13.8697C62.8621 14.4169 62.1819 14.6387 61.7678 14.2394L59.7122 12.3169C48.813 23.778 30.771 32.0153 15.3317 33.8047ZM62.3445 10.0395L62.8621 7.79161L58.4552 9.13737L61.8269 12.2873L62.3445 10.0395Z" fill="black"/>
</svg>
