<svg width="80" height="80" viewBox="0 0 80 80" fill="none" xmlns="http://www.w3.org/2000/svg">
<path fill-rule="evenodd" clip-rule="evenodd" d="M55.7931 52.3719L69.3661 47.5232C72.4586 46.4188 75.6328 50.1171 73.8226 53.1187C73.2629 53.9784 72.4739 54.6645 71.5446 55.0992L45.7071 68.0148C45.6242 68.0646 45.534 68.101 45.4397 68.1227C39.8643 69.4412 35.6821 68.9704 30.4943 68.3855C28.2286 68.1304 25.768 67.853 22.9367 67.6989L23.5818 70.302C23.6391 70.5392 23.6004 70.7893 23.4741 70.998C23.3478 71.2068 23.1441 71.3571 22.9075 71.4164L12.5811 73.9733C12.4638 74.0022 12.3419 74.0077 12.2224 73.9895C12.1029 73.9713 11.9882 73.9297 11.8848 73.8672C11.7814 73.8046 11.6913 73.7223 11.6197 73.625C11.5481 73.5276 11.4964 73.4171 11.4675 73.2998L5.02667 47.2935C4.99777 47.1761 4.99229 47.0542 5.01055 46.9347C5.0288 46.8152 5.07043 46.7004 5.13305 46.597C5.19567 46.4936 5.27806 46.4035 5.37551 46.332C5.47295 46.2604 5.58354 46.2088 5.70096 46.18L16.0273 43.6223C16.2645 43.5649 16.5146 43.6037 16.7233 43.7299C16.932 43.8562 17.0824 44.0599 17.1416 44.2966L17.6749 46.4543C19.816 44.4124 22.4503 42.961 25.3203 42.2421C26.4636 41.9306 27.6588 41.8574 28.8316 42.0271C30.0044 42.1968 31.1298 42.6057 32.138 43.2285C35.0078 44.9154 37.4653 47.1247 40.6195 48.2375C43.3799 49.2077 53.7748 48.7716 55.7931 52.3773V52.3719ZM16.5429 66.183C16.203 66.183 15.8707 66.2838 15.5881 66.4727C15.3055 66.6615 15.0853 66.9299 14.9552 67.2439C14.8251 67.5579 14.7911 67.9034 14.8574 68.2368C14.9237 68.5702 15.0874 68.8764 15.3277 69.1167C15.5681 69.357 15.8743 69.5207 16.2076 69.587C16.541 69.6533 16.8865 69.6193 17.2005 69.4892C17.5145 69.3592 17.7829 69.1389 17.9717 68.8563C18.1606 68.5737 18.2614 68.2414 18.2614 67.9015C18.2614 67.4458 18.0803 67.0087 17.758 66.6864C17.4358 66.3641 16.9986 66.183 16.5429 66.183ZM49.8816 29.3025C42.2147 29.3025 35.6513 35.1647 35.6513 42.7823C35.6513 43.0261 35.7481 43.2599 35.9205 43.4324C36.093 43.6048 36.3268 43.7016 36.5706 43.7016L63.1864 43.6978C63.4303 43.6978 63.6641 43.6009 63.8365 43.4285C64.0089 43.2561 64.1058 43.0223 64.1058 42.7784C64.1058 35.1569 57.5424 29.3025 49.8785 29.3025H49.8816ZM58.6598 34.5728C56.267 32.3702 53.1335 31.1476 49.8812 31.1476C46.6289 31.1476 43.4955 32.3702 41.1027 34.5728C39.053 36.4775 37.7821 39.0743 37.5354 41.8614H62.2316C61.983 39.0745 60.7104 36.4786 58.6598 34.5751V34.5728ZM49.8816 13.1903C51.1291 13.1897 52.356 13.5082 53.4457 14.1155C54.5354 14.7229 55.4517 15.5988 56.1073 16.6601C56.763 17.7214 57.1363 18.9328 57.1918 20.179C57.2473 21.4253 56.9831 22.665 56.4243 23.7804C55.8655 24.8958 55.0307 25.8496 53.9993 26.5514C52.9679 27.2531 51.7742 27.6794 50.5315 27.7897C49.2889 27.8999 48.0388 27.6905 46.8999 27.1814C45.761 26.6722 44.7713 25.8802 44.0249 24.8807C42.2915 26.4976 40.0784 27.5058 37.7208 27.7525C35.3632 27.9992 32.9893 27.4711 30.9587 26.248C28.9281 25.0249 27.3513 23.1735 26.4671 20.9741C25.5828 18.7747 25.4392 16.3471 26.0581 14.0588C26.6769 11.7705 28.0245 9.74612 29.8968 8.2922C31.769 6.83828 34.064 6.03397 36.4343 6.00105C38.8046 5.96813 41.121 6.7084 43.033 8.10976C44.9449 9.51113 46.3481 11.4973 47.0303 13.7675C47.9323 13.3855 48.9021 13.1892 49.8816 13.1903ZM43.087 23.2169C42.5015 21.7457 42.4087 20.1244 42.8226 18.596C43.2365 17.0677 44.1348 15.7147 45.3827 14.74C44.9029 12.7877 43.788 11.0502 42.2131 9.80048C40.6383 8.55081 38.6929 7.85986 36.6826 7.83624C34.6723 7.81263 32.7112 8.45768 31.1074 9.67001C29.5036 10.8823 28.3482 12.5932 27.8227 14.5337C27.2971 16.4743 27.4313 18.5344 28.2041 20.3904C28.9769 22.2463 30.3446 23.7928 32.092 24.7869C33.8395 25.7809 35.8678 26.1662 37.858 25.882C39.8482 25.5978 41.6876 24.6603 43.087 23.2169ZM53.7486 16.6381C52.9837 15.8722 52.0088 15.3505 50.9472 15.1389C49.8857 14.9272 48.7853 15.0352 47.7851 15.4491C46.785 15.8631 45.9301 16.5643 45.3286 17.4643C44.7271 18.3642 44.406 19.4223 44.406 20.5047C44.406 21.5871 44.7271 22.6452 45.3286 23.5451C45.9301 24.445 46.785 25.1463 47.7851 25.5602C48.7853 25.9742 49.8857 26.0822 50.9472 25.8705C52.0088 25.6589 52.9837 25.1371 53.7486 24.3713C54.7733 23.3454 55.3489 21.9547 55.3489 20.5047C55.3489 19.0547 54.7733 17.664 53.7486 16.6381ZM30.9674 18.5107L33.6369 21.1801C33.8102 21.3528 34.0449 21.4498 34.2896 21.4498C34.5343 21.4498 34.769 21.3528 34.9423 21.1801L42.1862 13.9363C42.2812 13.8528 42.3582 13.7508 42.4122 13.6364C42.4663 13.5221 42.4963 13.3979 42.5004 13.2715C42.5045 13.1451 42.4827 13.0191 42.4362 12.9015C42.3898 12.7839 42.3196 12.677 42.2302 12.5876C42.1408 12.4981 42.034 12.4279 41.9164 12.3814C41.7988 12.3348 41.6729 12.3129 41.5465 12.317C41.4201 12.321 41.2958 12.351 41.1815 12.405C41.0671 12.459 40.965 12.5358 40.8815 12.6308L34.288 19.2243L32.2713 17.2083C32.1888 17.1105 32.0869 17.0308 31.972 16.9743C31.8571 16.9179 31.7317 16.8859 31.6038 16.8804C31.4759 16.8749 31.3483 16.896 31.229 16.9425C31.1096 16.9889 31.0013 17.0595 30.9107 17.15C30.8201 17.2405 30.7493 17.3488 30.7028 17.468C30.6562 17.5873 30.6349 17.7149 30.6403 17.8428C30.6456 17.9707 30.6774 18.0961 30.7337 18.2111C30.7901 18.3261 30.8696 18.4281 30.9674 18.5107ZM20.8522 66.9421L15.575 45.632L7.03568 47.7466L13.0335 71.9643L21.572 69.8497L20.8522 66.9421ZM44.928 66.3503L70.7232 53.4585C71.8336 52.9029 72.8532 51.9173 72.3908 50.6226C72.2414 50.1302 71.9083 49.7142 71.4606 49.4607C71.0128 49.2072 70.4847 49.1356 69.9857 49.2609L56.0327 54.2453C55.9136 54.7317 55.72 55.1968 55.4586 55.624C54.2958 57.6014 52.38 57.1282 50.5266 57.1552C49.2238 57.1747 48.009 57.196 46.8823 57.2191C39.8142 57.354 36.2408 57.4218 31.0476 56.0987C30.8243 56.026 30.6371 55.8712 30.5238 55.6656C30.4105 55.46 30.3797 55.219 30.4375 54.9915C30.4954 54.764 30.6375 54.567 30.8353 54.4404C31.033 54.3139 31.2714 54.2673 31.5022 54.31C36.4766 55.5785 39.9614 55.5122 46.8538 55.3804C47.9674 55.3589 49.1703 55.3365 50.5043 55.3165C51.745 55.298 53.3417 55.5985 53.8735 54.6938C54.0114 54.5251 54.108 54.3265 54.1555 54.1138C54.2031 53.9011 54.2003 53.6803 54.1473 53.4689C54.0944 53.2575 53.9928 53.0614 53.8507 52.8963C53.7085 52.7311 53.5298 52.6014 53.3286 52.5176C50.3401 50.7613 42.5815 50.8723 40.0153 49.9699C36.5082 48.7369 34.1809 46.5591 31.2094 44.8121C30.4105 44.3144 29.5174 43.9872 28.586 43.851C27.6547 43.7148 26.7053 43.7726 25.7973 44.0207C22.8688 44.7436 20.2229 46.3246 18.1989 48.5612L22.4759 65.8324C25.6255 65.9827 28.2733 66.2809 30.6977 66.5545C35.679 67.1155 39.7017 67.5686 44.928 66.3503Z" fill="black"/>
</svg>
