<svg width="81" height="80" viewBox="0 0 81 80" fill="none" xmlns="http://www.w3.org/2000/svg">
<path d="M78.806 42.0606L64.6195 27.8951C64.4311 27.7076 64.1761 27.6024 63.9102 27.6024C63.6442 27.6024 63.3892 27.7076 63.2008 27.8951L57.7328 33.355C57.34 33.2286 56.9198 33.2128 56.5186 33.3092C56.1173 33.4056 55.7504 33.6106 55.4582 33.9016L52.5869 36.7687C52.1663 37.1891 51.9301 37.7591 51.9301 38.3533C51.9301 38.9475 52.1663 39.5174 52.5869 39.9379L53.5219 40.8715C52.1203 42.2566 50.3572 43.2206 48.4335 43.6536C46.5098 44.0865 44.503 43.971 42.6419 43.3201C40.6163 42.6411 38.8432 42.3449 35.7101 44.0644C33.1573 43.3242 30.8166 41.99 28.8804 40.1713L29.1124 39.9396C29.5326 39.5189 29.7685 38.9491 29.7685 38.355C29.7685 37.7609 29.5326 37.191 29.1124 36.7704L26.2411 33.9033C26.0331 33.6949 25.7857 33.5296 25.5133 33.4172C25.2409 33.3047 24.9489 33.2472 24.6542 33.2481C24.4205 33.2486 24.1883 33.2849 23.9657 33.3559L18.4942 27.8943C18.3061 27.7068 18.0511 27.6016 17.7853 27.6016C17.5196 27.6016 17.2646 27.7068 17.0764 27.8943L2.89418 42.0597C2.80082 42.1526 2.72673 42.263 2.67618 42.3845C2.62563 42.5061 2.59961 42.6364 2.59961 42.768C2.59961 42.8996 2.62563 43.0299 2.67618 43.1515C2.72673 43.273 2.80082 43.3834 2.89418 43.4763L8.36223 48.9362C8.23519 49.3286 8.21907 49.7483 8.31566 50.1492C8.41225 50.5501 8.61779 50.9166 8.90963 51.2083L11.7792 54.0753C12.2005 54.4948 12.7712 54.7304 13.3662 54.7304C13.9612 54.7304 14.5318 54.4948 14.9531 54.0753L16.1474 52.8871C17.5522 54.2192 18.8391 55.67 19.9936 57.2233C19.7471 57.6624 19.6085 58.1537 19.5893 58.6568C19.5701 59.1598 19.6709 59.6602 19.8833 60.1168C20.0957 60.5734 20.4136 60.973 20.811 61.2829C21.2083 61.5927 21.6737 61.8039 22.1688 61.899C22.0963 62.1687 22.0592 62.4465 22.0583 62.7257C22.0562 63.4189 22.2825 64.0936 22.7023 64.6457C23.1221 65.1979 23.7121 65.5968 24.3813 65.7812C24.1068 66.3723 24.0204 67.0332 24.1337 67.6749C24.2471 68.3165 24.5549 68.9081 25.0154 69.3696C25.5956 69.9479 26.3765 70.2808 27.1961 70.2989C28.0156 70.3171 28.8106 70.0192 29.4159 69.4672C29.5954 69.9733 29.9003 70.4258 30.3023 70.7825C30.7042 71.1392 31.19 71.3885 31.7144 71.5071C32.2388 71.6257 32.7848 71.6098 33.3014 71.4609C33.818 71.312 34.2885 71.0349 34.6689 70.6555L35.7407 69.5861L39.2257 73.0659C39.6196 73.4602 40.1102 73.7443 40.6486 73.8897C41.187 74.0351 41.7542 74.0368 42.2934 73.8944C42.8326 73.7521 43.3248 73.4708 43.7209 73.0787C44.117 72.6866 44.4029 72.1975 44.5501 71.6604C44.9757 71.8515 45.4382 71.9467 45.9048 71.939C46.3714 71.9313 46.8305 71.821 47.2495 71.616C47.6686 71.411 48.0372 71.1162 48.3291 70.7528C48.6211 70.3893 48.8292 69.966 48.9387 69.5131C49.3596 69.6717 49.8094 69.7391 50.2584 69.7109C50.7074 69.6827 51.1452 69.5595 51.5428 69.3494C51.9405 69.1394 52.2889 68.8473 52.5648 68.4926C52.8408 68.1379 53.0381 67.7286 53.1436 67.2919C53.4999 67.4244 53.877 67.4925 54.2571 67.4931C54.7782 67.4939 55.2914 67.367 55.7519 67.1235C56.2123 66.8801 56.6059 66.5274 56.898 66.0966C57.1901 65.6659 57.3719 65.1701 57.4273 64.6527C57.4828 64.1354 57.4102 63.6125 57.216 63.1297C59.7587 59.5388 62.664 56.2181 65.886 53.2198L66.736 54.0686C67.1576 54.4877 67.7284 54.723 68.3234 54.723C68.9183 54.723 69.4891 54.4877 69.9107 54.0686L72.7905 51.2049C73.0818 50.9128 73.287 50.5463 73.3835 50.1456C73.4801 49.7448 73.4643 49.3252 73.3379 48.9328L78.806 43.4729C78.9926 43.2851 79.0974 43.0313 79.0974 42.7667C79.0974 42.5022 78.9926 42.2483 78.806 42.0606ZM17.7887 29.7691L22.4969 34.4703L9.47828 47.4704L4.77013 42.7684L17.7887 29.7691ZM13.6611 52.7844C13.582 52.8601 13.4766 52.9024 13.367 52.9024C13.2574 52.9024 13.1521 52.8601 13.0729 52.7844L10.2016 49.9174C10.1258 49.8384 10.0834 49.7331 10.0834 49.6237C10.0834 49.5143 10.1258 49.409 10.2016 49.33L24.3592 35.1926C24.4384 35.1168 24.5437 35.0746 24.6533 35.0746C24.7629 35.0746 24.8683 35.1168 24.9474 35.1926L27.8187 38.0596C27.8946 38.1386 27.9369 38.2438 27.9369 38.3533C27.9369 38.4627 27.8946 38.5679 27.8187 38.6469L13.6611 52.7844ZM21.8092 57.8183L25.5254 54.1076C25.7812 53.8548 26.1265 53.713 26.4864 53.713C26.8462 53.713 27.1915 53.8548 27.4473 54.1076C27.6721 54.3361 27.8096 54.636 27.8362 54.9552C27.8627 55.2743 27.7766 55.5927 27.5926 55.8552C27.5756 55.8789 27.5603 55.9035 27.5459 55.9281L23.5815 59.8858C23.5414 59.9025 23.5025 59.9218 23.465 59.9435C23.1808 60.1073 22.8469 60.1629 22.5248 60.1002C22.2027 60.0374 21.9142 59.8605 21.7125 59.602C21.5108 59.3435 21.4095 59.021 21.4273 58.6938C21.4451 58.3666 21.5807 58.0568 21.8092 57.8217V57.8183ZM23.8866 62.7291C23.8857 62.5509 23.9202 62.3744 23.988 62.2096C24.0559 62.0449 24.1557 61.8952 24.2819 61.7692L29.483 56.5766C29.7357 56.3367 30.0709 56.2028 30.4196 56.2027C30.7682 56.2025 31.1036 56.336 31.3565 56.5757C31.6093 56.8153 31.7604 57.1428 31.7784 57.4904C31.7964 57.8381 31.6801 58.1794 31.4533 58.4438L31.4465 58.4531L26.1527 63.7391L26.1281 63.7586C25.8675 63.98 25.5332 64.0957 25.1912 64.0826C24.8493 64.0696 24.5248 63.9288 24.2819 63.6882C24.1557 63.5624 24.0558 63.4128 23.988 63.2482C23.9201 63.0836 23.8857 62.9071 23.8866 62.7291ZM26.3083 68.0846C26.0537 67.83 25.9107 67.4849 25.9107 67.1251C25.9107 66.7653 26.0537 66.4203 26.3083 66.1656L33.886 58.6C34.0103 58.4657 34.1605 58.3579 34.3275 58.283C34.4945 58.2081 34.6749 58.1677 34.858 58.1641C35.0411 58.1605 35.223 58.1939 35.3928 58.2622C35.5626 58.3305 35.7169 58.4323 35.8464 58.5616C35.9758 58.6908 36.0778 58.8449 36.1462 59.0145C36.2146 59.184 36.248 59.3657 36.2444 59.5485C36.2408 59.7312 36.2003 59.9114 36.1253 60.0782C36.0503 60.2449 35.9423 60.3949 35.8079 60.519L28.2301 68.0846C27.9751 68.3389 27.6295 68.4816 27.2692 68.4816C26.9089 68.4816 26.5633 68.3389 26.3083 68.0846ZM33.376 69.3679C33.118 69.6062 32.7775 69.7354 32.4262 69.7285C32.0748 69.7216 31.7397 69.5792 31.4912 69.331C31.2427 69.0829 31.1 68.7483 31.0931 68.3974C31.0862 68.0465 31.2156 67.7066 31.4542 67.4489L35.1695 63.7391C35.4279 63.503 35.7675 63.3755 36.1176 63.3833C36.4678 63.391 36.8014 63.5332 37.0491 63.7805C37.2968 64.0277 37.4395 64.3608 37.4473 64.7104C37.4552 65.06 37.3277 65.3992 37.0914 65.6572L33.376 69.3679ZM55.221 65.2787C54.966 65.5329 54.6204 65.6757 54.2601 65.6757C53.8998 65.6757 53.5542 65.5329 53.2992 65.2787L48.1227 60.1107C48.0388 60.0217 47.9378 59.9504 47.8258 59.9011C47.7138 59.8518 47.593 59.8254 47.4705 59.8236C47.3481 59.8217 47.2266 59.8444 47.1131 59.8904C46.9997 59.9363 46.8966 60.0045 46.81 60.0909C46.7234 60.1774 46.6551 60.2803 46.6091 60.3936C46.5631 60.5069 46.5404 60.6283 46.5422 60.7505C46.5441 60.8727 46.5705 60.9933 46.6199 61.1052C46.6693 61.2171 46.7407 61.3179 46.8298 61.4017L51.0161 65.5809C51.2573 65.8381 51.3889 66.1789 51.3831 66.5312C51.3773 66.8835 51.2346 67.2198 50.9852 67.469C50.7357 67.7182 50.399 67.8609 50.0461 67.8668C49.6933 67.8727 49.352 67.7414 49.0942 67.5007L44.4133 62.8267C44.2417 62.6554 44.009 62.5592 43.7664 62.5592C43.5238 62.5592 43.2911 62.6554 43.1196 62.8267C42.948 62.998 42.8517 63.2303 42.8517 63.4726C42.8517 63.7148 42.948 63.9472 43.1196 64.1185L46.8103 67.8029C47.0489 68.0606 47.1783 68.4005 47.1714 68.7513C47.1645 69.1022 47.0218 69.4368 46.7733 69.6849C46.5248 69.9331 46.1897 70.0755 45.8383 70.0824C45.4869 70.0893 45.1465 69.9601 44.8884 69.7219L41.0252 65.8626C40.8528 65.6958 40.6217 65.6034 40.3817 65.6052C40.1416 65.607 39.9119 65.703 39.7421 65.8724C39.5724 66.0419 39.4761 66.2712 39.4741 66.5108C39.4721 66.7505 39.5645 66.9814 39.7315 67.1536L42.4447 69.8619C42.6856 70.1193 42.817 70.4602 42.8109 70.8125C42.8048 71.1649 42.6618 71.501 42.4121 71.75C42.1624 71.999 41.8256 72.1414 41.4727 72.147C41.1199 72.1526 40.7786 72.021 40.5211 71.7801L37.0361 68.3002L38.3876 66.9516C38.7689 66.5722 39.0476 66.1025 39.1975 65.5863C39.3474 65.0701 39.3637 64.5243 39.2448 64.0001C39.1259 63.4759 38.8757 62.9904 38.5176 62.5891C38.1596 62.1878 37.7054 61.8838 37.1976 61.7055C37.6152 61.2506 37.891 60.6842 37.9914 60.0754C38.0918 59.4666 38.0125 58.8417 37.7632 58.2772C37.5139 57.7126 37.1053 57.2328 36.5873 56.8963C36.0694 56.5597 35.4645 56.3811 34.8465 56.3822C34.3848 56.3824 33.9287 56.4826 33.5095 56.6759C33.2839 55.8693 32.748 55.1845 32.0186 54.7711C31.2893 54.3577 30.4257 54.2491 29.6165 54.4692C29.5067 53.9018 29.2443 53.375 28.8576 52.9452C28.471 52.5153 27.9744 52.1986 27.4213 52.0289C26.8681 51.8592 26.2792 51.8429 25.7175 51.9818C25.1558 52.1208 24.6425 52.4096 24.2326 52.8175L21.2363 55.8085C20.0762 54.3124 18.808 52.9031 17.4419 51.5919L27.5833 41.4648C29.3724 43.1013 31.4359 44.4108 33.6795 45.3333C31.7466 46.7102 29.8967 48.1994 28.1392 49.7934C28.0081 49.9095 27.9133 50.0608 27.866 50.2292C27.8186 50.3976 27.8208 50.576 27.8723 50.7432C28.2352 51.922 29.0469 52.9115 30.133 53.4987C31.219 54.086 32.4925 54.2242 33.6795 53.8835C35.3111 53.4701 36.8731 52.8195 38.3154 51.9526C39.8318 51.1404 41.5505 50.2212 42.1404 50.688C42.3822 51.0728 42.5795 51.4836 42.7286 51.9128C43.5199 53.8521 44.8867 57.1987 49.0704 57.214L55.2253 63.3597C55.4791 63.6148 55.6211 63.9601 55.6203 64.3197C55.6195 64.6792 55.4759 65.0247 55.221 65.2787ZM56.0515 61.6062L51.368 56.9305C51.4827 56.9033 51.6 56.8745 51.7182 56.8456C51.8361 56.8168 51.9471 56.7648 52.0447 56.6927C52.1423 56.6206 52.2246 56.5298 52.2867 56.4256C52.3488 56.3215 52.3895 56.206 52.4064 56.0859C52.4233 55.9659 52.4161 55.8437 52.3853 55.7264C52.3544 55.6092 52.3005 55.4992 52.2266 55.403C52.1527 55.3068 52.0604 55.2262 51.9551 55.166C51.8497 55.1058 51.7334 55.0671 51.6129 55.0522C51.4924 55.0374 51.3701 55.0466 51.2532 55.0794C46.5 56.327 45.3457 53.4982 44.4175 51.2253C44.2023 50.493 43.8133 49.8234 43.2836 49.2732C41.7536 48.0476 39.6618 49.1654 37.4518 50.3494C36.1618 51.1324 34.7641 51.7229 33.3029 52.102C33.2688 52.1085 33.2351 52.1167 33.2018 52.1266C32.5667 52.3162 31.8856 52.2817 31.2731 52.0288C30.6605 51.7759 30.1539 51.3201 29.8383 50.7381C37.9091 43.6664 39.8377 44.3114 42.063 45.0566C44.2453 45.8192 46.5984 45.953 48.8532 45.4426C51.108 44.9323 53.1734 43.7985 54.813 42.1709L64.5999 51.9331C61.4477 54.8773 58.5852 58.117 56.0515 61.6062ZM71.4968 49.9174L68.6255 52.7844C68.5464 52.8601 68.441 52.9024 68.3314 52.9024C68.2218 52.9024 68.1165 52.8601 68.0373 52.7844L53.8797 38.6435C53.8039 38.5645 53.7615 38.4593 53.7615 38.3499C53.7615 38.2404 53.8039 38.1352 53.8797 38.0562L56.751 35.1892C56.8302 35.1134 56.9355 35.0712 57.0451 35.0712C57.1547 35.0712 57.2601 35.1134 57.3392 35.1892L71.4968 49.33C71.5741 49.4083 71.6174 49.5138 71.6174 49.6237C71.6174 49.7336 71.5741 49.8391 71.4968 49.9174ZM72.2202 47.4696L59.2016 34.4703L63.9097 29.7691L76.9292 42.7684L72.2202 47.4696ZM30.7512 30.2673C34.3085 32.323 37.8122 36.3418 40.1242 39.3489C40.2096 39.4599 40.3194 39.5499 40.4452 39.6118C40.571 39.6738 40.7094 39.706 40.8497 39.706C40.9899 39.706 41.1283 39.6738 41.2541 39.6118C41.3799 39.5499 41.4897 39.4599 41.5751 39.3489C43.8871 36.3392 47.39 32.3204 50.9481 30.2673C53.3362 28.8291 55.2961 26.7799 56.6251 24.3316C57.954 21.8834 58.6038 19.1251 58.5071 16.342C58.4315 14.2907 57.7668 12.3044 56.5922 10.6197C55.4176 8.93507 53.7826 7.62318 51.8822 6.8404C50.0531 6.04309 48.028 5.80612 46.0637 6.15955C44.0995 6.51298 42.2846 7.44089 40.8492 8.8256C39.414 7.44086 37.5993 6.51293 35.6352 6.15949C33.6711 5.80606 31.6461 6.04305 29.8171 6.8404C27.9165 7.62301 26.2815 8.93485 25.1069 10.6195C23.9322 12.3042 23.2676 14.2907 23.1922 16.342C23.0952 19.1252 23.7448 21.8836 25.0738 24.3319C26.4028 26.7802 28.3629 28.8293 30.7512 30.2673ZM25.018 16.449C25.0664 14.7335 25.6148 13.0693 26.5962 11.6604C27.5775 10.2515 28.9492 9.15893 30.543 8.51666C32.1726 7.80757 33.9876 7.64178 35.719 8.04386C37.4503 8.44595 39.0058 9.3945 40.1548 10.7488C40.2406 10.8494 40.3472 10.9302 40.4673 10.9856C40.5874 11.0411 40.7182 11.0697 40.8505 11.0697C40.9828 11.0697 41.1136 11.0411 41.2337 10.9856C41.3538 10.9302 41.4604 10.8494 41.5462 10.7488C42.6943 9.39354 44.2494 8.44403 45.9808 8.0413C47.7122 7.63857 49.5275 7.80408 51.1572 8.51327C52.7506 9.15608 54.1219 10.2487 55.1031 11.6576C56.0844 13.0664 56.6331 14.7303 56.6822 16.4456C56.7665 18.8929 56.1942 21.3183 55.0245 23.4706C53.8548 25.6228 52.1302 27.4238 50.0292 28.687C47.1766 30.3352 44.0911 33.2345 40.8492 37.3119C37.6056 33.2379 34.5201 30.3352 31.6692 28.687C29.5692 27.4238 27.8453 25.6233 26.6759 23.4717C25.5065 21.3201 24.9342 18.8956 25.018 16.449Z" fill="black"/>
</svg>
