<svg width="81" height="80" viewBox="0 0 81 80" fill="none" xmlns="http://www.w3.org/2000/svg">
<path d="M51.6177 30.4939C51.4892 30.0967 51.1449 29.8096 50.7315 29.7545L44.5401 28.9417L41.847 23.3753C41.4865 22.6305 40.2635 22.6305 39.903 23.3753L37.211 28.9428L31.0206 29.7556C30.6072 29.8096 30.2618 30.0978 30.1345 30.495C30.0071 30.8922 30.1183 31.3272 30.4227 31.6132L34.941 35.8628L33.812 41.9247C33.7353 42.3327 33.9005 42.7483 34.2362 42.9922C34.5718 43.2394 35.0187 43.2707 35.3836 43.0721L40.8755 40.1297L46.3696 43.0732C46.7431 43.2729 47.1878 43.2329 47.517 42.9933C47.8527 42.7472 48.0168 42.3327 47.9412 41.9247L46.8122 35.8617L51.3305 31.6122C51.6339 31.3261 51.745 30.8911 51.6177 30.4939ZM44.9017 34.6928C44.634 34.9443 44.5142 35.3156 44.5811 35.6772L45.4057 40.107L41.3839 37.9536C41.0655 37.782 40.6834 37.782 40.365 37.9536L36.3431 40.107L37.1678 35.6772C37.2358 35.3156 37.1138 34.9453 36.8461 34.6928L33.5572 31.5992L38.068 31.0077C38.4285 30.9602 38.7405 30.7346 38.8991 30.4076L40.8755 26.3242L42.8497 30.4076C43.0084 30.7346 43.3214 30.9602 43.6819 31.0077L48.1917 31.5992L44.9017 34.6928ZM58.1458 34.0624C58.1458 24.54 50.3979 16.7921 40.8755 16.7921C31.3531 16.7921 23.6052 24.54 23.6052 34.0624C23.6052 43.5848 31.3531 51.3327 40.8755 51.3327C50.3979 51.3327 58.1458 43.5848 58.1458 34.0624ZM40.8755 49.1739C32.5426 49.1739 25.764 42.3964 25.764 34.0624C25.764 25.7295 32.5426 18.9509 40.8755 18.9509C49.2095 18.9509 55.9871 25.7295 55.9871 34.0624C55.9871 42.3964 49.2095 49.1739 40.8755 49.1739ZM74.0205 60.2841L61.2858 47.5494L67.1728 43.2718C67.5528 42.9965 67.7104 42.5097 67.5646 42.065L64.9633 34.0613L67.5646 26.0565C67.7104 25.6118 67.5506 25.125 67.1728 24.8497L60.3629 19.9029L57.7637 11.8992C57.618 11.4545 57.2035 11.1533 56.7372 11.1533H48.319L41.5091 6.20643C41.1303 5.93119 40.6186 5.93119 40.2398 6.20643L33.4298 11.1533H25.0127C24.5453 11.1533 24.1309 11.4545 23.9862 11.8992L21.3849 19.9029L14.575 24.8497C14.1961 25.125 14.0385 25.6118 14.1832 26.0565L16.7845 34.0602L14.1832 42.065C14.0385 42.5097 14.1972 42.9965 14.575 43.2718L20.462 47.5483L7.73053 60.2841C7.42182 60.5928 7.32899 61.057 7.4963 61.4607C7.66361 61.8633 8.05759 62.1267 8.49366 62.1267H19.2876V72.9206C19.2876 73.3567 19.551 73.7517 19.9536 73.918C20.3681 74.0874 20.8268 73.9871 21.1301 73.6837L35.9869 58.827L40.2398 61.9173C40.6175 62.1914 41.1313 62.1914 41.5091 61.9173L45.7619 58.8248L60.6209 73.6837C60.9188 73.9817 61.3765 74.0896 61.7974 73.918C62.2001 73.7517 62.4634 73.3567 62.4634 72.9206V62.1267H73.2574C73.6935 62.1267 74.0885 61.8633 74.2547 61.4607C74.422 61.057 74.3292 60.5928 74.0205 60.2841ZM21.4464 70.3149V61.0473C21.4464 60.4514 20.9628 59.9679 20.367 59.9679H11.0993L21.7443 49.324L23.9873 56.2256C24.1319 56.6692 24.5464 56.9704 25.0138 56.9704H33.4309L34.2189 57.5435L21.4464 70.3149ZM40.8744 59.7099L34.4153 55.0178C34.2308 54.8839 34.0084 54.8116 33.7807 54.8116H25.7974L23.331 47.2202C23.2609 47.0043 23.1238 46.8154 22.9392 46.6805L16.4812 41.9895L18.9487 34.397C19.0188 34.18 19.0188 33.9469 18.9487 33.7299L16.4812 26.1385L22.9403 21.4464C23.1249 21.3126 23.2619 21.1237 23.3321 20.9067L25.7996 13.3153H33.7828C34.0106 13.3153 34.2329 13.243 34.4175 13.1092L40.8766 8.41596L47.3346 13.1081C47.5203 13.2419 47.7416 13.3143 47.9704 13.3143H55.9536L58.42 20.9056C58.4891 21.1226 58.6262 21.3115 58.8118 21.4453L65.2688 26.1364L62.8024 33.7289C62.7322 33.9458 62.7322 34.179 62.8024 34.3959L65.2688 41.9873L58.8097 46.6805C58.624 46.8133 58.4869 47.0033 58.4178 47.2202L55.9504 54.8116H47.9671C47.7394 54.8116 47.516 54.8828 47.3325 55.0167L40.8744 59.7099ZM61.384 59.9679C60.7882 59.9679 60.3046 60.4514 60.3046 61.0473V70.3149L47.5311 57.5414L48.3179 56.9704H56.7362C57.2035 56.9704 57.6169 56.6692 57.7627 56.2245L60.0056 49.3218L70.6517 59.9679H61.384Z" fill="black"/>
</svg>
