<svg width="60" height="60" viewBox="0 0 60 60" fill="none" xmlns="http://www.w3.org/2000/svg">
<rect width="60" height="60" rx="30" fill="#FCE5EE"/>
<path d="M25.4696 33.4697C25.1767 33.7626 25.1767 34.2375 25.4696 34.5304C25.7625 34.8233 26.2374 34.8233 26.5303 34.5304L25.4696 33.4697ZM34.0728 26.9879C34.3657 26.695 34.3657 26.2201 34.0728 25.9272C33.7799 25.6343 33.305 25.6343 33.0121 25.9272L34.0728 26.9879ZM21.4597 20.692L21.2774 21.4195L21.4597 20.692ZM26.2091 17.95L26.9303 18.1558L26.2091 17.95ZM17.6689 27.258L17.13 27.7796L17.6689 27.258ZM17.6689 32.7421L17.13 32.2204L17.6689 32.7421ZM21.4597 39.3081L21.2774 38.5806L21.4597 39.3081ZM26.2091 42.0501L26.9303 41.8443L26.2091 42.0501ZM33.7908 42.0501L33.0696 41.8443L33.7908 42.0501ZM38.5402 39.3081L38.7226 38.5806L38.5402 39.3081ZM42.3311 32.7421L42.8699 32.2204L42.3311 32.7421ZM42.3311 27.258L42.8699 27.7796L42.3311 27.258ZM38.5402 20.692L38.7226 21.4195L38.5402 20.692ZM33.7908 17.95L33.0696 18.1558L33.7908 17.95ZM26.5303 34.5304L34.0728 26.9879L33.0121 25.9272L25.4696 33.4697L26.5303 34.5304ZM21.2774 21.4195C23.7336 22.0352 26.2354 20.5908 26.9303 18.1558L25.4879 17.7441C25.0151 19.4008 23.3131 20.3834 21.6421 19.9645L21.2774 21.4195ZM18.2077 26.7363C15.9739 24.4289 18.1622 20.6386 21.2774 21.4195L21.6421 19.9645C17.0631 18.8167 13.8465 24.388 17.13 27.7796L18.2077 26.7363ZM18.2077 33.2638C19.9691 31.4444 19.9691 28.5557 18.2077 26.7363L17.13 27.7796C18.3283 29.0174 18.3283 30.9827 17.13 32.2204L18.2077 33.2638ZM21.2774 38.5806C18.1622 39.3614 15.9739 35.5711 18.2077 33.2638L17.13 32.2204C13.8465 35.612 17.0631 41.1833 21.6421 40.0355L21.2774 38.5806ZM26.9303 41.8443C26.2354 39.4092 23.7336 37.9649 21.2774 38.5806L21.6421 40.0355C23.3131 39.6167 25.0151 40.5993 25.4879 42.2559L26.9303 41.8443ZM33.0696 41.8443C32.1883 44.9325 27.8116 44.9325 26.9303 41.8443L25.4879 42.2559C26.7834 46.7953 33.2166 46.7953 34.512 42.2559L33.0696 41.8443ZM38.7226 38.5806C36.2663 37.9649 33.7646 39.4092 33.0696 41.8443L34.512 42.2559C34.9848 40.5993 36.6868 39.6167 38.3578 40.0355L38.7226 38.5806ZM41.7922 33.2638C44.026 35.5711 41.8377 39.3614 38.7226 38.5806L38.3578 40.0355C42.9368 41.1833 46.1534 35.612 42.8699 32.2204L41.7922 33.2638ZM41.7922 26.7363C40.0309 28.5557 40.0309 31.4444 41.7922 33.2638L42.8699 32.2204C41.6716 30.9827 41.6716 29.0174 42.8699 27.7796L41.7922 26.7363ZM38.7226 21.4195C41.8377 20.6386 44.026 24.4289 41.7922 26.7363L42.8699 27.7796C46.1534 24.388 42.9368 18.8167 38.3578 19.9645L38.7226 21.4195ZM33.0696 18.1558C33.7646 20.5908 36.2663 22.0352 38.7226 21.4195L38.3578 19.9645C36.6868 20.3834 34.9848 19.4008 34.512 17.7441L33.0696 18.1558ZM34.512 17.7441C33.2166 13.2048 26.7834 13.2048 25.4879 17.7441L26.9303 18.1558C27.8116 15.0675 32.1883 15.0675 33.0696 18.1558L34.512 17.7441Z" fill="#89225A"/>
<path d="M24.666 26.0001C24.666 26.7365 25.263 27.3334 25.9993 27.3334C26.7357 27.3334 27.3327 26.7365 27.3327 26.0001C27.3327 25.2637 26.7357 24.6667 25.9993 24.6667C25.263 24.6667 24.666 25.2637 24.666 26.0001Z" fill="#89225A"/>
<path d="M32.666 34.0001C32.666 34.7365 33.263 35.3334 33.9993 35.3334C34.7357 35.3334 35.3327 34.7365 35.3327 34.0001C35.3327 33.2637 34.7357 32.6667 33.9993 32.6667C33.263 32.6667 32.666 33.2637 32.666 34.0001Z" fill="#89225A"/>
</svg>
