<svg width="61" height="60" viewBox="0 0 61 60" fill="none" xmlns="http://www.w3.org/2000/svg">
<rect x="0.333984" width="60" height="60" rx="30" fill="#FCE5EE"/>
<path d="M32.1546 17.1531C33.0418 17.7596 34.1092 18.0456 35.1807 17.9639C36.5066 17.8629 37.7587 18.5858 38.3341 19.7845C38.7992 20.7534 39.5806 21.5348 40.5494 21.9999C41.7482 22.5753 42.4711 23.8273 42.37 25.1532C42.2884 26.2248 42.5744 27.2922 43.1809 28.1794C43.9313 29.2771 43.9313 30.7229 43.1809 31.8206C42.5744 32.7078 42.2884 33.7752 42.37 34.8468C42.4711 36.1727 41.7482 37.4247 40.5494 38.0002C39.5806 38.4652 38.7992 39.2466 38.3341 40.2155C37.7587 41.4142 36.5066 42.1371 35.1807 42.0361C34.1092 41.9544 33.0418 42.2404 32.1546 42.8469C31.0568 43.5973 29.6111 43.5973 28.5134 42.8469C27.6262 42.2404 26.5588 41.9544 25.4872 42.0361C24.1613 42.1371 22.9093 41.4142 22.3338 40.2155C21.8688 39.2466 21.0874 38.4652 20.1185 38.0002C18.9198 37.4247 18.1969 36.1727 18.2979 34.8468C18.3796 33.7752 18.0936 32.7078 17.4871 31.8206C16.7366 30.7229 16.7366 29.2771 17.4871 28.1794C18.0936 27.2922 18.3796 26.2248 18.2979 25.1532C18.1969 23.8273 18.9198 22.5753 20.1185 21.9999C21.0874 21.5348 21.8688 20.7534 22.3338 19.7845C22.9093 18.5858 24.1613 17.8629 25.4872 17.9639C26.5588 18.0456 27.6262 17.7596 28.5134 17.1531C29.6111 16.4027 31.0568 16.4027 32.1546 17.1531Z" stroke="#89225A" stroke-width="1.5"/>
<path fill-rule="evenodd" clip-rule="evenodd" d="M35.334 25.4999C35.9198 24.9141 36.6226 24.8535 37.2084 25.4392C37.7941 26.025 37.7941 26.9748 37.2084 27.5606L30.1373 34.6316C29.5515 35.2174 28.6018 35.2174 28.016 34.6316L23.7733 30.389C23.1875 29.8032 23.1875 28.8535 23.7733 28.2677C24.3591 27.6819 25.2482 27.9141 25.834 28.4999L29.016 31.6819L35.334 25.4999Z" fill="#89225A"/>
</svg>
