<svg width="61" height="60" viewBox="0 0 61 60" fill="none" xmlns="http://www.w3.org/2000/svg">
<rect x="0.666016" width="60" height="60" rx="30" fill="#FCE5EE"/>
<path d="M17.332 42H43.9987" stroke="#89225A" stroke-width="1.5" stroke-linecap="round" stroke-linejoin="round"/>
<path d="M24 31.3333H21.3333C20.597 31.3333 20 31.9302 20 32.6666V40.6666C20 41.403 20.597 41.9999 21.3333 41.9999H24C24.7364 41.9999 25.3333 41.403 25.3333 40.6666V32.6666C25.3333 31.9302 24.7364 31.3333 24 31.3333Z" stroke="#89225A" stroke-width="1.5" stroke-linejoin="round"/>
<path d="M22.666 36.6667H23.3327" stroke="#89225A" stroke-width="1.5" stroke-linecap="round" stroke-linejoin="round"/>
<path d="M39.9987 16.6667H26.6654C25.929 16.6667 25.332 17.2637 25.332 18.0001V40.6667C25.332 41.4031 25.929 42.0001 26.6654 42.0001H39.9987C40.7351 42.0001 41.332 41.4031 41.332 40.6667V18.0001C41.332 17.2637 40.7351 16.6667 39.9987 16.6667Z" stroke="#89225A" stroke-width="1.5" stroke-linejoin="round"/>
<path d="M31.9987 20.6667H29.332V23.3334H31.9987V20.6667Z" fill="#89225A"/>
<path d="M37.3327 20.6667H34.666V23.3334H37.3327V20.6667Z" fill="#89225A"/>
<path d="M31.9987 25.3333H29.332V27.9999H31.9987V25.3333Z" fill="#89225A"/>
<path d="M37.3327 25.3333H34.666V27.9999H37.3327V25.3333Z" fill="#89225A"/>
<path d="M37.3327 30H34.666V32.6667H37.3327V30Z" fill="#89225A"/>
<path d="M37.3327 34.6667H34.666V37.3334H37.3327V34.6667Z" fill="#89225A"/>
</svg>
