<svg width="61" height="60" viewBox="0 0 61 60" fill="none" xmlns="http://www.w3.org/2000/svg">
<rect x="0.333984" width="60" height="60" rx="30" fill="#FCE5EE"/>
<path d="M23.25 19.5V19.5C22.553 19.5 22.2045 19.5 21.9147 19.5576C20.7247 19.7944 19.7944 20.7247 19.5576 21.9147C19.5 22.2045 19.5 22.553 19.5 23.25V30C19.5 31.394 19.5 32.0909 19.6153 32.6705C20.0887 35.0507 21.9493 36.9113 24.3295 37.3847C24.9091 37.5 25.606 37.5 27 37.5V37.5M23.25 19.5C23.25 20.3284 23.9216 21 24.75 21C25.5784 21 26.25 20.3284 26.25 19.5C26.25 18.6716 25.5784 18 24.75 18C23.9216 18 23.25 18.6716 23.25 19.5ZM31.5 19.5C31.5 20.3284 30.8284 21 30 21C29.1716 21 28.5 20.3284 28.5 19.5C28.5 18.6716 29.1716 18 30 18C30.8284 18 31.5 18.6716 31.5 19.5ZM31.5 19.5V19.5C33.1569 19.5 34.5 20.8431 34.5 22.5V30C34.5 31.394 34.5 32.0909 34.3847 32.6705C33.9113 35.0507 32.0507 36.9113 29.6705 37.3847C29.0909 37.5 28.394 37.5 27 37.5V37.5M27 37.5C27 45 39.75 45.75 39.75 37.5V31.5" stroke="#89225A" stroke-width="1.5"/>
<path d="M42 29.25C42 30.4926 40.9926 31.5 39.75 31.5C38.5074 31.5 37.5 30.4926 37.5 29.25C37.5 28.0074 38.5074 27 39.75 27C40.9926 27 42 28.0074 42 29.25Z" stroke="#89225A" stroke-width="1.5"/>
<path d="M39.75 29.2349H39.765V29.2499H39.75V29.2349Z" stroke="#89225A" stroke-width="1.5" stroke-linejoin="round"/>
</svg>
