<svg width="60" height="60" viewBox="0 0 60 60" fill="none" xmlns="http://www.w3.org/2000/svg">
<rect width="60" height="60" rx="30" fill="#FCE5EE"/>
<path d="M40.5 39V39C42.5711 39 44.25 37.3211 44.25 35.25V32.25M40.5 39C40.5 40.2426 39.4926 41.25 38.25 41.25C37.0074 41.25 36 40.2426 36 39M40.5 39C40.5 37.7574 39.4926 36.75 38.25 36.75C37.0074 36.75 36 37.7574 36 39M42.0625 25.5L40.1576 22.2345C39.5925 21.2658 39.31 20.7814 38.8474 20.5157C38.3848 20.25 37.824 20.25 36.7025 20.25H35.872M42.0625 25.5L43.7051 28.3159C43.976 28.7802 44.1114 29.0124 44.1807 29.2687C44.25 29.5251 44.25 29.7939 44.25 30.3314V32.25M42.0625 25.5H39.75C39.3358 25.5 39 25.8358 39 26.25V30.75C39 31.5784 39.6716 32.25 40.5 32.25H44.25M16.5 31.5V34.5C16.5 36.9853 18.5147 39 21 39H23.25M16.5 31.5V22.5C16.5 20.4289 18.1789 18.75 20.25 18.75H33.75C34.7297 18.75 35.5631 19.3761 35.872 20.25M16.5 31.5H33.75C34.9926 31.5 36 30.4926 36 29.25V21C36 20.737 35.9549 20.4846 35.872 20.25M36 39H27.75M27.75 39C27.75 40.2426 26.7426 41.25 25.5 41.25C24.2574 41.25 23.25 40.2426 23.25 39M27.75 39C27.75 37.7574 26.7426 36.75 25.5 36.75C24.2574 36.75 23.25 37.7574 23.25 39" stroke="#89225A" stroke-width="1.5" stroke-linecap="round"/>
<path d="M25.9321 22.213C25.875 22.3508 25.875 22.5255 25.875 22.875V23.589C25.875 23.606 25.875 23.6145 25.8697 23.6197C25.8645 23.625 25.856 23.625 25.839 23.625H25.125C24.7755 23.625 24.6008 23.625 24.463 23.6821C24.2792 23.7582 24.1332 23.9042 24.0571 24.088C24 24.2258 24 24.4005 24 24.75C24 25.0995 24 25.2742 24.0571 25.412C24.1332 25.5958 24.2792 25.7418 24.463 25.8179C24.6008 25.875 24.7755 25.875 25.125 25.875H25.839C25.856 25.875 25.8645 25.875 25.8697 25.8803C25.875 25.8855 25.875 25.894 25.875 25.911V26.625C25.875 26.9745 25.875 27.1492 25.9321 27.287C26.0082 27.4708 26.1542 27.6168 26.338 27.6929C26.4758 27.75 26.6505 27.75 27 27.75C27.3495 27.75 27.5242 27.75 27.662 27.6929C27.8458 27.6168 27.9918 27.4708 28.0679 27.287C28.125 27.1492 28.125 26.9745 28.125 26.625V25.911C28.125 25.894 28.125 25.8855 28.1303 25.8803C28.1355 25.875 28.144 25.875 28.161 25.875H28.875C29.2245 25.875 29.3992 25.875 29.537 25.8179C29.7208 25.7418 29.8668 25.5958 29.9429 25.412C30 25.2742 30 25.0995 30 24.75C30 24.4005 30 24.2258 29.9429 24.088C29.8668 23.9042 29.7208 23.7582 29.537 23.6821C29.3992 23.625 29.2245 23.625 28.875 23.625H28.161C28.144 23.625 28.1355 23.625 28.1303 23.6197C28.125 23.6145 28.125 23.606 28.125 23.589V22.875C28.125 22.5255 28.125 22.3508 28.0679 22.213C27.9918 22.0292 27.8458 21.8832 27.662 21.8071C27.5242 21.75 27.3495 21.75 27 21.75C26.6505 21.75 26.4758 21.75 26.338 21.8071C26.1542 21.8832 26.0082 22.0292 25.9321 22.213Z" stroke="#89225A"/>
</svg>
