<svg width="61" height="60" viewBox="0 0 61 60" fill="none" xmlns="http://www.w3.org/2000/svg">
<rect x="0.666016" width="60" height="60" rx="30" fill="#FCE5EE"/>
<path d="M18.5449 18.4849V23.3333H23.3934" stroke="#89225A" stroke-width="1.5" stroke-linecap="round" stroke-linejoin="round"/>
<path d="M17.332 30.0001C17.332 37.3639 23.3016 43.3334 30.6654 43.3334C38.0292 43.3334 43.9987 37.3639 43.9987 30.0001C43.9987 22.6363 38.0292 16.6667 30.6654 16.6667C25.7307 16.6667 21.4221 19.3475 19.1165 23.3321" stroke="#89225A" stroke-width="1.5" stroke-linecap="round" stroke-linejoin="round"/>
<path d="M30.0293 32.875V34H24.3105V33.0332L27.0879 30.0039C27.3926 29.6602 27.6328 29.3633 27.8086 29.1133C27.9844 28.8633 28.1074 28.6387 28.1777 28.4395C28.252 28.2363 28.2891 28.0391 28.2891 27.8477C28.2891 27.5781 28.2383 27.3418 28.1367 27.1387C28.0391 26.9316 27.8945 26.7695 27.7031 26.6523C27.5117 26.5312 27.2793 26.4707 27.0059 26.4707C26.6895 26.4707 26.4238 26.5391 26.209 26.6758C25.9941 26.8125 25.832 27.002 25.7227 27.2441C25.6133 27.4824 25.5586 27.7559 25.5586 28.0645H24.1465C24.1465 27.5684 24.2598 27.1152 24.4863 26.7051C24.7129 26.291 25.041 25.9629 25.4707 25.7207C25.9004 25.4746 26.418 25.3516 27.0234 25.3516C27.5938 25.3516 28.0781 25.4473 28.4766 25.6387C28.875 25.8301 29.1777 26.1016 29.3848 26.4531C29.5957 26.8047 29.7012 27.2207 29.7012 27.7012C29.7012 27.9668 29.6582 28.2305 29.5723 28.4922C29.4863 28.7539 29.3633 29.0156 29.2031 29.2773C29.0469 29.5352 28.8613 29.7949 28.6465 30.0566C28.4316 30.3145 28.1953 30.5762 27.9375 30.8418L26.0918 32.875H30.0293Z" fill="#89225A"/>
<path d="M37.0078 30.959V32.084H30.8555L30.8086 31.2344L34.4883 25.4688H35.6191L34.3945 27.5664L32.2793 30.959H37.0078ZM35.9414 25.4688V34H34.5293V25.4688H35.9414Z" fill="#89225A"/>
</svg>
