<svg width="42" height="43" viewBox="0 0 42 43" fill="none" xmlns="http://www.w3.org/2000/svg">
<path opacity="0.09" fill-rule="evenodd" clip-rule="evenodd" d="M0.0976562 21.5721C0.0976562 10.1637 9.37216 0.915283 20.8128 0.915283C32.2535 0.915283 41.528 10.1637 41.528 21.5721C41.528 32.9806 32.2535 42.2289 20.8128 42.2289C9.37216 42.2289 0.0976562 32.9806 0.0976562 21.5721Z" fill="#6B7280"/>
<path fill-rule="evenodd" clip-rule="evenodd" d="M20.799 10.552C17.7985 10.552 17.422 10.5651 16.2435 10.6186C15.0674 10.6723 14.2645 10.858 13.5621 11.1304C12.8354 11.4118 12.219 11.7883 11.6049 12.4009C10.9904 13.0133 10.6129 13.6279 10.3298 14.3523C10.0559 15.0531 9.86946 15.8539 9.81652 17.0264C9.76381 18.2016 9.75 18.5773 9.75 21.5695C9.75 24.5616 9.76335 24.936 9.81675 26.1112C9.87084 27.2841 10.057 28.0847 10.33 28.7852C10.6124 29.5099 10.9899 30.1245 11.6042 30.7369C12.2181 31.3498 12.8345 31.7271 13.5607 32.0085C14.2636 32.281 15.0667 32.4667 16.2426 32.5204C17.4211 32.5739 17.7974 32.5869 20.7976 32.5869C23.7983 32.5869 24.1738 32.5739 25.3522 32.5204C26.5284 32.4667 27.3321 32.281 28.0351 32.0085C28.7615 31.7271 29.3769 31.3498 29.9908 30.7369C30.6054 30.1245 30.9828 29.5099 31.2659 28.7855C31.5375 28.0847 31.724 27.2839 31.7792 26.1114C31.8322 24.9362 31.846 24.5616 31.846 21.5695C31.846 18.5773 31.8322 18.2018 31.7792 17.0266C31.724 15.8537 31.5375 15.0531 31.2659 14.3526C30.9828 13.6279 30.6054 13.0133 29.9908 12.4009C29.3763 11.788 28.7617 11.4116 28.0344 11.1304C27.3301 10.858 26.5268 10.6723 25.3506 10.6186C24.1721 10.5651 23.797 10.552 20.7956 10.552H20.799ZM19.8079 12.5374C20.102 12.537 20.4302 12.5374 20.799 12.5374C23.7488 12.5374 24.0984 12.548 25.2633 12.6008C26.3405 12.6499 26.9251 12.8294 27.3146 12.9802C27.8302 13.1799 28.1977 13.4186 28.5842 13.8042C28.9709 14.1898 29.2103 14.5571 29.411 15.0712C29.5622 15.4591 29.7424 16.0421 29.7914 17.1163C29.8444 18.2777 29.8559 18.6266 29.8559 21.5669C29.8559 24.5072 29.8444 24.8561 29.7914 26.0175C29.7422 27.0917 29.5622 27.6747 29.411 28.0626C29.2107 28.5768 28.9709 28.9429 28.5842 29.3283C28.1975 29.7139 27.8304 29.9526 27.3146 30.1523C26.9256 30.3038 26.3405 30.4828 25.2633 30.5319C24.0987 30.5847 23.7488 30.5962 20.799 30.5962C17.8489 30.5962 17.4993 30.5847 16.3346 30.5319C15.2574 30.4824 14.6728 30.3029 14.2831 30.1521C13.7675 29.9524 13.3993 29.7137 13.0126 29.328C12.6259 28.9424 12.3865 28.5761 12.1858 28.0617C12.0346 27.6738 11.8544 27.0908 11.8054 26.0166C11.7524 24.8552 11.7418 24.5063 11.7418 21.5642C11.7418 18.622 11.7524 18.275 11.8054 17.1136C11.8546 16.0394 12.0346 15.4564 12.1858 15.068C12.3861 14.5538 12.6259 14.1866 13.0126 13.801C13.3993 13.4154 13.7675 13.1767 14.2831 12.9765C14.6726 12.825 15.2574 12.646 16.3346 12.5966C17.3538 12.5507 17.7488 12.537 19.8079 12.5347V12.5374ZM26.6964 14.3668C25.9644 14.3668 25.3706 14.9583 25.3706 15.6884C25.3706 16.4183 25.9644 17.0105 26.6964 17.0105C27.4283 17.0105 28.0221 16.4183 28.0221 15.6884C28.0221 14.9585 27.4283 14.3668 26.6964 14.3668ZM20.799 15.9115C17.6658 15.9115 15.1254 18.4448 15.1254 21.5694C15.1254 24.694 17.6658 27.2262 20.799 27.2262C23.9323 27.2262 26.4718 24.694 26.4718 21.5694C26.4718 18.4448 23.9323 15.9115 20.799 15.9115ZM20.799 17.897C22.8328 17.897 24.4817 19.5411 24.4817 21.5694C24.4817 23.5976 22.8328 25.2419 20.799 25.2419C18.765 25.2419 17.1163 23.5976 17.1163 21.5694C17.1163 19.5411 18.765 17.897 20.799 17.897Z" fill="#89225A"/>
</svg>
