<svg width="42" height="43" viewBox="0 0 42 43" fill="none" xmlns="http://www.w3.org/2000/svg">
<path opacity="0.09" fill-rule="evenodd" clip-rule="evenodd" d="M0.546875 21.5721C0.546875 10.1637 9.82138 0.915283 21.2621 0.915283C32.7027 0.915283 41.9773 10.1637 41.9773 21.5721C41.9773 32.9806 32.7027 42.2289 21.2621 42.2289C9.82138 42.2289 0.546875 32.9806 0.546875 21.5721Z" fill="#6B7280"/>
<path d="M32.299 32.586V24.5158C32.299 20.5495 31.4428 17.5198 26.8027 17.5198C24.5655 17.5198 23.074 18.7317 22.4663 19.8885H22.4111V17.8778H18.0195V32.586H22.6044V25.287C22.6044 23.359 22.9635 21.5136 25.3388 21.5136C27.6865 21.5136 27.7141 23.6895 27.7141 25.3972V32.5585H32.299V32.586Z" fill="#89225A"/>
<path d="M10.5938 17.8787H15.1787V32.5868H10.5938V17.8787Z" fill="#89225A"/>
<path d="M12.8703 10.553C11.4064 10.553 10.2188 11.7379 10.2188 13.1984C10.2188 14.659 11.4064 15.8715 12.8703 15.8715C14.3341 15.8715 15.5218 14.659 15.5218 13.1984C15.5218 11.7379 14.3341 10.553 12.8703 10.553Z" fill="#89225A"/>
</svg>
