<svg width="42" height="43" viewBox="0 0 42 43" fill="none" xmlns="http://www.w3.org/2000/svg">
<path opacity="0.09" fill-rule="evenodd" clip-rule="evenodd" d="M0.322266 21.5721C0.322266 10.1637 9.59677 0.915283 21.0375 0.915283C32.4781 0.915283 41.7526 10.1637 41.7526 21.5721C41.7526 32.9806 32.4781 42.2289 21.0375 42.2289C9.59677 42.2289 0.322266 32.9806 0.322266 21.5721Z" fill="#6B7280"/>
<path fill-rule="evenodd" clip-rule="evenodd" d="M20.3992 17.7016L20.4427 18.4164L19.7182 18.3289C17.081 17.9934 14.7772 16.8555 12.8211 14.9445L11.8648 13.9963L11.6184 14.6965C11.0968 16.2574 11.4301 17.9058 12.5168 19.0145C13.0964 19.6272 12.966 19.7147 11.9662 19.35C11.6184 19.2333 11.3141 19.1458 11.2852 19.1895C11.1837 19.2917 11.5315 20.6191 11.8068 21.1443C12.1835 21.8737 12.9515 22.5885 13.7919 23.0115L14.5019 23.347L13.6615 23.3616C12.8501 23.3616 12.8211 23.3762 12.908 23.6826C13.1978 24.6308 14.3425 25.6373 15.6176 26.0749L16.5159 26.3813L15.7335 26.8481C14.5743 27.5191 13.2123 27.8984 11.8503 27.9276C11.1982 27.9422 10.6621 28.0005 10.6621 28.0443C10.6621 28.1902 12.4299 29.0071 13.4586 29.328C16.5449 30.2762 20.2108 29.8678 22.9639 28.2485C24.92 27.0961 26.8761 24.8058 27.7889 22.5885C28.2816 21.4069 28.7742 19.2479 28.7742 18.2122C28.7742 17.5411 28.8177 17.4536 29.6291 16.6513C30.1073 16.1845 30.5565 15.6739 30.6434 15.528C30.7883 15.2509 30.7738 15.2509 30.0348 15.4989C28.8032 15.9365 28.6293 15.8781 29.2379 15.2217C29.6871 14.7549 30.2232 13.9088 30.2232 13.6608C30.2232 13.617 30.0058 13.69 29.7595 13.8213C29.4987 13.9672 28.9191 14.186 28.4844 14.3173L27.702 14.5652L26.992 14.0839C26.6008 13.8213 26.0502 13.5295 25.7604 13.442C25.0214 13.2378 23.8912 13.2669 23.2247 13.5003C21.4135 14.1568 20.2688 15.849 20.3992 17.7016Z" fill="#89225A"/>
</svg>
